<svg xmlns="http://www.w3.org/2000/svg" width="413.445" height="219.784" viewBox="0 0 413.445 219.784">
  <g id="Group_162538" data-name="Group 162538" transform="translate(-67.806 6.035)">
    <g id="Background_Complete" data-name="Background Complete" transform="translate(203.252 49.879)">
      <g id="Group_31823" data-name="Group 31823" transform="translate(73.882 -20.917)">
        <g id="Group_31808" data-name="Group 31808">
          <g id="Group_31807" data-name="Group 31807">
            <g id="Group_31806" data-name="Group 31806">
              <g id="Group_31805" data-name="Group 31805">
                <g id="Group_31804" data-name="Group 31804">
                  <g id="Group_31803" data-name="Group 31803">
                    <g id="Group_31802" data-name="Group 31802">
                      <g id="Group_31799" data-name="Group 31799" transform="translate(0.472 0.145)">
                        <path id="Path_42258" data-name="Path 42258" d="M390.961,194.378l-5.34-7.3-2.727,8.884-7.089-.709,4.395,8.463-7.841,3.92,9.247.54,1.965,8.144,7.1-6.027,7.177,5.724-.016-8.082,8.281-.75-5.45-4.468,3.583-6.467-6.742.808-.25-8.913Z" transform="translate(-372.359 -187.075)" fill="#fff"/>
                      </g>
                      <g id="Group_31801" data-name="Group 31801">
                        <g id="Group_31800" data-name="Group 31800">
                          <path id="Path_42259" data-name="Path 42259" d="M390.507,194.239s.142-.152.417-.43l1.212-1.223,4.615-4.629.107-.107,0,.152c.075,2.464.168,5.476.274,8.912l-.1-.086,6.741-.821.2-.024-.1.175L400.3,202.63l-.027-.142,5.454,4.462.227.186-.293.027-8.28.756.115-.126c.006,2.569.013,5.3.02,8.082v.272l-.213-.17-7.178-5.722.169,0-2.336,1.985-4.759,4.042-.164.139-.05-.209q-1-4.158-1.963-8.145l.118.1-9.247-.545-.464-.028.416-.207,7.845-3.913-.052.158-4.383-8.469-.088-.17.19.019,7.088.722-.1.063q1.609-5.192,2.751-8.876l.039-.126.076.106,3.922,5.429,1.018,1.418c.229.321.346.494.346.494s-.119-.15-.351-.459l-1.033-1.388-4.008-5.417.115-.019-2.7,8.891-.021.071-.074-.008-7.091-.7.1-.151,4.406,8.457.055.1-.106.053-7.838,3.926-.048-.235,9.248.535.1.006.022.094,1.968,8.143-.214-.069,4.758-4.043,2.337-1.985.083-.071.085.068,7.176,5.726-.212.1c0-2.787-.008-5.513-.012-8.082v-.116l.115-.01,8.282-.743-.065.213-5.445-4.473-.073-.06.046-.082,3.593-6.462.1.151-6.743.8-.1.011,0-.1c-.087-3.436-.164-6.449-.226-8.913l.112.044-4.7,4.6-1.222,1.19C390.648,194.11,390.507,194.239,390.507,194.239Z" transform="translate(-371.433 -186.791)" fill="#e0e0e0"/>
                        </g>
                      </g>
                    </g>
                  </g>
                </g>
              </g>
            </g>
          </g>
        </g>
        <g id="Group_31815" data-name="Group 31815" transform="translate(18.443 10.897)">
          <g id="Group_31811" data-name="Group 31811" transform="translate(0.441)">
            <g id="Group_31810" data-name="Group 31810">
              <g id="Group_31809" data-name="Group 31809">
                <path id="Path_42260" data-name="Path 42260" d="M410.59,208.861l-.549,4.23a.691.691,0,0,1-.689.6h0a.69.69,0,0,1-.686-.66l-.19-4.3a.542.542,0,0,1,.585-.564l1.035.083A.542.542,0,0,1,410.59,208.861Z" transform="translate(-408.475 -208.167)" fill="#e0e0e0"/>
              </g>
            </g>
          </g>
          <g id="Group_31814" data-name="Group 31814" transform="translate(0 6.54)">
            <g id="Group_31813" data-name="Group 31813">
              <g id="Group_31812" data-name="Group 31812">
                <path id="Path_42261" data-name="Path 42261" d="M407.643,222.3a1.039,1.039,0,1,0,.744-1.267A1.038,1.038,0,0,0,407.643,222.3Z" transform="translate(-407.61 -220.996)" fill="#e0e0e0"/>
              </g>
            </g>
          </g>
        </g>
        <g id="Group_31822" data-name="Group 31822" transform="translate(14.864 10.661)">
          <g id="Group_31818" data-name="Group 31818" transform="translate(0.441)">
            <g id="Group_31817" data-name="Group 31817">
              <g id="Group_31816" data-name="Group 31816">
                <path id="Path_42262" data-name="Path 42262" d="M403.57,208.4l-.549,4.23a.691.691,0,0,1-.689.6h0a.69.69,0,0,1-.686-.66l-.19-4.3a.542.542,0,0,1,.585-.564l1.035.083A.542.542,0,0,1,403.57,208.4Z" transform="translate(-401.455 -207.704)" fill="#e0e0e0"/>
              </g>
            </g>
          </g>
          <g id="Group_31821" data-name="Group 31821" transform="translate(0 6.54)">
            <g id="Group_31820" data-name="Group 31820">
              <g id="Group_31819" data-name="Group 31819">
                <path id="Path_42263" data-name="Path 42263" d="M400.624,221.834a1.039,1.039,0,1,0,.744-1.267A1.039,1.039,0,0,0,400.624,221.834Z" transform="translate(-400.59 -220.533)" fill="#e0e0e0"/>
              </g>
            </g>
          </g>
        </g>
      </g>
      <g id="Group_31903" data-name="Group 31903" transform="translate(0 0)">
        <g id="Group_31856" data-name="Group 31856" transform="translate(49.3)">
          <g id="Group_31831" data-name="Group 31831" transform="translate(0.069)">
            <g id="Group_31827" data-name="Group 31827" transform="translate(3.497 9.066)">
              <g id="Group_31826" data-name="Group 31826" transform="translate(0 0)">
                <g id="Group_31825" data-name="Group 31825">
                  <rect id="Rectangle_18494" data-name="Rectangle 18494" width="6.661" height="10.463" transform="translate(0 0.008) rotate(-0.067)" fill="#e0e0e0"/>
                </g>
              </g>
            </g>
            <g id="Group_31830" data-name="Group 31830">
              <g id="Group_31829" data-name="Group 31829">
                <g id="Group_31828" data-name="Group 31828">
                  <path id="Path_42264" data-name="Path 42264" d="M252.735,28.161l-13.72.016L239,16.9a26,26,0,0,1,13.72-.016Z" transform="translate(-239.002 -15.97)" fill="#ebebeb"/>
                </g>
              </g>
            </g>
          </g>
          <g id="Group_31835" data-name="Group 31835" transform="translate(0 0.957)">
            <g id="Group_31834" data-name="Group 31834">
              <g id="Group_31833" data-name="Group 31833">
                <g id="Group_31832" data-name="Group 31832">
                  <path id="Path_42265" data-name="Path 42265" d="M252.817,17.852a2.629,2.629,0,0,1-.506.253,12.8,12.8,0,0,1-1.444.537,16.8,16.8,0,0,1-2.224.533,18.9,18.9,0,0,1-2.791.243,18.934,18.934,0,0,1-2.795-.209,16.8,16.8,0,0,1-2.23-.507,12.8,12.8,0,0,1-1.451-.519,2.6,2.6,0,0,1-.509-.247c.016-.041.758.271,2,.607a19.35,19.35,0,0,0,2.218.453,20.7,20.7,0,0,0,2.762.188,20.666,20.666,0,0,0,2.758-.221,19.3,19.3,0,0,0,2.212-.479C252.063,18.131,252.8,17.81,252.817,17.852Z" transform="translate(-238.867 -17.848)" fill="#e0e0e0"/>
                </g>
              </g>
            </g>
          </g>
          <g id="Group_31839" data-name="Group 31839" transform="translate(4.492 2.499)">
            <g id="Group_31838" data-name="Group 31838">
              <g id="Group_31837" data-name="Group 31837">
                <g id="Group_31836" data-name="Group 31836">
                  <path id="Path_42266" data-name="Path 42266" d="M247.8,30.544c-.064,0-.119-2.165-.122-4.835s.047-4.835.111-4.835.12,2.164.123,4.835S247.865,30.544,247.8,30.544Z" transform="translate(-247.678 -20.873)" fill="#e0e0e0"/>
                </g>
              </g>
            </g>
          </g>
          <g id="Group_31843" data-name="Group 31843" transform="translate(7.102 2.518)">
            <g id="Group_31842" data-name="Group 31842">
              <g id="Group_31841" data-name="Group 31841">
                <g id="Group_31840" data-name="Group 31840">
                  <path id="Path_42267" data-name="Path 42267" d="M252.921,30.624c-.065,0-.119-2.174-.122-4.857s.046-4.857.111-4.857.12,2.174.123,4.857S252.986,30.624,252.921,30.624Z" transform="translate(-252.799 -20.91)" fill="#e0e0e0"/>
                </g>
              </g>
            </g>
          </g>
          <g id="Group_31847" data-name="Group 31847" transform="translate(9.713 2.471)">
            <g id="Group_31846" data-name="Group 31846">
              <g id="Group_31845" data-name="Group 31845">
                <g id="Group_31844" data-name="Group 31844">
                  <path id="Path_42268" data-name="Path 42268" d="M258.042,30.533c-.065,0-.12-2.175-.123-4.857s.047-4.857.112-4.857.119,2.174.122,4.857S258.106,30.533,258.042,30.533Z" transform="translate(-257.919 -20.818)" fill="#e0e0e0"/>
                </g>
              </g>
            </g>
          </g>
          <g id="Group_31851" data-name="Group 31851" transform="translate(11.886 1.683)">
            <g id="Group_31850" data-name="Group 31850">
              <g id="Group_31849" data-name="Group 31849">
                <g id="Group_31848" data-name="Group 31848">
                  <path id="Path_42269" data-name="Path 42269" d="M262.305,29.772c-.065,0-.12-2.351-.123-5.25s.046-5.25.111-5.25.12,2.35.123,5.25S262.37,29.772,262.305,29.772Z" transform="translate(-262.182 -19.272)" fill="#e0e0e0"/>
                </g>
              </g>
            </g>
          </g>
          <g id="Group_31855" data-name="Group 31855" transform="translate(2.023 1.628)">
            <g id="Group_31854" data-name="Group 31854">
              <g id="Group_31853" data-name="Group 31853">
                <g id="Group_31852" data-name="Group 31852">
                  <path id="Path_42270" data-name="Path 42270" d="M242.958,29.663c-.065,0-.12-2.351-.123-5.25s.046-5.25.111-5.25.12,2.35.123,5.25S243.022,29.663,242.958,29.663Z" transform="translate(-242.835 -19.163)" fill="#e0e0e0"/>
                </g>
              </g>
            </g>
          </g>
        </g>
        <g id="Group_31864" data-name="Group 31864" transform="translate(88.715 16.577)">
          <g id="Group_31863" data-name="Group 31863">
            <g id="Group_31859" data-name="Group 31859" transform="translate(0 5.909)">
              <g id="Group_31858" data-name="Group 31858">
                <g id="Group_31857" data-name="Group 31857">
                  <path id="Path_42271" data-name="Path 42271" d="M319.514,68.813l-3.332-3.5,5.429-5.234,3.332,3.5Z" transform="translate(-316.182 -60.078)" fill="#e0e0e0"/>
                </g>
              </g>
            </g>
            <g id="Group_31862" data-name="Group 31862" transform="translate(2.061)">
              <g id="Group_31861" data-name="Group 31861">
                <g id="Group_31860" data-name="Group 31860">
                  <path id="Path_42272" data-name="Path 42272" d="M327.088,61.34l-6.863-7.212,5.851-5.641A18.994,18.994,0,0,1,332.94,55.7Z" transform="translate(-320.225 -48.487)" fill="#ebebeb"/>
                </g>
              </g>
            </g>
          </g>
        </g>
        <g id="Group_31872" data-name="Group 31872" transform="translate(4.168 19.438)">
          <g id="Group_31871" data-name="Group 31871">
            <g id="Group_31867" data-name="Group 31867" transform="translate(5.768 6.136)">
              <g id="Group_31866" data-name="Group 31866">
                <g id="Group_31865" data-name="Group 31865">
                  <path id="Path_42273" data-name="Path 42273" d="M170.237,71.8l-3.608,3.212-4.981-5.667,3.608-3.212Z" transform="translate(-161.649 -66.136)" fill="#e0e0e0"/>
                </g>
              </g>
            </g>
            <g id="Group_31870" data-name="Group 31870">
              <g id="Group_31869" data-name="Group 31869">
                <g id="Group_31868" data-name="Group 31868">
                  <path id="Path_42274" data-name="Path 42274" d="M163.135,60.208,155.7,66.825l-5.368-6.109a18.962,18.962,0,0,1,7.432-6.616Z" transform="translate(-150.335 -54.1)" fill="#ebebeb"/>
                </g>
              </g>
            </g>
          </g>
        </g>
        <g id="Group_31874" data-name="Group 31874" transform="translate(0 14.636)">
          <g id="Group_31873" data-name="Group 31873" transform="translate(0 0)">
            <ellipse id="Ellipse_6423" data-name="Ellipse 6423" cx="54.913" cy="55.269" rx="54.913" ry="55.269" transform="translate(0 0.126) rotate(-0.066)" fill="#ebebeb"/>
          </g>
        </g>
        <g id="Group_31877" data-name="Group 31877" transform="translate(4.355 19.018)">
          <g id="Group_31875" data-name="Group 31875" transform="translate(0.117 0.119)">
            <ellipse id="Ellipse_6424" data-name="Ellipse 6424" cx="50.449" cy="50.776" rx="50.449" ry="50.776" transform="matrix(1, -0.001, 0.001, 1, 0, 0.11)" fill="#fff"/>
          </g>
          <g id="Group_31876" data-name="Group 31876" transform="translate(0 0)">
            <path id="Path_42275" data-name="Path 42275" d="M201.383,155.176a50.951,50.951,0,1,1,50.562-51.009A50.844,50.844,0,0,1,201.383,155.176Zm-.118-101.553A50.6,50.6,0,1,0,251.6,104.168,50.5,50.5,0,0,0,201.265,53.623Z" transform="translate(-150.703 -53.276)" fill="#e0e0e0"/>
          </g>
        </g>
        <g id="Group_31900" data-name="Group 31900" transform="translate(28.673 31.784)">
          <g id="Group_31884" data-name="Group 31884" transform="translate(0 21.386)">
            <g id="Group_31880" data-name="Group 31880">
              <g id="Group_31879" data-name="Group 31879">
                <g id="Group_31878" data-name="Group 31878">
                  <path id="Path_42276" data-name="Path 42276" d="M221.117,137.984,198.4,120.268l26.589,12.3.787,4.686Z" transform="translate(-198.404 -120.268)" fill="#ebebeb"/>
                </g>
              </g>
            </g>
            <g id="Group_31883" data-name="Group 31883">
              <g id="Group_31882" data-name="Group 31882">
                <g id="Group_31881" data-name="Group 31881">
                  <path id="Path_42277" data-name="Path 42277" d="M198.4,120.268l23.713,14,2.876-1.695Z" transform="translate(-198.404 -120.268)" fill="#e0e0e0"/>
                </g>
              </g>
            </g>
          </g>
          <g id="Group_31897" data-name="Group 31897" transform="translate(22.572 33.688)">
            <g id="Group_31892" data-name="Group 31892">
              <g id="Group_31887" data-name="Group 31887" transform="translate(0.095 0.011)">
                <g id="Group_31886" data-name="Group 31886">
                  <g id="Group_31885" data-name="Group 31885">
                    <path id="Path_42278" data-name="Path 42278" d="M247.583,144.42a4.753,4.753,0,1,1-4.717,4.758A4.738,4.738,0,0,1,247.583,144.42Z" transform="translate(-242.866 -144.42)" fill="#fafafa"/>
                  </g>
                </g>
              </g>
              <g id="Group_31891" data-name="Group 31891">
                <g id="Group_31890" data-name="Group 31890">
                  <g id="Group_31889" data-name="Group 31889">
                    <g id="Group_31888" data-name="Group 31888">
                      <path id="Path_42279" data-name="Path 42279" d="M247.492,144.41a10.146,10.146,0,0,0-1.141.194,4.7,4.7,0,0,0-3.186,6.146,4.657,4.657,0,0,0,1.613,2.151,4.569,4.569,0,0,0,5.448-.006,4.659,4.659,0,0,0,1.608-2.155,4.7,4.7,0,0,0-3.2-6.138,10.107,10.107,0,0,0-1.142-.192,3.632,3.632,0,0,1,1.164.1,4.7,4.7,0,0,1,2.657,1.719,4.791,4.791,0,0,1,.917,2.029,4.88,4.88,0,0,1-.194,2.551,4.855,4.855,0,0,1-1.675,2.267,4.775,4.775,0,0,1-5.716.006,4.848,4.848,0,0,1-1.68-2.262,4.878,4.878,0,0,1-.2-2.551,4.788,4.788,0,0,1,.912-2.032,4.7,4.7,0,0,1,2.652-1.726A3.637,3.637,0,0,1,247.492,144.41Z" transform="translate(-242.68 -144.399)" fill="#e0e0e0"/>
                    </g>
                  </g>
                </g>
              </g>
            </g>
            <g id="Group_31896" data-name="Group 31896" transform="translate(1.302 1.226)">
              <g id="Group_31895" data-name="Group 31895">
                <g id="Group_31894" data-name="Group 31894">
                  <g id="Group_31893" data-name="Group 31893">
                    <path id="Path_42280" data-name="Path 42280" d="M248.745,146.8a3.538,3.538,0,1,1-3.51,3.542A3.526,3.526,0,0,1,248.745,146.8Z" transform="translate(-245.235 -146.804)" fill="#e0e0e0"/>
                  </g>
                </g>
              </g>
            </g>
          </g>
          <g id="Group_31899" data-name="Group 31899" transform="translate(26.807)">
            <g id="Group_31898" data-name="Group 31898">
              <path id="Path_42281" data-name="Path 42281" d="M251.336,115.375s-1-30.6.4-37.058C251.731,78.317,254.1,96.866,251.336,115.375Z" transform="translate(-250.987 -78.317)" fill="#e0e0e0"/>
            </g>
          </g>
        </g>
        <g id="Group_31902" data-name="Group 31902" transform="translate(9.381 24.293)">
          <g id="Group_31901" data-name="Group 31901">
            <path id="Path_42282" data-name="Path 42282" d="M204.437,156.363l-.061,0,.131-3.816.108.005Zm18.926-3.116-1.42-3.54.106-.042,1.366,3.562Zm-37.547-1.778-.057-.029,1.683-3.421.094.047Zm53.616-8.843-2.708-2.673.07-.072,2.685,2.7ZM170.8,139.383l-.057-.07,2.937-2.416.05.061Zm79.051-13.04-3.557-1.327.037-.1,3.543,1.367Zm-87.9-4.15-.027-.1,3.665-.984.018.065Zm87.033-14.775,0-.061,3.786-.234.006.108Zm0-.069-.005-.084,3.786-.234.005.085Zm-84.415-3.918-3.751-.567.013-.086,3.751.571ZM244.315,90.2l-.036-.07,3.368-1.757.041.08Zm-73.534-3.4-3.193-2.061.042-.066,3.2,2.05ZM233.12,76.462l-.066-.053,2.366-2.984.066.052Zm-49.943-2.321L181.1,70.949l.057-.038,2.108,3.174Zm34.162-5.674-.071-.019.948-3.7.093.024Zm-17.718-.812L199,63.888l.085-.014.617,3.767Z" transform="translate(-160.683 -63.746)" fill="#e0e0e0"/>
            <path id="Path_42283" data-name="Path 42283" d="M204.314,156.368h-.005l-.061,0a.127.127,0,0,1-.122-.132l.131-3.815a.126.126,0,0,1,.041-.089.155.155,0,0,1,.092-.034l.108.005a.126.126,0,0,1,.088.041.125.125,0,0,1,.033.092l-.178,3.813A.127.127,0,0,1,204.314,156.368Zm18.926-3.116a.128.128,0,0,1-.118-.08l-1.42-3.54a.125.125,0,0,1,0-.1.127.127,0,0,1,.069-.068l.106-.042a.128.128,0,0,1,.167.073l1.366,3.562a.127.127,0,0,1-.072.165l-.052.02A.122.122,0,0,1,223.24,153.252Zm-37.548-1.778a.126.126,0,0,1-.058-.014l-.057-.029a.127.127,0,0,1-.056-.17l1.683-3.421a.129.129,0,0,1,.074-.065.133.133,0,0,1,.1.007l.093.047a.128.128,0,0,1,.057.171l-1.72,3.4a.13.13,0,0,1-.074.064A.132.132,0,0,1,185.692,151.474Zm53.617-8.843a.128.128,0,0,1-.09-.037l-2.708-2.673a.127.127,0,0,1,0-.18l.07-.071a.127.127,0,0,1,.09-.038h0a.128.128,0,0,1,.09.038l2.685,2.7a.127.127,0,0,1,0,.179l-.047.048A.128.128,0,0,1,239.309,142.63Zm-68.632-3.242h-.013a.13.13,0,0,1-.086-.046l-.057-.07a.127.127,0,0,1,.018-.179l2.937-2.416a.131.131,0,0,1,.094-.028.127.127,0,0,1,.086.046l.049.061a.127.127,0,0,1-.017.178l-2.93,2.425A.125.125,0,0,1,170.677,139.388Zm79.051-13.041a.124.124,0,0,1-.044-.008l-3.557-1.326a.128.128,0,0,1-.075-.164l.037-.1a.128.128,0,0,1,.067-.072.125.125,0,0,1,.1,0l3.543,1.367a.128.128,0,0,1,.073.164l-.022.059A.127.127,0,0,1,249.728,126.347Zm-87.9-4.149a.129.129,0,0,1-.063-.016.125.125,0,0,1-.06-.077l-.027-.1a.126.126,0,0,1,.012-.1.13.13,0,0,1,.077-.06l3.665-.983a.127.127,0,0,1,.156.09l.018.066a.127.127,0,0,1-.089.155l-3.656,1.017A.128.128,0,0,1,161.825,122.2Zm87.033-14.775a.128.128,0,0,1-.127-.12l0-.061v-.01l0-.081a.127.127,0,0,1,.119-.135l3.786-.234a.12.12,0,0,1,.135.119l.006.086V107l.006.105a.129.129,0,0,1-.033.092.125.125,0,0,1-.088.042l-3.789.187Zm-84.418-3.987-.019,0-3.751-.567a.13.13,0,0,1-.084-.05.126.126,0,0,1-.023-.095l.013-.085a.128.128,0,0,1,.145-.107l3.751.571a.127.127,0,0,1,.107.145l-.012.082a.128.128,0,0,1-.126.109ZM244.193,90.2a.123.123,0,0,1-.038-.006.127.127,0,0,1-.075-.063l-.036-.07a.127.127,0,0,1,.054-.171l3.368-1.758a.131.131,0,0,1,.1-.008.128.128,0,0,1,.075.063l.041.08a.128.128,0,0,1-.055.171l-3.372,1.748A.124.124,0,0,1,244.193,90.2Zm-73.534-3.4a.13.13,0,0,1-.069-.02L167.4,84.723a.127.127,0,0,1-.038-.175l.042-.066a.128.128,0,0,1,.08-.056.133.133,0,0,1,.1.017l3.2,2.05a.127.127,0,0,1,.039.176l-.048.076a.128.128,0,0,1-.081.056A.125.125,0,0,1,170.659,86.8ZM233,76.466a.125.125,0,0,1-.08-.028l-.066-.053a.127.127,0,0,1-.02-.178l2.366-2.984a.131.131,0,0,1,.086-.047.121.121,0,0,1,.094.028l.066.052a.128.128,0,0,1,.02.179L233.1,76.418a.128.128,0,0,1-.086.047Zm-49.943-2.321a.112.112,0,0,1-.026,0,.129.129,0,0,1-.081-.055L180.866,70.9a.128.128,0,0,1,.036-.176l.057-.037a.126.126,0,0,1,.176.036l2.108,3.174a.128.128,0,0,1-.036.177l-.083.055A.124.124,0,0,1,183.055,74.145Zm34.162-5.674a.123.123,0,0,1-.033,0l-.071-.018a.128.128,0,0,1-.091-.155l.947-3.7a.127.127,0,0,1,.059-.078.122.122,0,0,1,.1-.014l.093.024a.126.126,0,0,1,.077.059.129.129,0,0,1,.013.1l-.969,3.691A.128.128,0,0,1,217.216,68.471ZM199.5,67.659a.127.127,0,0,1-.126-.107l-.62-3.766a.128.128,0,0,1,.1-.146l.085-.014a.124.124,0,0,1,.095.022.127.127,0,0,1,.051.083l.617,3.767a.128.128,0,0,1-.105.147l-.081.013Z" transform="translate(-160.561 -63.623)" fill="#e0e0e0"/>
          </g>
        </g>
      </g>
    </g>
    <g id="Character" transform="translate(121.084 72.451)">
      <g id="Group_32533" data-name="Group 32533" transform="translate(-0.001 -0.001)">
        <g id="Group_32532" data-name="Group 32532">
          <g id="Group_32525" data-name="Group 32525" transform="translate(16.604 80.344)">
            <g id="Group_32524" data-name="Group 32524">
              <path id="Path_42368" data-name="Path 42368" d="M113.153,138.242c.035.151-7.47,2.008-16.76,4.148s-16.853,3.752-16.888,3.6,7.468-2.008,16.761-4.148S113.119,138.091,113.153,138.242Z" transform="translate(-79.505 -138.232)" fill="#263238"/>
            </g>
          </g>
          <g id="Group_32527" data-name="Group 32527" transform="translate(0 62.842)">
            <g id="Group_32526" data-name="Group 32526">
              <path id="Path_42369" data-name="Path 42369" d="M120.59,122.486c0,.155-12.644.211-28.236.126s-28.237-.279-28.237-.435,12.642-.211,28.24-.126S120.591,122.33,120.59,122.486Z" transform="translate(-64.117 -122.011)" fill="#263238"/>
            </g>
          </g>
          <g id="Group_32529" data-name="Group 32529" transform="translate(18.611 33.209)">
            <g id="Group_32528" data-name="Group 32528">
              <path id="Path_42370" data-name="Path 42370" d="M123.157,115.014c-.068.14-9.479-4.328-21.018-9.979S81.3,94.69,81.365,94.551s9.477,4.328,21.02,9.98S123.225,114.875,123.157,115.014Z" transform="translate(-81.365 -94.548)" fill="#263238"/>
            </g>
          </g>
          <g id="Group_32531" data-name="Group 32531" transform="translate(40.668)">
            <g id="Group_32530" data-name="Group 32530">
              <path id="Path_42371" data-name="Path 42371" d="M131.018,108.122c-.129.085-6.774-9.775-14.839-22.02s-14.5-22.245-14.37-22.33,6.772,9.772,14.84,22.022S131.148,108.037,131.018,108.122Z" transform="translate(-101.807 -63.771)" fill="#263238"/>
            </g>
          </g>
        </g>
        <g id="Group_32522" data-name="Group 32522" transform="translate(65.247 30.93)">
          <g id="Group_32444" data-name="Group 32444" transform="translate(79.66 49.627)">
            <g id="Group_32443" data-name="Group 32443">
              <g id="Group_32442" data-name="Group 32442">
                <g id="Group_32441" data-name="Group 32441">
                  <g id="Group_32440" data-name="Group 32440">
                    <path id="Path_42351" data-name="Path 42351" d="M209.263,142.909c-.072.178-2.558-.677-5.554-1.907s-5.367-2.373-5.295-2.551,2.557.677,5.555,1.908S209.335,142.731,209.263,142.909Z" transform="translate(-198.413 -138.428)" fill="#455a64"/>
                  </g>
                </g>
              </g>
            </g>
          </g>
          <g id="Group_32450" data-name="Group 32450">
            <g id="Group_32449" data-name="Group 32449">
              <g id="Group_32448" data-name="Group 32448">
                <g id="Group_32447" data-name="Group 32447">
                  <g id="Group_32446" data-name="Group 32446">
                    <path id="Path_42353" data-name="Path 42353" d="M197.224,133.431s-9.379-1.4-23.244-13.111-21.125-28.079-22.711-27.882-8.756-2.565-19.978,27.5-5.553,36.447-2.927,36.2,20.134-6.581,31.375-6.108,25.976,5.317,25.976,5.317Z" transform="translate(-124.586 -92.436)" fill="#2c5ca0"/>
                  </g>
                </g>
              </g>
            </g>
          </g>
          <g id="Group_32455" data-name="Group 32455" transform="translate(59.779 37.779)">
            <g id="Group_32454" data-name="Group 32454">
              <g id="Group_32453" data-name="Group 32453">
                <g id="Group_32452" data-name="Group 32452">
                  <g id="Group_32451" data-name="Group 32451">
                    <path id="Path_42354" data-name="Path 42354" d="M212.208,145.929l-2.572,5.9-1.152,2.645a7.37,7.37,0,0,1-9.378,3.974l-19.117-5.222,9.121-25.78,19.343,8.684A7.469,7.469,0,0,1,212.208,145.929Z" transform="translate(-179.988 -127.449)" fill="#323755"/>
                  </g>
                </g>
              </g>
            </g>
          </g>
          <g id="Group_32465" data-name="Group 32465" transform="translate(1.644 1.304)">
            <g id="Group_32464" data-name="Group 32464">
              <g id="Group_32463" data-name="Group 32463">
                <g id="Group_32462" data-name="Group 32462">
                  <g id="Group_32461" data-name="Group 32461">
                    <path id="Path_42356" data-name="Path 42356" d="M132.205,120.593c-5.916,16.138-7.861,30.281-4.343,31.591s11.165-10.714,17.081-26.85,7.861-30.282,4.343-31.591S138.122,104.455,132.205,120.593Z" transform="translate(-126.11 -93.645)" fill="#323755"/>
                  </g>
                </g>
              </g>
            </g>
          </g>
          <g id="Group_32470" data-name="Group 32470" transform="translate(77.119 53.505)">
            <g id="Group_32469" data-name="Group 32469">
              <g id="Group_32468" data-name="Group 32468">
                <g id="Group_32467" data-name="Group 32467">
                  <g id="Group_32466" data-name="Group 32466">
                    <path id="Path_42357" data-name="Path 42357" d="M208.069,146.519c-.067.179-2.809-.675-6.123-1.911s-5.952-2.381-5.886-2.562,2.807.676,6.125,1.911S208.133,146.339,208.069,146.519Z" transform="translate(-196.058 -142.023)" fill="#455a64"/>
                  </g>
                </g>
              </g>
            </g>
          </g>
          <g id="Group_32475" data-name="Group 32475" transform="translate(76.389 58.088)">
            <g id="Group_32474" data-name="Group 32474">
              <g id="Group_32473" data-name="Group 32473">
                <g id="Group_32472" data-name="Group 32472">
                  <g id="Group_32471" data-name="Group 32471">
                    <path id="Path_42358" data-name="Path 42358" d="M206.323,150.293c-.022.094-.667-.009-1.7-.251-.517-.122-1.131-.278-1.811-.463s-1.384-.493-2.142-.777c-3.021-1.16-5.349-2.34-5.286-2.5.073-.194,2.536.707,5.529,1.856.75.279,1.45.6,2.1.82s1.246.417,1.739.6C205.741,149.929,206.345,150.2,206.323,150.293Z" transform="translate(-195.381 -146.271)" fill="#455a64"/>
                  </g>
                </g>
              </g>
            </g>
          </g>
          <g id="Group_32480" data-name="Group 32480" transform="translate(8.924 22.892)">
            <g id="Group_32479" data-name="Group 32479">
              <g id="Group_32478" data-name="Group 32478">
                <g id="Group_32477" data-name="Group 32477">
                  <g id="Group_32476" data-name="Group 32476">
                    <path id="Path_42359" data-name="Path 42359" d="M145.716,114.515s-8.349-4.429-11.966,6.776,4.927,12.4,4.927,12.4A73.141,73.141,0,0,0,145.716,114.515Z" transform="translate(-132.857 -113.652)" fill="#fafafa"/>
                  </g>
                </g>
              </g>
            </g>
          </g>
          <g id="Group_32485" data-name="Group 32485" transform="translate(9.783 10.165)">
            <g id="Group_32484" data-name="Group 32484">
              <g id="Group_32483" data-name="Group 32483">
                <g id="Group_32482" data-name="Group 32482">
                  <g id="Group_32481" data-name="Group 32481">
                    <path id="Path_42360" data-name="Path 42360" d="M153.256,101.857a12.314,12.314,0,0,1-.168,2.1c-.16,1.349-.383,3.307-.73,5.717l-.838,3.891q-.228,1.049-.473,2.168l-.249,1.133c-.094.381-.224.756-.337,1.143-.472,1.541-.967,3.156-1.479,4.83q-.194.628-.391,1.267c-.126.427-.319.834-.477,1.258l-1.016,2.556q-.518,1.293-1.021,2.555c-.176.415-.317.845-.518,1.242s-.394.8-.588,1.187c-.778,1.568-1.53,3.08-2.247,4.521-.183.357-.347.72-.542,1.061l-.6.994-1.147,1.9c-.742,1.219-1.434,2.358-2.068,3.4-1.4,1.978-2.579,3.542-3.389,4.628a12.383,12.383,0,0,1-1.323,1.639,12.223,12.223,0,0,1,1.1-1.8c.778-1.151,1.869-2.769,3.21-4.755.606-1.048,1.269-2.191,1.98-3.417l1.107-1.9q.286-.489.581-.992c.188-.34.347-.7.525-1.06.7-1.438,1.434-2.946,2.2-4.508q.286-.586.578-1.182c.2-.395.337-.821.51-1.235l1.01-2.539,1.012-2.537c.159-.42.352-.824.479-1.247s.262-.841.393-1.256c.522-1.658,1.027-3.259,1.507-4.784.117-.383.25-.755.347-1.132l.262-1.122q.259-1.105.5-2.146c.329-1.382.636-2.672.916-3.853.394-2.364.714-4.288.943-5.659A12.413,12.413,0,0,1,153.256,101.857Z" transform="translate(-133.653 -101.857)" fill="#263238"/>
                  </g>
                </g>
              </g>
            </g>
          </g>
        </g>
      </g>
    </g>
    <g id="Group_32537" data-name="Group 32537" transform="translate(-211.106 -56.035)">
      <path id="Path_42251" data-name="Path 42251" d="M299.311,96.762a.3.3,0,0,0,.249-.456l-6.665-10.391h73.057a.3.3,0,0,0,.3-.289l1.494-60.636a.3.3,0,0,0-.3-.3H232.593a.3.3,0,0,0-.3.3l1.493,60.636a.3.3,0,0,0,.3.289h38.095L299.2,96.741A.3.3,0,0,0,299.311,96.762Zm66.353-11.44H292.353a.3.3,0,0,0-.249.456l6.458,10.069-26.213-10.5a.3.3,0,0,0-.11-.021H234.376L232.9,25.278H367.143Z" transform="translate(46.616 25.314)" fill="#34468a"/>
      <g id="TEXTS" transform="translate(0 3)">
        <text id="Coming_Soon" data-name="Coming Soon" transform="translate(347 82)" fill="#141414" font-size="18" font-family="Poppins-SemiBold, Poppins" font-weight="600"><tspan x="-61" y="0">Coming Soon</tspan></text>
      </g>
    </g>
    <g id="Group_162606" data-name="Group 162606" transform="translate(39.087 -569.915)">
      <g id="Group_162604" data-name="Group 162604" transform="translate(288.489 563.881)">
        <g id="Group_162602" data-name="Group 162602" transform="translate(0 0.316)">
          <path id="Path_1044633" data-name="Path 1044633" d="M307.252,760.877a1.5,1.5,0,0,1-1.485-1.285c-1.573-10.7.048-19.184,4.819-25.2,7.059-8.907,18.059-8.886,30.795-8.871,11.93.021,25.45.039,38.811-7.3,21.283-11.686,34.208-36.729,28.7-47.612-2.6-5.137-8.7-5.777-20.855-7.053a276.057,276.057,0,0,1-32.244-4.936c-4.445-.974-9.084-1.991-14.04-3.162a195.185,195.185,0,0,1-27.24-8.156c-14.51-5.843-22.766-13.063-25.241-22.073-2.139-7.787.15-17.161,6.619-27.109A89.533,89.533,0,0,1,314.592,577.8a71.03,71.03,0,0,1,26.872-13.055,1.5,1.5,0,0,1,.731,2.916,68.045,68.045,0,0,0-25.744,12.5c-10.365,8.156-28.781,27.9-24.284,44.271,5.017,18.264,37.869,25.465,64.266,31.251a269.7,269.7,0,0,0,31.915,4.883c12.82,1.346,19.881,2.088,23.222,8.684,6.774,13.373-8.612,39.9-29.931,51.606-14.039,7.709-27.969,7.684-40.262,7.669-12.446-.014-22.28-.034-28.434,7.732-4.236,5.345-5.649,13.05-4.2,22.9a1.5,1.5,0,0,1-1.489,1.722Z" transform="translate(-288.489 -564.698)" fill="#ebebeb"/>
        </g>
        <path id="Path_1044634" data-name="Path 1044634" d="M488.191,700.59c3.766-2.513,9.842-1.114,11.524,2,1.557,2.886-1.95,4.836-2,11.023-.053,6.146,3.376,7.878,2.505,13.027-.547,3.232-2.206,4.372-4.259,7.516-7.14,10.935-3.009,21.567-6.513,22.547-3.113.871-9.456-6.655-8.017-11.273,1.015-3.258,5.728-4.517,5.261-6.263-.357-1.333-3.176-.863-4.509-3.006-1.031-1.657-.463-3.734-.251-4.509.99-3.621,3.707-3.718,5.762-7.015,1.974-3.167.224-4.291,1.754-10.772,1.365-5.784,3.678-8.782,2.756-9.52-1.261-1.009-6.05,4.227-7.265,3.257C484.014,706.87,485.177,702.6,488.191,700.59Z" transform="translate(-406.783 -646.995)" fill="#484848"/>
        <path id="Path_1044635" data-name="Path 1044635" d="M448.07,699.279c2.149-4.154,8.306-4.963,11.524-4.76a8.485,8.485,0,0,1,8.518,7.516c.82,5.647-4.688,13.164-11.023,12.777C450.179,714.388,445.243,704.742,448.07,699.279Z" transform="translate(-385.939 -644.046)" fill="#484848"/>
        <path id="Path_1044636" data-name="Path 1044636" d="M424.374,869.186c-4.275-.67-14.455-2.266-15.92,1-1.218,2.713,3.982,7.9,7.788,10.777,9.547,7.2,17.866,5.51,48.221,7.271,13.9.806,37.774,5.528,38.269,4.857.951-1.29-2.034-.974-12.068-7.112-8.816-5.392-28.748-7.04-30.209-5.253C457.74,884.047,443.124,872.126,424.374,869.186Z" transform="translate(-362.01 -750.666)" fill="#efaa7b"/>
        <path id="Path_1044637" data-name="Path 1044637" d="M648.992,922.761c.55.834,2.289.384,4.407.129,5.832-.7,9.37,1.418,9.883.315.323-.695-.808-2.123-2.043-2.851-2.437-1.437-4.341.4-6.894-1.018-1.6-.894-1.924-2.218-2.9-2.034-.815.154-1.274,1.215-1.86,2.566C649.018,921.186,648.6,922.161,648.992,922.761Z" transform="translate(-509.664 -780.792)" fill="#191d29"/>
        <path id="Path_1044638" data-name="Path 1044638" d="M415.387,655.658c1.76-1.819-.673-5.982-2.258-11.184-.927-3.042-1.192-5.206-1.352-19.281-.255-22.514.258-31.455-.559-31.535-.8-.078-2.259,8.336-3.118,13.281-1.241,7.142-1.9,13.141-2.279,17.4-.346,8.252-.165,15.116.117,20.242.3,5.41.721,9.059,3.429,10.846C411.239,656.656,414.138,656.95,415.387,655.658Z" transform="translate(-360.389 -582.157)" fill="#efaa7b"/>
        <path id="Path_1044639" data-name="Path 1044639" d="M418.678,793.544c3.431-6.685-12.395-12.846-9.752-24.968,1.762-8.08,10.866-13.308,8.647-17.29-.83-1.488-2.841-1.939-4.949-5.425-1.091-1.805-1.469-2.179-2.189-2.608-2.634-1.572-8.608,2.5-12.007,8.12a23.007,23.007,0,0,0-2.839,8.852,41.873,41.873,0,0,0,.167,13.7c1.419,9.4,3.164,20.968,10.407,24.074a10.117,10.117,0,0,0,5.758.668A9.751,9.751,0,0,0,418.678,793.544Z" transform="translate(-353.928 -673.767)" fill="#2c5ca0"/>
        <path id="Path_1044640" data-name="Path 1044640" d="M435.676,736.978l-7.927,8.428-5.665,8.509-3.031-8.666,12.069-9.124Z" transform="translate(-368.627 -669.601)" fill="#efaa7b"/>
        <path id="Path_1044641" data-name="Path 1044641" d="M416.7,749.977s-7.563,4.172-7.046,6.438c-.506,4.885,3.861,4.742,3.861,4.742L410,766.822a21.848,21.848,0,0,1-9.651-2.665,21.393,21.393,0,0,1-4.537-3.357,35.173,35.173,0,0,0,.5-4.76,42.73,42.73,0,0,1-.125-5.261c.233-1.933,6.427-5.142,15.216-7.337Z" transform="translate(-354.362 -674.091)" fill="#2c5ca0"/>
        <path id="Path_1044642" data-name="Path 1044642" d="M447.312,706.334c-3.347,1.668-5.438,8.692-2.933,11.418,2.821,3.071,10.581-.278,11.7-3.911C457.27,709.959,451.323,704.334,447.312,706.334Z" transform="translate(-383.493 -651.059)" fill="#efaa7b"/>
        <path id="Path_1044643" data-name="Path 1044643" d="M467.414,725.963c1.576-.135,2.68,2.149,2.247,2.874-.516.863-3.755.426-4.07-.793C465.391,727.274,466.325,726.057,467.414,725.963Z" transform="translate(-397.174 -663.36)" fill="#efaa7b"/>
        <path id="Path_1044644" data-name="Path 1044644" d="M405.867,851.745c.853-.719,1.626-1.4,4.646-1.592.37-.024-.978.976,3.371-2.082.2-.14,4.51-5.073,6.217-3.7,4.913,3.96,11.87,7.617,9.924,14.143-1,3.347-4.184,5.073-7.766,7.015-2.22,1.2-5.085,2.7-8.517,1.989a7.219,7.219,0,0,1-3.125-1.285C408.4,864.515,407.256,860.789,405.867,851.745Z" transform="translate(-360.533 -735.893)" fill="#2c5ca0"/>
        <path id="Path_1044645" data-name="Path 1044645" d="M441.669,1103.165c-1-.082-1.715,1.564-2.822,3.388-3.047,5.022-6.9,6.5-6.347,7.582.347.683,2.169.675,3.5.152,2.636-1.031,2.361-3.665,5.056-4.8,1.692-.71,2.932-.146,3.388-1.024.382-.736-.169-1.752-.871-3.047C442.893,1104.158,442.386,1103.224,441.669,1103.165Z" transform="translate(-376.848 -894.881)" fill="#191d29"/>
        <path id="Path_1044646" data-name="Path 1044646" d="M444.132,759.608c1.989-1.566,5.883,1.276,10.9,3.382,2.933,1.231,5.058,1.714,19.044,3.3,22.372,2.54,31.319,2.937,31.316,3.758,0,.8-8.522,1.4-13.529,1.754-7.231.509-13.266.559-17.537.5-8.244-.494-15.055-1.37-20.125-2.171-5.351-.845-8.939-1.637-10.442-4.513C442.718,763.634,442.72,760.72,444.132,759.608Z" transform="translate(-383.337 -683.737)" fill="#efaa7b"/>
        <path id="Path_1044647" data-name="Path 1044647" d="M606.31,782.739c.39.95-1.532,2.83-3.476,3.516-3.442,1.215-7.186-1.23-7.05-2.387C595.992,782.1,605.557,780.9,606.31,782.739Z" transform="translate(-477.099 -697.648)" fill="#dc5345"/>
        <path id="Path_1044648" data-name="Path 1044648" d="M425.036,872.369c-.734-4.264-2.482-14.42-6.043-14.762-2.96-.285-6.212,6.3-7.715,10.829-3.768,11.352.5,18.69,8.556,48.01,3.687,13.422,6.862,37.555,7.655,37.808,1.527.488.271-2.239,2.872-13.71,2.285-10.078-2.539-29.489-4.7-30.3C421.645,908.736,428.256,891.073,425.036,872.369Z" transform="translate(-363.005 -744.158)" fill="#efaa7b"/>
        <g id="Group_162603" data-name="Group 162603" transform="translate(43.937)">
          <path id="Path_1044649" data-name="Path 1044649" d="M403.755,590.4a1.5,1.5,0,0,1-1.377-2.1l10.251-23.508a1.5,1.5,0,0,1,2.756,1.2l-10.251,23.508A1.5,1.5,0,0,1,403.755,590.4Z" transform="translate(-402.252 -563.881)" fill="#2c5ca0"/>
        </g>
      </g>
      <path id="Path_1044650" data-name="Path 1044650" d="M411.293,586.046c-.663-.751-3.138.119-4.578,1.523-2.55,2.487-2.027,6.82-.956,7.2C407.4,595.35,412.575,587.5,411.293,586.046Z" transform="translate(-71.435 -13.435)" fill="#dc5345"/>
    </g>
  </g>
</svg>
