<svg xmlns="http://www.w3.org/2000/svg" width="319.912" height="238.844" viewBox="0 0 319.912 238.844">
  <g id="Group_162646" data-name="Group 162646" transform="translate(-105.87 -128.897)">
    <g id="Group_162608" data-name="Group 162608" transform="translate(105.87 139.792)" opacity="0.46">
      <g id="Group_162607" data-name="Group 162607">
        <path id="Path_1044651" data-name="Path 1044651" d="M172.234,209.291l-53.819,12.385L105.87,167.163l53.819-12.385Zm-53.239,11.459,52.313-12.039-12.2-53.006L106.8,167.743Z" transform="translate(-105.87 -154.778)" fill="#d3daed"/>
      </g>
      <rect id="Rectangle_23554" data-name="Rectangle 23554" width="48.252" height="48.252" transform="translate(4.395 15.317) rotate(-12.96)" fill="#ebebeb"/>
      <circle id="Ellipse_6425" data-name="Ellipse 6425" cx="9.493" cy="9.493" r="9.493" transform="translate(14.264 32.308) rotate(-70.598)" fill="#afafaf"/>
      <path id="Path_1044652" data-name="Path 1044652" d="M183.045,250.572s-3.7-2.6-9.738-1.6-6.764,6.612-14.628,8.735c-6.917,1.867-10.957-5.036-17.445-3.54-2.979.687-4.852,3.343-5.543,5.791l2.662,11.569L185.377,260.7Z" transform="translate(-123.137 -209.185)" fill="#afafaf"/>
    </g>
    <g id="Group_162617" data-name="Group 162617" transform="translate(338.786 161.714)" opacity="0.4">
      <path id="Path_1044653" data-name="Path 1044653" d="M709.049,222.978l-.024-10.674a5.483,5.483,0,0,0-5.479-5.455l-38.334.085a5.482,5.482,0,0,0-5.454,5.479l.019,8.674a.665.665,0,0,0-.512.646l.009,3.932a.665.665,0,0,0,.514.644l.008,3.486a.666.666,0,0,0-.663.666l.008,3.932a.666.666,0,0,0,.666.663l.138,61.994a5.482,5.482,0,0,0,5.479,5.454l38.334-.085a5.483,5.483,0,0,0,5.454-5.479l-.144-64.86a.739.739,0,0,0,.6-.725l-.017-7.656A.739.739,0,0,0,709.049,222.978Z" transform="translate(-659.134 -206.85)" fill="#656565"/>
      <path id="Path_1044654" data-name="Path 1044654" d="M710.311,214.654a5.278,5.278,0,0,0-5.184-5.336l-36.268.08a5.277,5.277,0,0,0-5.16,5.36l.184,82.8a5.278,5.278,0,0,0,5.184,5.337l36.268-.081a5.277,5.277,0,0,0,5.16-5.359Z" transform="translate(-661.777 -208.279)" fill="#656565"/>
      <path id="Path_1044655" data-name="Path 1044655" d="M710.848,219.623l.183,82.539a2.819,2.819,0,0,1-.841,2.017,2.887,2.887,0,0,1-2.032.835l-33.9.075-1.958,0-2.557.006a2.887,2.887,0,0,1-2.036-.826,2.815,2.815,0,0,1-.851-2.014l-.183-82.539a2.768,2.768,0,0,1,.126-.84,2.831,2.831,0,0,1,.782-1.24,2.886,2.886,0,0,1,1.967-.774l38.414-.085A2.864,2.864,0,0,1,710.848,219.623Z" transform="translate(-663.5 -212.601)" fill="#ebebeb"/>
      <path id="Path_1044656" data-name="Path 1044656" d="M716.277,211.433l-11.52.026a.491.491,0,0,1-.491-.488h0a.491.491,0,0,1,.489-.491l11.52-.026a.492.492,0,0,1,.491.489h0A.491.491,0,0,1,716.277,211.433Z" transform="translate(-685.266 -208.937)" fill="#ebebeb"/>
      <path id="Path_1044657" data-name="Path 1044657" d="M739.2,210.2a1.022,1.022,0,1,1-1.024-1.019A1.022,1.022,0,0,1,739.2,210.2Z" transform="translate(-704.313 -208.197)" fill="#ebebeb"/>
      <path id="Path_1044658" data-name="Path 1044658" d="M698.936,210.756a.679.679,0,1,1-.68-.677A.679.679,0,0,1,698.936,210.756Z" transform="translate(-681.394 -208.72)" fill="#ebebeb"/>
      <path id="Path_1044659" data-name="Path 1044659" d="M693.813,210.6a.8.8,0,1,1-.8-.8A.8.8,0,0,1,693.813,210.6Z" transform="translate(-678.286 -208.558)" fill="#ebebeb"/>
      <g id="Group_162610" data-name="Group 162610" transform="translate(41.073 5.433)">
        <g id="Group_162609" data-name="Group 162609">
          <path id="Path_1044660" data-name="Path 1044660" d="M760.572,220.166v-.411l-3.873.008,0,1.769,3.873-.009v-.411h.486l0-.945Zm.406.863h-.485v.412l-3.71.008,0-1.6,3.71-.008v.412h.486Z" transform="translate(-756.698 -219.755)" fill="#afafaf"/>
        </g>
        <rect id="Rectangle_23555" data-name="Rectangle 23555" width="3.414" height="1.768" transform="translate(0 0.008) rotate(-0.127)" fill="#afafaf"/>
      </g>
      <g id="Group_162615" data-name="Group 162615" transform="translate(36.884 5.055)">
        <g id="Group_162611" data-name="Group 162611" transform="translate(0.917 1.299)">
          <path id="Path_1044661" data-name="Path 1044661" d="M749.691,221.942a1.111,1.111,0,0,0-.765.323l.134.132a.917.917,0,0,1,.631-.266.887.887,0,0,1,.63.247l.134-.136A1.071,1.071,0,0,0,749.691,221.942Z" transform="translate(-748.926 -221.942)" fill="#afafaf"/>
        </g>
        <g id="Group_162612" data-name="Group 162612" transform="translate(1.329 1.883)">
          <path id="Path_1044662" data-name="Path 1044662" d="M750.257,223.329a.518.518,0,0,0-.352.146l.134.132a.323.323,0,0,1,.217-.089.311.311,0,0,1,.217.082l.135-.136A.5.5,0,0,0,750.257,223.329Z" transform="translate(-749.905 -223.329)" fill="#afafaf"/>
        </g>
        <g id="Group_162613" data-name="Group 162613" transform="translate(0.463 0.656)">
          <path id="Path_1044663" data-name="Path 1044663" d="M749.068,220.414a1.765,1.765,0,0,0-1.221.518l.133.132a1.573,1.573,0,0,1,1.087-.46,1.519,1.519,0,0,1,1.085.427l.134-.136A1.707,1.707,0,0,0,749.068,220.414Z" transform="translate(-747.847 -220.414)" fill="#afafaf"/>
        </g>
        <g id="Group_162614" data-name="Group 162614">
          <path id="Path_1044664" data-name="Path 1044664" d="M748.432,218.857a2.436,2.436,0,0,0-1.685.717l.134.132a2.242,2.242,0,0,1,1.551-.659,2.164,2.164,0,0,1,1.548.612l.134-.136A2.352,2.352,0,0,0,748.432,218.857Z" transform="translate(-746.747 -218.856)" fill="#afafaf"/>
        </g>
      </g>
      <path id="Path_1044665" data-name="Path 1044665" d="M678.536,221.423l-6.455.014a.437.437,0,0,1-.436-.434h0a.436.436,0,0,1,.435-.436l6.455-.014a.436.436,0,0,1,.436.434h0A.437.437,0,0,1,678.536,221.423Z" transform="translate(-666.377 -214.784)" fill="#afafaf"/>
      <g id="Group_162616" data-name="Group 162616" transform="translate(14.554 36.478)">
        <path id="Path_1044666" data-name="Path 1044666" d="M712.375,314.761a31.349,31.349,0,0,1-4.676.447c-.109,1.126-1.5,2.016-3.195,2.016s-3.084-.888-3.2-2.011a30.86,30.86,0,0,1-4.679-.452c-1.089-.21-4.435-.975-2.131-4.014,4.322-5.7,3.246-11.572,7.464-13.11.2-.075.442-.324.244-.51-.112-.1-.488-.39-.488-.39a.871.871,0,0,1,0-1.419l1.9-1.525a1.475,1.475,0,0,1,1.768,0l1.9,1.525a.87.87,0,0,1,0,1.419s-.381.317-.518.415c-.276.2.028.4.211.469,4.327,1.53,3.32,7.534,7.523,13.126C716.795,313.792,713.542,314.518,712.375,314.761Z" transform="translate(-693.705 -293.498)" fill="#afafaf"/>
      </g>
    </g>
    <g id="Group_162619" data-name="Group 162619" transform="translate(142.253 263.173)" opacity="0.4">
      <path id="Path_1044667" data-name="Path 1044667" d="M336.2,521.6l-105.966.307a5.4,5.4,0,0,1-5.417-5.386l-.182-62.947a5.4,5.4,0,0,1,5.386-5.417l105.966-.307a5.4,5.4,0,0,1,5.417,5.386l.182,62.947A5.4,5.4,0,0,1,336.2,521.6Z" transform="translate(-211.022 -447.853)" fill="#656565"/>
      <path id="Path_1044668" data-name="Path 1044668" d="M205.732,623.046l-13.084,18.365a1.891,1.891,0,0,0,1.545,2.988l140.586-.407a1.7,1.7,0,0,0,1.392-2.67l-12.918-18.6a1.259,1.259,0,0,0-1.038-.541l-115.461.334A1.259,1.259,0,0,0,205.732,623.046Z" transform="translate(-192.293 -548.792)" fill="#d3daed"/>
      <path id="Path_1044669" data-name="Path 1044669" d="M338.61,636.361l-123.523.357a1.451,1.451,0,0,1-1.2-2.268l5.855-8.609a.748.748,0,0,1,.616-.327l111.959-.324a.8.8,0,0,1,.646.323l6.635,8.878A1.233,1.233,0,0,1,338.61,636.361Z" transform="translate(-204.647 -550.534)" fill="#d3daed"/>
      <path id="Path_1044670" data-name="Path 1044670" d="M240.289,628.249l-.465.845a.108.108,0,0,1-.094.056l-4.57.013a.108.108,0,0,1-.093-.162l.495-.839a.107.107,0,0,1,.092-.053l4.541-.02A.108.108,0,0,1,240.289,628.249Z" transform="translate(-217.051 -552.212)" fill="#afafaf"/>
      <path id="Path_1044671" data-name="Path 1044671" d="M233.881,631.069l-.474.8a.107.107,0,0,0,.092.161l4.025-.012a.107.107,0,0,0,.091-.052l.481-.8a.107.107,0,0,0-.092-.161l-4.031.012A.107.107,0,0,0,233.881,631.069Z" transform="translate(-216.09 -553.901)" fill="#afafaf"/>
      <path id="Path_1044672" data-name="Path 1044672" d="M247.05,631.035l-.412.788a.115.115,0,0,0,.1.168l5.372-.016a.115.115,0,0,0,.1-.065l.379-.788a.115.115,0,0,0-.1-.165l-5.34.016A.115.115,0,0,0,247.05,631.035Z" transform="translate(-223.752 -553.873)" fill="#afafaf"/>
      <path id="Path_1044673" data-name="Path 1044673" d="M231.817,634.089l-.668,1.132a.125.125,0,0,0,.108.188l7.428-.021a.124.124,0,0,0,.109-.064l.631-1.133a.125.125,0,0,0-.109-.185l-7.391.021A.126.126,0,0,0,231.817,634.089Z" transform="translate(-214.781 -555.638)" fill="#afafaf"/>
      <path id="Path_1044674" data-name="Path 1044674" d="M229.639,637.91l-.588,1a.176.176,0,0,0,.152.266l8.835-.026a.176.176,0,0,0,.154-.091l.552-1a.176.176,0,0,0-.155-.261l-8.8.025A.177.177,0,0,0,229.639,637.91Z" transform="translate(-213.562 -557.834)" fill="#afafaf"/>
      <path id="Path_1044675" data-name="Path 1044675" d="M227.193,641.985l12.43-.036a.2.2,0,0,1,.181.276l-.505,1.16a.2.2,0,0,1-.18.119l-12.611.04a.2.2,0,0,1-.171-.3l.686-1.164A.2.2,0,0,1,227.193,641.985Z" transform="translate(-211.989 -560.237)" fill="#afafaf"/>
      <path id="Path_1044676" data-name="Path 1044676" d="M224.221,646.557l-.806,1.368a.222.222,0,0,0,.192.334l5.783-.017a.221.221,0,0,0,.195-.118l.725-1.367a.222.222,0,0,0-.2-.325l-5.7.016A.222.222,0,0,0,224.221,646.557Z" transform="translate(-210.295 -562.833)" fill="#afafaf"/>
      <path id="Path_1044677" data-name="Path 1044677" d="M251.22,628.118l-.4.832a.115.115,0,0,0,.1.166l4.843-.014a.115.115,0,0,0,.107-.072l.334-.83a.115.115,0,0,0-.107-.159l-4.775.012A.115.115,0,0,0,251.22,628.118Z" transform="translate(-226.173 -552.184)" fill="#afafaf"/>
      <path id="Path_1044678" data-name="Path 1044678" d="M266.671,628.142l-.276.622a.219.219,0,0,0,.2.308l4.571-.013a.22.22,0,0,0,.206-.144l.225-.622a.219.219,0,0,0-.207-.294l-4.52.013A.219.219,0,0,0,266.671,628.142Z" transform="translate(-235.189 -552.159)" fill="#afafaf"/>
      <path id="Path_1044679" data-name="Path 1044679" d="M262.927,631.055l-.258.594a.211.211,0,0,0,.194.3l5.442-.016a.212.212,0,0,0,.2-.144l.2-.594a.212.212,0,0,0-.2-.279l-5.382.016A.211.211,0,0,0,262.927,631.055Z" transform="translate(-233.031 -553.847)" fill="#afafaf"/>
      <path id="Path_1044680" data-name="Path 1044680" d="M253.325,634.1l-.485.922a.23.23,0,0,0,.2.337l5.218-.015a.23.23,0,0,0,.21-.138l.4-.921a.23.23,0,0,0-.212-.322l-5.132.015A.23.23,0,0,0,253.325,634.1Z" transform="translate(-227.335 -555.611)" fill="#afafaf"/>
      <path id="Path_1044681" data-name="Path 1044681" d="M255.809,637.885l-.447.911a.219.219,0,0,0,.2.316l5.118-.015a.22.22,0,0,0,.2-.141l.346-.911a.22.22,0,0,0-.206-.3l-5.016.015A.22.22,0,0,0,255.809,637.885Z" transform="translate(-228.797 -557.805)" fill="#afafaf"/>
      <path id="Path_1044682" data-name="Path 1044682" d="M262.4,642.048l-.5,1.1a.229.229,0,0,0,.21.324l5.067-.014a.23.23,0,0,0,.212-.145l.437-1.1a.229.229,0,0,0-.213-.314l-5.007.014A.229.229,0,0,0,262.4,642.048Z" transform="translate(-232.588 -560.208)" fill="#afafaf"/>
      <path id="Path_1044683" data-name="Path 1044683" d="M242.323,646.557l-.642,1.35a.229.229,0,0,0,.207.327l5.173-.015a.228.228,0,0,0,.209-.137l.546-1.253a.229.229,0,0,0-.206-.32l-5.076-.082A.229.229,0,0,0,242.323,646.557Z" transform="translate(-220.877 -562.829)" fill="#afafaf"/>
      <path id="Path_1044684" data-name="Path 1044684" d="M260.366,646.481l-.6,1.36a.226.226,0,0,0,.207.317l5.279-.016a.224.224,0,0,0,.213-.155l.444-1.359a.225.225,0,0,0-.215-.3l-5.119.015A.226.226,0,0,0,260.366,646.481Z" transform="translate(-231.347 -562.775)" fill="#afafaf"/>
      <path id="Path_1044685" data-name="Path 1044685" d="M279.688,641.994l-.448,1.143a.207.207,0,0,0,.194.282l5.392-.016a.206.206,0,0,0,.2-.155l.3-1.143a.207.207,0,0,0-.2-.259l-5.241.015A.208.208,0,0,0,279.688,641.994Z" transform="translate(-242.628 -560.178)" fill="#afafaf"/>
      <path id="Path_1044686" data-name="Path 1044686" d="M277.945,646.464l-.408,1.334a.238.238,0,0,0,.228.308l5.491-.016a.238.238,0,0,0,.229-.173l.376-1.334a.238.238,0,0,0-.23-.3l-5.458.016A.238.238,0,0,0,277.945,646.464Z" transform="translate(-241.644 -562.745)" fill="#afafaf"/>
      <path id="Path_1044687" data-name="Path 1044687" d="M295.843,646.283l-.3,1.342a.234.234,0,0,0,.229.285l42.017-.122a.234.234,0,0,0,.228-.284l-.295-1.34a.233.233,0,0,0-.229-.184l-41.421.12A.233.233,0,0,0,295.843,646.283Z" transform="translate(-252.072 -562.572)" fill="#afafaf"/>
      <path id="Path_1044688" data-name="Path 1044688" d="M296.816,641.984l-.286,1.1a.229.229,0,0,0,.222.287l5.5-.016a.228.228,0,0,0,.224-.184l.22-1.1a.229.229,0,0,0-.225-.274l-5.437.016A.229.229,0,0,0,296.816,641.984Z" transform="translate(-252.643 -560.149)" fill="#afafaf"/>
      <path id="Path_1044689" data-name="Path 1044689" d="M314.082,641.878l-.269,1.268a.145.145,0,0,0,.142.175l5.405-.016a.145.145,0,0,0,.143-.121l.209-1.267a.145.145,0,0,0-.144-.168l-5.344.016A.145.145,0,0,0,314.082,641.878Z" transform="translate(-262.653 -560.121)" fill="#afafaf"/>
      <path id="Path_1044690" data-name="Path 1044690" d="M331.306,641.84l-.163,1.266a.145.145,0,0,0,.145.164l5.666-.016a.146.146,0,0,0,.145-.136l.087-1.265a.146.146,0,0,0-.146-.156l-5.591.016A.146.146,0,0,0,331.306,641.84Z" transform="translate(-272.689 -560.091)" fill="#afafaf"/>
      <path id="Path_1044691" data-name="Path 1044691" d="M348.637,641.786l-.1,1.289a.133.133,0,0,0,.133.144l5.591-.016a.134.134,0,0,0,.133-.139l-.05-1.289a.133.133,0,0,0-.134-.128l-5.437.016A.133.133,0,0,0,348.637,641.786Z" transform="translate(-282.758 -560.063)" fill="#afafaf"/>
      <path id="Path_1044692" data-name="Path 1044692" d="M365.816,641.808l.119,1.2a.176.176,0,0,0,.176.159l5.419-.016a.176.176,0,0,0,.174-.2l-.177-1.2a.176.176,0,0,0-.175-.151l-5.361.016A.176.176,0,0,0,365.816,641.808Z" transform="translate(-292.765 -560.035)" fill="#afafaf"/>
      <path id="Path_1044693" data-name="Path 1044693" d="M383.109,641.773l.145,1.183a.187.187,0,0,0,.186.164l5.552-.016a.187.187,0,0,0,.182-.227l-.258-1.182a.187.187,0,0,0-.183-.147l-5.439.016A.187.187,0,0,0,383.109,641.773Z" transform="translate(-302.777 -560.005)" fill="#afafaf"/>
      <path id="Path_1044694" data-name="Path 1044694" d="M400.432,641.7l.322,1.263a.147.147,0,0,0,.142.11l5.475-.016a.147.147,0,0,0,.141-.186l-.352-1.263a.146.146,0,0,0-.141-.107l-5.445.016A.146.146,0,0,0,400.432,641.7Z" transform="translate(-312.806 -559.977)" fill="#afafaf"/>
      <path id="Path_1044695" data-name="Path 1044695" d="M417.633,641.7l.359,1.185a.185.185,0,0,0,.178.131l5.439-.016a.185.185,0,0,0,.174-.247l-.415-1.185a.185.185,0,0,0-.175-.124l-5.382.016A.185.185,0,0,0,417.633,641.7Z" transform="translate(-322.763 -559.948)" fill="#afafaf"/>
      <path id="Path_1044696" data-name="Path 1044696" d="M434.775,641.645l.38,1.207a.174.174,0,0,0,.166.122l4.7-.014a.174.174,0,0,0,.159-.243l-.525-1.207a.174.174,0,0,0-.16-.1l-4.554.013A.174.174,0,0,0,434.775,641.645Z" transform="translate(-332.689 -559.922)" fill="#afafaf"/>
      <path id="Path_1044697" data-name="Path 1044697" d="M449.91,641.654l.526,1.117a.219.219,0,0,0,.2.126l12.614-.037a.219.219,0,0,0,.194-.32l-.58-1.117a.218.218,0,0,0-.195-.118l-12.56.036A.219.219,0,0,0,449.91,641.654Z" transform="translate(-341.445 -559.865)" fill="#afafaf"/>
      <path id="Path_1044698" data-name="Path 1044698" d="M484.2,641.206l.765,1.431a.108.108,0,0,0,.1.057l6.085-.017a.109.109,0,0,0,.09-.17l-.977-1.43a.108.108,0,0,0-.09-.047l-5.873.017A.109.109,0,0,0,484.2,641.206Z" transform="translate(-361.303 -559.705)" fill="#afafaf"/>
      <path id="Path_1044699" data-name="Path 1044699" d="M272.915,637.857l-.336.909a.22.22,0,0,0,.207.3l5.091-.015a.22.22,0,0,0,.2-.139l.362-.909a.221.221,0,0,0-.205-.3l-5.117.015A.22.22,0,0,0,272.915,637.857Z" transform="translate(-238.772 -557.776)" fill="#afafaf"/>
      <path id="Path_1044700" data-name="Path 1044700" d="M270.168,634.072l-.337.938a.222.222,0,0,0,.209.3l5.2-.015a.222.222,0,0,0,.211-.157l.288-.938a.221.221,0,0,0-.212-.287l-5.154.015A.221.221,0,0,0,270.168,634.072Z" transform="translate(-237.181 -555.583)" fill="#afafaf"/>
      <path id="Path_1044701" data-name="Path 1044701" d="M287.229,634.052l-.241.91a.236.236,0,0,0,.229.3l4.923-.014a.235.235,0,0,0,.226-.172l.256-.91a.236.236,0,0,0-.228-.3l-4.938.014A.235.235,0,0,0,287.229,634.052Z" transform="translate(-247.118 -555.555)" fill="#afafaf"/>
      <path id="Path_1044702" data-name="Path 1044702" d="M289.259,637.8l-.345.932a.209.209,0,0,0,.2.282l5.578-.016a.209.209,0,0,0,.2-.159l.229-.931a.209.209,0,0,0-.2-.259l-5.463.016A.209.209,0,0,0,289.259,637.8Z" transform="translate(-248.23 -557.747)" fill="#afafaf"/>
      <path id="Path_1044703" data-name="Path 1044703" d="M306.538,637.8l-.179.876a.237.237,0,0,0,.232.284l5.373-.016a.237.237,0,0,0,.231-.189l.179-.877a.236.236,0,0,0-.232-.284l-5.373.016A.236.236,0,0,0,306.538,637.8Z" transform="translate(-258.336 -557.719)" fill="#afafaf"/>
      <path id="Path_1044704" data-name="Path 1044704" d="M303.671,634.02l-.212.883a.249.249,0,0,0,.243.307l4.99-.014a.249.249,0,0,0,.241-.191l.212-.883a.249.249,0,0,0-.243-.307l-4.99.014A.249.249,0,0,0,303.671,634.02Z" transform="translate(-256.656 -555.528)" fill="#afafaf"/>
      <path id="Path_1044705" data-name="Path 1044705" d="M320.449,633.905l-.2,1.076a.152.152,0,0,0,.15.18l5.118-.015a.152.152,0,0,0,.149-.123l.215-1.076a.152.152,0,0,0-.15-.182l-5.134.015A.152.152,0,0,0,320.449,633.905Z" transform="translate(-266.38 -555.499)" fill="#afafaf"/>
      <path id="Path_1044706" data-name="Path 1044706" d="M323.745,637.672l-.181,1.1a.126.126,0,0,0,.125.147l5.412-.016a.127.127,0,0,0,.125-.106l.178-1.1a.127.127,0,0,0-.125-.147l-5.409.016A.126.126,0,0,0,323.745,637.672Z" transform="translate(-268.3 -557.69)" fill="#afafaf"/>
      <path id="Path_1044707" data-name="Path 1044707" d="M339.812,637.648l-.143,1.05a.15.15,0,0,0,.149.17l5.608-.016a.149.149,0,0,0,.149-.139l.069-1.05a.15.15,0,0,0-.149-.159l-5.534.016A.15.15,0,0,0,339.812,637.648Z" transform="translate(-277.625 -557.663)" fill="#afafaf"/>
      <path id="Path_1044708" data-name="Path 1044708" d="M336.809,633.786l-.216,1.254a.064.064,0,0,0,.063.074l5.608-.016a.063.063,0,0,0,.064-.06l.064-1.253a.064.064,0,0,0-.064-.067l-5.456.016A.064.064,0,0,0,336.809,633.786Z" transform="translate(-275.844 -555.471)" fill="#afafaf"/>
      <path id="Path_1044709" data-name="Path 1044709" d="M357.81,637.629l-.046,1.017a.165.165,0,0,0,.166.173l4.763-.014a.165.165,0,0,0,.165-.178l-.077-1.017a.167.167,0,0,0-.166-.153l-4.638.014A.166.166,0,0,0,357.81,637.629Z" transform="translate(-288.103 -557.636)" fill="#afafaf"/>
      <path id="Path_1044710" data-name="Path 1044710" d="M374.33,637.8l.078.961a.146.146,0,0,0,.146.134l5.145-.015a.146.146,0,0,0,.144-.163l-.117-.961a.146.146,0,0,0-.145-.129l-5.107.015A.146.146,0,0,0,374.33,637.8Z" transform="translate(-297.695 -557.737)" fill="#afafaf"/>
      <path id="Path_1044711" data-name="Path 1044711" d="M390.932,638.053l.1.765a.2.2,0,0,0,.194.17l4.951-.014a.2.2,0,0,0,.193-.219l-.093-.765a.2.2,0,0,0-.195-.172l-4.958.014A.2.2,0,0,0,390.932,638.053Z" transform="translate(-307.307 -557.845)" fill="#afafaf"/>
      <path id="Path_1044712" data-name="Path 1044712" d="M408.429,637.819l.137.858a.151.151,0,0,0,.149.126l5.3-.016a.15.15,0,0,0,.144-.192l-.277-.951a.15.15,0,0,0-.147-.108l-5.157.109A.15.15,0,0,0,408.429,637.819Z" transform="translate(-317.438 -557.683)" fill="#afafaf"/>
      <path id="Path_1044713" data-name="Path 1044713" d="M425.338,637.713l.255.915a.169.169,0,0,0,.163.124l5.283-.016a.169.169,0,0,0,.157-.23l-.351-.914a.17.17,0,0,0-.159-.109l-5.187.015A.169.169,0,0,0,425.338,637.713Z" transform="translate(-327.226 -557.651)" fill="#afafaf"/>
      <path id="Path_1044714" data-name="Path 1044714" d="M441.741,637.652l.368.96a.146.146,0,0,0,.137.094l4.689-.014a.146.146,0,0,0,.133-.206l-.431-.96a.147.147,0,0,0-.134-.086l-4.626.013A.147.147,0,0,0,441.741,637.652Z" transform="translate(-336.722 -557.626)" fill="#afafaf"/>
      <path id="Path_1044715" data-name="Path 1044715" d="M455.17,637.6l.418.958a.147.147,0,0,0,.136.088l9.563-.027a.148.148,0,0,0,.131-.215l-.493-.958a.148.148,0,0,0-.131-.08l-9.488.028A.147.147,0,0,0,455.17,637.6Z" transform="translate(-344.495 -557.584)" fill="#afafaf"/>
      <path id="Path_1044716" data-name="Path 1044716" d="M482.241,637.439l.555,1.105a.075.075,0,0,0,.066.041l5.881-.017a.074.074,0,0,0,.061-.115l-.754-1.1a.073.073,0,0,0-.061-.032l-5.682.016A.074.074,0,0,0,482.241,637.439Z" transform="translate(-360.173 -557.555)" fill="#afafaf"/>
      <path id="Path_1044717" data-name="Path 1044717" d="M353.782,633.75l-.063,1.244a.068.068,0,0,0,.068.072l5.321-.016a.068.068,0,0,0,.068-.068l0-1.244a.068.068,0,0,0-.068-.068l-5.254.015A.068.068,0,0,0,353.782,633.75Z" transform="translate(-285.761 -555.444)" fill="#afafaf"/>
      <path id="Path_1044718" data-name="Path 1044718" d="M370.149,633.791l0,1.076a.153.153,0,0,0,.153.152l5.3-.016a.152.152,0,0,0,.151-.167l-.106-1.075a.152.152,0,0,0-.152-.137l-5.2.015A.152.152,0,0,0,370.149,633.791Z" transform="translate(-295.274 -555.416)" fill="#afafaf"/>
      <path id="Path_1044719" data-name="Path 1044719" d="M386.58,633.67l.1,1.232a.074.074,0,0,0,.074.068l5.515-.016a.074.074,0,0,0,.072-.088l-.237-1.231a.074.074,0,0,0-.073-.06l-5.381.016A.074.074,0,0,0,386.58,633.67Z" transform="translate(-304.788 -555.388)" fill="#afafaf"/>
      <path id="Path_1044720" data-name="Path 1044720" d="M402.892,633.647l.206,1.2a.091.091,0,0,0,.09.075l5.72-.016a.091.091,0,0,0,.088-.113l-.3-1.2a.091.091,0,0,0-.088-.069l-5.626.016A.091.091,0,0,0,402.892,633.647Z" transform="translate(-314.232 -555.36)" fill="#afafaf"/>
      <path id="Path_1044721" data-name="Path 1044721" d="M419.843,633.623l.325,1.175a.1.1,0,0,0,.1.075l5.4-.016a.1.1,0,0,0,.1-.136l-.41-1.175a.1.1,0,0,0-.1-.069l-5.319.016A.1.1,0,0,0,419.843,633.623Z" transform="translate(-324.045 -555.332)" fill="#afafaf"/>
      <path id="Path_1044722" data-name="Path 1044722" d="M436.44,633.644l.377,1.081a.148.148,0,0,0,.141.1l5.386-.016a.149.149,0,0,0,.139-.2l-.4-1.081a.148.148,0,0,0-.14-.1l-5.359.015A.15.15,0,0,0,436.44,633.644Z" transform="translate(-333.653 -555.305)" fill="#afafaf"/>
      <path id="Path_1044723" data-name="Path 1044723" d="M453.3,633.554l.517,1.133a.124.124,0,0,0,.112.072l9.469-.027a.123.123,0,0,0,.108-.181l-.612-1.133a.124.124,0,0,0-.109-.064l-9.374.027A.123.123,0,0,0,453.3,633.554Z" transform="translate(-343.413 -555.26)" fill="#afafaf"/>
      <path id="Path_1044724" data-name="Path 1044724" d="M480.182,633.479l.6,1.16a.108.108,0,0,0,.1.059l5.527-.016a.109.109,0,0,0,.088-.173l-.85-1.159a.109.109,0,0,0-.088-.045l-5.275.015A.109.109,0,0,0,480.182,633.479Z" transform="translate(-358.978 -555.232)" fill="#afafaf"/>
      <path id="Path_1044725" data-name="Path 1044725" d="M280.351,631.03l-.194.576a.221.221,0,0,0,.21.291l4.715-.014a.22.22,0,0,0,.208-.149l.2-.576a.221.221,0,0,0-.21-.292l-4.719.014A.22.22,0,0,0,280.351,631.03Z" transform="translate(-243.161 -553.82)" fill="#afafaf"/>
      <path id="Path_1044726" data-name="Path 1044726" d="M295.944,630.883l-.246.882a.068.068,0,0,0,.066.086l5.22-.015a.068.068,0,0,0,.065-.05l.24-.882a.068.068,0,0,0-.065-.086l-5.214.015A.069.069,0,0,0,295.944,630.883Z" transform="translate(-252.165 -553.792)" fill="#afafaf"/>
      <path id="Path_1044727" data-name="Path 1044727" d="M310.924,630.834l-.24.9a.059.059,0,0,0,.057.074l5.34-.015a.06.06,0,0,0,.058-.048l.17-.9a.059.059,0,0,0-.059-.07l-5.269.015A.059.059,0,0,0,310.924,630.834Z" transform="translate(-260.842 -553.767)" fill="#afafaf"/>
      <path id="Path_1044728" data-name="Path 1044728" d="M328.724,630.79l-.157.895a.062.062,0,0,0,.061.072l5.232-.015a.062.062,0,0,0,.061-.057l.069-.894a.061.061,0,0,0-.061-.066l-5.145.015A.061.061,0,0,0,328.724,630.79Z" transform="translate(-271.198 -553.738)" fill="#afafaf"/>
      <path id="Path_1044729" data-name="Path 1044729" d="M345.614,630.745l-.1.895a.061.061,0,0,0,.061.067l5.246-.015a.061.061,0,0,0,.061-.061l0-.895a.061.061,0,0,0-.061-.061l-5.147.015A.061.061,0,0,0,345.614,630.745Z" transform="translate(-281.012 -553.71)" fill="#afafaf"/>
      <path id="Path_1044730" data-name="Path 1044730" d="M362.638,630.71l0,.883a.067.067,0,0,0,.067.067l4.988-.014a.067.067,0,0,0,.066-.077l-.131-.883a.067.067,0,0,0-.066-.057l-4.859.014A.067.067,0,0,0,362.638,630.71Z" transform="translate(-290.925 -553.683)" fill="#afafaf"/>
      <path id="Path_1044731" data-name="Path 1044731" d="M379.378,630.67l.1.881a.067.067,0,0,0,.067.06l4.647-.013a.068.068,0,0,0,.066-.078l-.145-.881a.068.068,0,0,0-.067-.056l-4.6.013A.067.067,0,0,0,379.378,630.67Z" transform="translate(-300.618 -553.656)" fill="#afafaf"/>
      <path id="Path_1044732" data-name="Path 1044732" d="M394.632,630.66l.122.823a.1.1,0,0,0,.1.083l5.133-.015a.1.1,0,0,0,.093-.119l-.2-.823a.1.1,0,0,0-.094-.074l-5.059.014A.1.1,0,0,0,394.632,630.66Z" transform="translate(-309.45 -553.628)" fill="#afafaf"/>
      <path id="Path_1044733" data-name="Path 1044733" d="M410.764,630.644l.18.785a.116.116,0,0,0,.113.09l5.132-.015a.115.115,0,0,0,.11-.148l-.231-.785a.115.115,0,0,0-.111-.083l-5.081.015A.115.115,0,0,0,410.764,630.644Z" transform="translate(-318.789 -553.601)" fill="#afafaf"/>
      <path id="Path_1044734" data-name="Path 1044734" d="M426.96,630.6l.186.783a.116.116,0,0,0,.114.09l5.294-.015a.117.117,0,0,0,.107-.161l-.319-.783a.117.117,0,0,0-.108-.072l-5.161.015A.116.116,0,0,0,426.96,630.6Z" transform="translate(-328.167 -553.573)" fill="#afafaf"/>
      <path id="Path_1044735" data-name="Path 1044735" d="M443.564,630.531l.3.832a.091.091,0,0,0,.086.061l4.865-.014a.091.091,0,0,0,.084-.126l-.339-.832a.091.091,0,0,0-.085-.057l-4.825.014A.091.091,0,0,0,443.564,630.531Z" transform="translate(-337.78 -553.547)" fill="#afafaf"/>
      <path id="Path_1044736" data-name="Path 1044736" d="M459.9,630.514l.335.789a.114.114,0,0,0,.1.069l6.066-.018a.113.113,0,0,0,.1-.168l-.437-.789a.113.113,0,0,0-.1-.059l-5.963.017A.113.113,0,0,0,459.9,630.514Z" transform="translate(-347.239 -553.515)" fill="#afafaf"/>
      <path id="Path_1044737" data-name="Path 1044737" d="M478.8,630.464l.389.8a.11.11,0,0,0,.1.061l5.214-.015a.11.11,0,0,0,.09-.171l-.543-.8a.11.11,0,0,0-.091-.048l-5.06.015A.11.11,0,0,0,478.8,630.464Z" transform="translate(-358.176 -553.487)" fill="#afafaf"/>
      <path id="Path_1044738" data-name="Path 1044738" d="M281.392,628.1l-.227.635a.214.214,0,0,0,.2.286l4.645-.013a.214.214,0,0,0,.2-.152l.19-.635a.214.214,0,0,0-.205-.275l-4.609.013A.214.214,0,0,0,281.392,628.1Z" transform="translate(-243.744 -552.132)" fill="#afafaf"/>
      <path id="Path_1044739" data-name="Path 1044739" d="M296.624,627.936l-.243.922a.084.084,0,0,0,.082.106l5.177-.015a.084.084,0,0,0,.082-.066l.205-.894a.084.084,0,0,0-.082-.1l-5.139-.012A.084.084,0,0,0,296.624,627.936Z" transform="translate(-252.56 -552.087)" fill="#afafaf"/>
      <path id="Path_1044740" data-name="Path 1044740" d="M311.691,627.83l-.214.976a.057.057,0,0,0,.056.069l5.2-.015a.057.057,0,0,0,.056-.047l.184-.993a.057.057,0,0,0-.057-.067l-5.169.031A.057.057,0,0,0,311.691,627.83Z" transform="translate(-261.302 -552.018)" fill="#afafaf"/>
      <path id="Path_1044741" data-name="Path 1044741" d="M327.142,627.766l-.179.975a.067.067,0,0,0,.066.079l4.8-.014a.066.066,0,0,0,.066-.058l.132-.982a.067.067,0,0,0-.067-.076l-4.756.021A.067.067,0,0,0,327.142,627.766Z" transform="translate(-270.269 -551.982)" fill="#afafaf"/>
      <path id="Path_1044742" data-name="Path 1044742" d="M342.9,627.77l-.1.906a.1.1,0,0,0,.1.112l4.467-.013a.1.1,0,0,0,.1-.094l.059-.906a.1.1,0,0,0-.1-.107l-4.424.013A.1.1,0,0,0,342.9,627.77Z" transform="translate(-279.434 -551.968)" fill="#afafaf"/>
      <path id="Path_1044743" data-name="Path 1044743" d="M357.708,627.706l0,.9a.106.106,0,0,0,.106.106l4.742-.014a.106.106,0,0,0,.105-.117l-.1-.921a.106.106,0,0,0-.107-.1l-4.648.04A.106.106,0,0,0,357.708,627.706Z" transform="translate(-288.071 -551.906)" fill="#afafaf"/>
      <path id="Path_1044744" data-name="Path 1044744" d="M372.587,627.647l.073.893a.121.121,0,0,0,.121.111l4.692-.013a.121.121,0,0,0,.12-.136l-.114-.9a.12.12,0,0,0-.12-.105l-4.652.022A.121.121,0,0,0,372.587,627.647Z" transform="translate(-296.686 -551.868)" fill="#afafaf"/>
      <path id="Path_1044745" data-name="Path 1044745" d="M387.277,627.609l.114.906a.119.119,0,0,0,.119.1l4.811-.014a.119.119,0,0,0,.116-.147l-.214-.9a.12.12,0,0,0-.116-.092l-4.711,0A.119.119,0,0,0,387.277,627.609Z" transform="translate(-305.191 -551.855)" fill="#afafaf"/>
      <path id="Path_1044746" data-name="Path 1044746" d="M402.377,627.574l.173.882a.131.131,0,0,0,.128.105l4.942-.014a.131.131,0,0,0,.126-.165l-.242-.883a.13.13,0,0,0-.126-.1l-4.873.016A.131.131,0,0,0,402.377,627.574Z" transform="translate(-313.933 -551.814)" fill="#afafaf"/>
      <path id="Path_1044747" data-name="Path 1044747" d="M417.677,627.494l.221.892a.127.127,0,0,0,.123.1l4.7-.014a.126.126,0,0,0,.12-.166l-.3-.917a.127.127,0,0,0-.121-.087l-4.624.038A.126.126,0,0,0,417.677,627.494Z" transform="translate(-322.791 -551.755)" fill="#afafaf"/>
      <path id="Path_1044748" data-name="Path 1044748" d="M432.977,627.4l.3.945a.114.114,0,0,0,.109.079l4.607-.013a.113.113,0,0,0,.108-.149l-.312-.951a.114.114,0,0,0-.109-.079l-4.6.02A.114.114,0,0,0,432.977,627.4Z" transform="translate(-331.65 -551.716)" fill="#afafaf"/>
      <path id="Path_1044749" data-name="Path 1044749" d="M447.606,627.41l.329.877a.147.147,0,0,0,.137.1l4.431-.013a.147.147,0,0,0,.136-.2l-.343-.887a.147.147,0,0,0-.137-.094l-4.417.021A.146.146,0,0,0,447.606,627.41Z" transform="translate(-340.118 -551.692)" fill="#afafaf"/>
      <path id="Path_1044750" data-name="Path 1044750" d="M462.815,627.33l.415.938a.12.12,0,0,0,.11.072l4.112-.012a.12.12,0,0,0,.108-.172l-.45-.938a.121.121,0,0,0-.109-.069l-4.078.012A.12.12,0,0,0,462.815,627.33Z" transform="translate(-348.923 -551.668)" fill="#afafaf"/>
      <path id="Path_1044751" data-name="Path 1044751" d="M477.317,627.26l.432.917a.14.14,0,0,0,.128.081l4.9-.014a.142.142,0,0,0,.117-.221l-.63-.922a.142.142,0,0,0-.117-.062l-4.7.021A.141.141,0,0,0,477.317,627.26Z" transform="translate(-357.318 -551.604)" fill="#afafaf"/>
      <path id="Path_1044752" data-name="Path 1044752" d="M338.667,661.286l-41.971.121a.82.82,0,0,1-.808-.977l1.13-5.822a.82.82,0,0,1,.8-.664l40.084-.116a.821.821,0,0,1,.816.715l.757,5.816A.821.821,0,0,1,338.667,661.286Z" transform="translate(-252.268 -567.116)" fill="#afafaf"/>
      <path id="Path_1044753" data-name="Path 1044753" d="M193.933,673.621l5.349,3.669a.416.416,0,0,0,.224.064l132.839-.384a.4.4,0,0,0,.271-.109l4-3.468Z" transform="translate(-193.243 -578.443)" fill="#afafaf"/>
      <path id="Path_1044754" data-name="Path 1044754" d="M343.5,463.89l.163,56.192a1.384,1.384,0,0,1-1.38,1.388l-102.923.3a1.384,1.384,0,0,1-1.388-1.38l-.163-56.192a1.384,1.384,0,0,1,1.38-1.388l102.924-.3A1.385,1.385,0,0,1,343.5,463.89Z" transform="translate(-218.649 -456.34)" fill="#e0e0e0"/>
      <path id="Path_1044755" data-name="Path 1044755" d="M399.143,646.066l.358,1.611a.1.1,0,0,0,.1.077l5.661-.016a.1.1,0,0,0,.1-.12L405,646.007a.1.1,0,0,0-.1-.077l-5.661.016A.1.1,0,0,0,399.143,646.066Z" transform="translate(-312.061 -562.542)" fill="#afafaf"/>
      <path id="Path_1044756" data-name="Path 1044756" d="M416.945,646.019l.357,1.6a.1.1,0,0,0,.1.08l5.779-.017a.1.1,0,0,0,.1-.129l-.435-1.6a.1.1,0,0,0-.1-.075l-5.7.016A.1.1,0,0,0,416.945,646.019Z" transform="translate(-322.368 -562.512)" fill="#afafaf"/>
      <path id="Path_1044757" data-name="Path 1044757" d="M434.5,645.976l.433,1.6a.105.105,0,0,0,.1.077l5.832-.017a.1.1,0,0,0,.1-.138l-.527-1.6a.105.105,0,0,0-.1-.072l-5.738.016A.105.105,0,0,0,434.5,645.976Z" transform="translate(-332.532 -562.483)" fill="#afafaf"/>
      <path id="Path_1044758" data-name="Path 1044758" d="M453.033,648.35l.193.612a.082.082,0,0,0,.078.057l5.664-.016a.082.082,0,0,0,.076-.11l-.229-.612a.081.081,0,0,0-.077-.053l-5.629.016A.082.082,0,0,0,453.033,648.35Z" transform="translate(-343.263 -563.873)" fill="#afafaf"/>
      <path id="Path_1044759" data-name="Path 1044759" d="M470.93,648.32l.254.592a.091.091,0,0,0,.084.055l5.741-.016a.091.091,0,0,0,.075-.143l-.407-.592a.092.092,0,0,0-.075-.04l-5.588.016A.091.091,0,0,0,470.93,648.32Z" transform="translate(-353.623 -563.843)" fill="#afafaf"/>
      <path id="Path_1044760" data-name="Path 1044760" d="M488.479,648.271l.4.606a.085.085,0,0,0,.07.038l5.973-.017a.084.084,0,0,0,.065-.137l-.485-.606a.084.084,0,0,0-.066-.032l-5.887.017A.084.084,0,0,0,488.479,648.271Z" transform="translate(-363.781 -563.813)" fill="#afafaf"/>
      <path id="Path_1044761" data-name="Path 1044761" d="M470.143,646.2l.253.5a.078.078,0,0,0,.07.043l5.361-.016a.078.078,0,0,0,.062-.126l-.381-.5a.08.08,0,0,0-.063-.031l-5.233.015A.079.079,0,0,0,470.143,646.2Z" transform="translate(-353.167 -562.626)" fill="#afafaf"/>
      <g id="Group_162618" data-name="Group 162618" transform="translate(56.894 19.106)">
        <path id="Path_1044762" data-name="Path 1044762" d="M353.709,523.159a44.029,44.029,0,0,1-6.58.629c-.153,1.585-2.108,2.837-4.5,2.837s-4.34-1.25-4.5-2.83a43.329,43.329,0,0,1-6.585-.636c-1.533-.3-6.24-1.372-3-5.648,6.082-8.021,4.569-16.283,10.5-18.448.283-.1.621-.456.343-.717-.158-.146-.686-.549-.686-.549a1.226,1.226,0,0,1,0-2l2.677-2.146a2.075,2.075,0,0,1,2.488,0l2.675,2.146a1.224,1.224,0,0,1,0,2s-.537.446-.729.584c-.389.28.039.568.3.66,6.089,2.153,4.673,10.6,10.587,18.471C359.928,521.8,355.351,522.817,353.709,523.159Z" transform="translate(-327.437 -493.238)" fill="#afafaf"/>
      </g>
    </g>
    <g id="Group_162621" data-name="Group 162621" transform="translate(112.642 192.86)">
      <path id="Path_1044763" data-name="Path 1044763" d="M301.837,348.61v2.961a24.049,24.049,0,0,1-24.049,24.049H146a24.048,24.048,0,0,1-24.049-24.049V348.61q0-.537.025-1.075A24.045,24.045,0,0,0,146,370.509H277.788a24.045,24.045,0,0,0,24.024-22.974Q301.837,348.072,301.837,348.61Z" transform="translate(-121.955 -319.454)" fill="#9b180b"/>
      <path id="Path_1044764" data-name="Path 1044764" d="M301.837,304.882v2.961c0,.358-.008.717-.025,1.071a24.045,24.045,0,0,1-24.024,22.974H146a24.045,24.045,0,0,1-24.024-22.974c-.016-.354-.025-.712-.025-1.071v-2.961A24.048,24.048,0,0,1,146,280.833H277.788A24.048,24.048,0,0,1,301.837,304.882Z" transform="translate(-121.955 -280.833)" fill="#dc5345"/>
      <text id="Subscribe_" data-name="Subscribe!" transform="translate(89.729 33.891)" fill="#fff" font-size="24" font-family="Poppins-SemiBold, Poppins" font-weight="600"><tspan x="-65" y="0">Subscribe!</tspan></text>
    </g>
    <rect id="Rectangle_23556" data-name="Rectangle 23556" width="319.431" height="1.053" transform="translate(106.351 362.081)" fill="#afafaf"/>
    <g id="Group_162642" data-name="Group 162642" transform="translate(263.578 156.229)">
      <g id="Group_162641" data-name="Group 162641" transform="translate(0 0)">
        <g id="Group_162622" data-name="Group 162622" transform="translate(0 74.194)">
          <path id="Path_1044775" data-name="Path 1044775" d="M501.049,370.839s-4.716-.659-5.773-.748-3.642-.012-4.711.785-3.07.728-3.842,1.324-.534,1.028-.069,1.216a12.014,12.014,0,0,0,2.859-.241l-1.569.586a4.882,4.882,0,0,0-2.062-.069,13.622,13.622,0,0,0-3.522-1.124.78.78,0,0,0-.758.51,1.1,1.1,0,0,0-1.116.864c-.039.272,2.555.872,2.555.872a2.274,2.274,0,0,0,.22.245c.224.223.763.092.763.092,1.079.676,4.766,1.388,5.662,1.593a2.842,2.842,0,0,0,2.1-.351,40.819,40.819,0,0,1,5.341-1.48c1.185-.2,4.9.982,4.9.982Z" transform="translate(-480.486 -370.062)" fill="#efaa7b"/>
        </g>
        <path id="Path_1044776" data-name="Path 1044776" d="M615.464,238.747l-37.523-7.2a13.737,13.737,0,0,0-.453-2.552c-.391-1.573-.993-3.573-1.658-5.7,0,0,0,0,0,0a64.939,64.939,0,0,1-2.578-10.853c-.712-5.886.351-14.733,7.915-17.612,8.778-3.341,14.618,2.2,18.492,7.915,5.64,8.321,7.818,18.523,10.753,26.769S615.464,238.747,615.464,238.747Z" transform="translate(-534.089 -193.822)" fill="#323b52"/>
        <path id="Path_1044777" data-name="Path 1044777" d="M601.688,662.189c-1.467,4.428-4.452,5.82-5.787,5.825-1.083,0-2.2-2.676-2.422-4.777a6.479,6.479,0,0,1,.608-3.142,27.178,27.178,0,0,0,1.793-3.505,31.212,31.212,0,0,0-.141-7.069l5.3-2.029a32.177,32.177,0,0,0,.864,7.569h0A10.027,10.027,0,0,1,601.688,662.189Z" transform="translate(-545.899 -456.503)" fill="#191d29"/>
        <path id="Path_1044778" data-name="Path 1044778" d="M547,279.261c-7.225,3.889-6.847,13.612-9.083,23.59a45.6,45.6,0,0,1-2.481,8.334s-2.9,3.836-15.349,5.8a9.34,9.34,0,0,1,.3,6.119s17.5,1.963,25.374-5.547C549.437,314.056,547,279.261,547,279.261Z" transform="translate(-503.414 -243.292)" fill="#2c5ca0"/>
        <path id="Path_1044779" data-name="Path 1044779" d="M712.017,668.621c-1.733,1.207-4.106,1.076-6.133.421s-4.389-3.135-5.679-3.871-2.211-2.764-2.211-5.179a8.18,8.18,0,0,0-.05-.841,50.717,50.717,0,0,0-1.606-7.056l.543-.1,5.348-1c.048.346.1.68.152,1a14.379,14.379,0,0,0,5.373,9.618c.3.254.588.523.864.8,0,0,0,.005.005.008C711.1,664.9,712.7,668.145,712.017,668.621Z" transform="translate(-605.468 -458.528)" fill="#191d29"/>
        <path id="Path_1044780" data-name="Path 1044780" d="M704.583,666.547c-2.764-1.188-5.211-5.2-6.638-6.018a50.717,50.717,0,0,0-1.606-7.056l.543-.1h5.5a14.379,14.379,0,0,0,5.373,9.618c.3.254.588.523.864.8,0,0,0,.005.005.008C710.075,665.91,707.344,667.732,704.583,666.547Z" transform="translate(-605.468 -459.907)" fill="#efaa7b"/>
        <path id="Path_1044781" data-name="Path 1044781" d="M603.29,653.987a29.937,29.937,0,0,1,0,3.657c-.606,4.338-2.831,5.027-4.964,4.82-1.88-.182-2.41-2.68-1.654-4.228a7.109,7.109,0,0,0,.737-1.943,65.94,65.94,0,0,0-.481-6.588l5.783-2.213S602.9,651.339,603.29,653.987Z" transform="translate(-547.567 -456.503)" fill="#efaa7b"/>
        <path id="Path_1044782" data-name="Path 1044782" d="M569.224,402.814c-2.736,11.6,1.1,39.642,1.666,44.95s1.13,16.281,2.824,27.9,6.211,32.94,6.437,33.617,5.986,1.355,7.68-.9c.678-7.115-1.468-28.1-1.694-35.889s-.113-47.534.339-47.933,5.76,8.974,8.583,17.105,9.148,21.006,10.729,23.265,6.551,15.639,7.793,18.831,8.253,26.176,8.592,27.079c4.066-.113,7-1.016,8.245-1.807-1.355-6.437-10.287-37.666-11.755-42.409s-11.39-51.211-12.536-59.969Z" transform="translate(-531.302 -314.831)" fill="#656565"/>
        <path id="Path_1044783" data-name="Path 1044783" d="M608.758,236.493c2.266,2.274,4.226,13.483,4.01,20.413-.146,4.7-15.18-1.129-15.18-1.129l-2.558-11.066Z" transform="translate(-546.809 -218.529)" fill="#191d29"/>
        <path id="Path_1044784" data-name="Path 1044784" d="M621.244,307.979a39.211,39.211,0,0,1-3.276,11.632c-.064-.16-.127-.309-.194-.448l-.013-.025c-.625-1.3-2.048-1.843-4.621-2.067-.1-.009-.209-.012-.316-.02.4-2.624-.05-7.041-.615-11.864-.565-3.015-1.469-7.6-2.6-13.923,0,0-4.516,15.245-4.29,20.1s1.808,8.582,2.146,15.584c-3.162,1.357-18.071,2.485-22.137,2.034s-10.728-.792-14.767-5.874c.934-4.972,5.281-14.682,5.931-18.521s.027-5.533-1.3-8.583-.361-7.9,0-10.616-.533-3.753-.92-5.76c-.958-4.961.654-8.125,2.484-8.805s6.545-2.264,6.545-2.264,7.947-3.978,12.875-3.331c5.693.747,11.079,1.771,14.68,3.331.664.288,5.308,2.824,6.326,6.665s2.935,16.94,3.613,23.82S621.695,305.382,621.244,307.979Z" transform="translate(-532.641 -235.128)" fill="#2c5ca0"/>
        <g id="Group_162623" data-name="Group 162623" transform="translate(37.799 50.247)">
          <path id="Path_1044785" data-name="Path 1044785" d="M570.517,350.937l-.245-.046a77.238,77.238,0,0,1,3.229-10.124,63.065,63.065,0,0,0,2.7-8.4c.647-3.826.036-5.461-1.3-8.512-1.177-2.7-.57-6.832-.168-9.566.058-.4.114-.775.159-1.116l.247.033c-.045.342-.1.718-.16,1.12-.4,2.707-1,6.8.15,9.431,1.315,3.012,1.971,4.765,1.313,8.653a63.106,63.106,0,0,1-2.712,8.439A77.119,77.119,0,0,0,570.517,350.937Z" transform="translate(-570.272 -313.177)" fill="#191d29"/>
        </g>
        <path id="Path_1044786" data-name="Path 1044786" d="M601.323,251.358a20.767,20.767,0,0,1,.5,3.84c-.167.565-1.071.565-1.071.565s-.9,10.277,5.534,9.825,7.341-13.158,7.341-13.158c-1.208-.272-1.817-.457-2.372-2.766a24.907,24.907,0,0,1-.565-6.612Z" transform="translate(-550.096 -222.327)" fill="#efaa7b"/>
        <g id="Group_162624" data-name="Group 162624" transform="translate(76.191 35.636)">
          <path id="Path_1044787" data-name="Path 1044787" d="M662.125,298.994c-.894-4.912-1.117-16.681.916-20.522l.221.117c-.891,1.683-1.433,5.169-1.525,9.816a60.736,60.736,0,0,0,.634,10.545Z" transform="translate(-661.469 -278.472)" fill="#191d29"/>
        </g>
        <g id="Group_162625" data-name="Group 162625" transform="translate(78.901 64.722)">
          <path id="Path_1044788" data-name="Path 1044788" d="M671.119,350.947c-1.085-.482-2.033-1.6-3.213-3.241l.2-.145c1.155,1.61,2.078,2.7,3.112,3.159Z" transform="translate(-667.906 -347.561)" fill="#191d29"/>
        </g>
        <g id="Group_162626" data-name="Group 162626" transform="translate(86.125 62.018)">
          <path id="Path_1044789" data-name="Path 1044789" d="M685.275,345.581l-.211-.132c.783-1.249.992-2,.773-4.286l.248-.024C686.311,343.495,686.092,344.278,685.275,345.581Z" transform="translate(-685.064 -341.139)" fill="#191d29"/>
        </g>
        <g id="Group_162627" data-name="Group 162627" transform="translate(46.446 103.837)">
          <path id="Path_1044790" data-name="Path 1044790" d="M594.753,442.331c-.618-.936-2.562-1.26-3.849-1.474l-.091-.015.061-.368.091.015c1.432.238,3.392.564,4.1,1.636Z" transform="translate(-590.813 -440.474)" fill="#191d29"/>
        </g>
        <g id="Group_162628" data-name="Group 162628" transform="translate(64.768 106.236)">
          <path id="Path_1044791" data-name="Path 1044791" d="M640.24,447.28c-1.2-.6-3.834-.773-5.9-.727l-.008-.373c1.024-.022,4.489-.033,6.074.767Z" transform="translate(-634.334 -446.173)" fill="#191d29"/>
        </g>
        <g id="Group_162629" data-name="Group 162629" transform="translate(47.945 146.707)">
          <path id="Path_1044792" data-name="Path 1044792" d="M594.373,544.192v-.373c1.145,0,3.754-.456,4.6-1.511l.292.234C598.329,543.707,595.617,544.192,594.373,544.192Z" transform="translate(-594.373 -542.307)" fill="#191d29"/>
        </g>
        <g id="Group_162630" data-name="Group 162630" transform="translate(48.497 151.266)">
          <path id="Path_1044793" data-name="Path 1044793" d="M595.71,555.547l-.026-.373c1.652-.115,3.605-1.105,4.021-2.04l.341.152C599.575,554.345,597.509,555.423,595.71,555.547Z" transform="translate(-595.684 -553.135)" fill="#191d29"/>
        </g>
        <g id="Group_162631" data-name="Group 162631" transform="translate(69.564 133.551)">
          <path id="Path_1044794" data-name="Path 1044794" d="M652.091,516.157c-2.486-.339-5.638-2.807-6.364-4.982l.354-.118c.675,2.026,3.733,4.413,6.06,4.73Z" transform="translate(-645.727 -511.057)" fill="#191d29"/>
        </g>
        <path id="Path_1044795" data-name="Path 1044795" d="M662.7,390.981c-.973,3.1-3.839,11.182-4.743,13.079s-4.873,4.262-4.873,4.262l-1.941-5.283s2.405-1.729,1.14-2.17c-1.135-.395-1.221.269-3.135.163-1.039-.057-2.03-.632-.653-1.281s4.184-1.049,4.846-1.369a4.385,4.385,0,0,0,2.451-2.27c.376-.9.981-4.045,1.766-7.691,3.1.219,4.312.787,4.937,2.086l.013.025Z" transform="translate(-577.376 -306.498)" fill="#efaa7b"/>
        <g id="Group_162632" data-name="Group 162632" transform="translate(75.898 148.678)">
          <path id="Path_1044796" data-name="Path 1044796" d="M667.591,551.11a2.536,2.536,0,0,1-.352-.024A12,12,0,0,1,663.5,549a13.66,13.66,0,0,0-2.726-1.652l.11-.357a13.7,13.7,0,0,1,2.829,1.7,12.246,12.246,0,0,0,3.579,2.025,2.8,2.8,0,0,0,2.419-1.17l.307.213A3.234,3.234,0,0,1,667.591,551.11Z" transform="translate(-660.772 -546.989)" fill="#191d29"/>
        </g>
        <path id="Path_1044797" data-name="Path 1044797" d="M599.2,216.185c-1.081,6.2-5.433,10.263-8.4,10.922-3.112.692-6.72-3.01-8.176-4.895-.216-.279-.386-.518-.5-.7a13.8,13.8,0,0,1-1.09-2.308,26.563,26.563,0,0,1-.861-2.644,10.182,10.182,0,0,1-.862-2.714c-.809-7.138,2.022-13.4,6.543-14.072C600.779,197.558,600.279,209.98,599.2,216.185Z" transform="translate(-537.629 -197.118)" fill="#efaa7b"/>
        <g id="Group_162633" data-name="Group 162633" transform="translate(51.524 23.426)">
          <path id="Path_1044798" data-name="Path 1044798" d="M603.468,256.332a5.534,5.534,0,0,1-.593-.032l.041-.371a4.788,4.788,0,0,0,1.567-.08c2.148-.478,4.974-2.864,6.878-6.38l.328.178c-1.961,3.62-4.9,6.07-7.126,6.567A5.042,5.042,0,0,1,603.468,256.332Z" transform="translate(-602.875 -249.469)" fill="#ad6f53"/>
        </g>
        <path id="Path_1044799" data-name="Path 1044799" d="M585.843,237.314a.922.922,0,1,1-1.189-.823A1.037,1.037,0,0,1,585.843,237.314Z" transform="translate(-540.46 -218.51)" fill="#494343"/>
        <path id="Path_1044800" data-name="Path 1044800" d="M605.433,230.452a1.113,1.113,0,0,1-.514,1.45c-.483.147-1.036-.262-1.236-.916a1.112,1.112,0,0,1,.514-1.449C604.68,229.389,605.233,229.8,605.433,230.452Z" transform="translate(-551.777 -214.484)" fill="#494343"/>
        <g id="Group_162634" data-name="Group 162634" transform="translate(47.575 18.75)">
          <path id="Path_1044801" data-name="Path 1044801" d="M594.766,242.309a1.064,1.064,0,0,1-.5-.114.943.943,0,0,1-.479-.785c-.066-.576-.1-.995-.12-1.331a8.29,8.29,0,0,0-.169-1.528l.378-.192a9.211,9.211,0,0,1,.163,1.694c.023.333.053.746.118,1.315a.6.6,0,0,0,.283.5,1.274,1.274,0,0,0,1.1-.146l.173.331A2.078,2.078,0,0,1,594.766,242.309Z" transform="translate(-593.495 -238.36)" fill="#ad6f53"/>
        </g>
        <g id="Group_162635" data-name="Group 162635" transform="translate(41.685 15.583)">
          <path id="Path_1044802" data-name="Path 1044802" d="M579.645,232.75a.459.459,0,0,1,.036-.689,4.385,4.385,0,0,1,3.133-1.223.545.545,0,0,1,.523.557c0,.433-.273.354-.568.408-1.225.223-3.072.948-2.176.563C580.969,232.205,579.759,232.856,579.645,232.75Z" transform="translate(-579.505 -230.838)" fill="#323b52"/>
        </g>
        <g id="Group_162636" data-name="Group 162636" transform="translate(49.925 12.444)">
          <path id="Path_1044803" data-name="Path 1044803" d="M603.521,223.993c.114-.294-.076-.478-.387-.545a5.763,5.763,0,0,0-3.747.815.559.559,0,0,0-.237.762c.224.354.452.435.746.254a9.067,9.067,0,0,1,2.485-1.051C602.838,224.127,603.462,224.146,603.521,223.993Z" transform="translate(-599.077 -223.381)" fill="#323b52"/>
        </g>
        <path id="Path_1044804" data-name="Path 1044804" d="M595.03,249.581c1.189-.053,2.64-.2,5.693-2.184C600.726,250.373,596.779,251.816,595.03,249.581Z" transform="translate(-546.809 -224.843)" fill="#fff"/>
        <path id="Path_1044805" data-name="Path 1044805" d="M577.049,216.4c-.859-3.037-1.923-5.545,1.465-8.738s3.573-5.511,3.573-5.511l-1.395-2.623-4.915,3.78-1.861,6.471s-.113,6.572,0,6.618S577.049,216.4,577.049,216.4Z" transform="translate(-534.554 -197.128)" fill="#323b52"/>
        <path id="Path_1044806" data-name="Path 1044806" d="M605.313,211.942c-1.92-2.391-4.386-7.3-7.8-7.8s-6.556-.174-7.5-1.927c-1.87-3.474,0-5.125,0-5.125l7.257-.863,8.1,5.3,1.581,5.219Z" transform="translate(-543.421 -195.212)" fill="#323b52"/>
        <path id="Path_1044807" data-name="Path 1044807" d="M626.147,228.877c0,1.237-.708,2.24-1.581,2.24s-1.581-1-1.581-2.24.708-2.24,1.581-2.24S626.147,227.64,626.147,228.877Z" transform="translate(-562.995 -212.822)" fill="#efaa7b"/>
        <circle id="Ellipse_6426" data-name="Ellipse 6426" cx="1.702" cy="1.702" r="1.702" transform="translate(54.316 18.226)" fill="#ef985d"/>
        <path id="Path_1044808" data-name="Path 1044808" d="M586,247.634a1.7,1.7,0,0,1-.817,1.454c-.216-.279-.386-.518-.5-.7a13.8,13.8,0,0,1-1.09-2.308A1.7,1.7,0,0,1,586,247.634Z" transform="translate(-540.189 -223.994)" fill="#ef985d"/>
        <g id="Group_162637" data-name="Group 162637" transform="translate(61.148 14.436)">
          <path id="Path_1044809" data-name="Path 1044809" d="M626.359,230.662a.682.682,0,0,1-.624-.132l.119-.155a.484.484,0,0,0,.527.07,1.116,1.116,0,0,0,.517-.984,1.279,1.279,0,0,0-.389-1.048.588.588,0,0,0-.572-.058l-.066-.184a.78.78,0,0,1,.753.084,1.455,1.455,0,0,1,.469,1.212,1.3,1.3,0,0,1-.629,1.154A.7.7,0,0,1,626.359,230.662Z" transform="translate(-625.735 -228.113)" fill="#ad6f53"/>
        </g>
        <g id="Group_162638" data-name="Group 162638" transform="translate(65.356 79.475)">
          <path id="Path_1044810" data-name="Path 1044810" d="M641.162,383.746a32.341,32.341,0,0,1-5.43-.9l.071-.239a29.518,29.518,0,0,0,5.505.887l.016.248C641.276,383.745,641.221,383.746,641.162,383.746Z" transform="translate(-635.732 -382.606)" fill="#ad6f53"/>
        </g>
        <g id="Group_162639" data-name="Group 162639" transform="translate(66.851 81.712)">
          <path id="Path_1044811" data-name="Path 1044811" d="M642.622,388.817a9.982,9.982,0,0,1-2.894-.528c-.176-.053-.327-.1-.446-.129l.06-.241c.123.03.277.077.458.132a8.147,8.147,0,0,0,3.766.435l.045.245A5.519,5.519,0,0,1,642.622,388.817Z" transform="translate(-639.282 -387.919)" fill="#ad6f53"/>
        </g>
        <g id="Group_162640" data-name="Group 162640" transform="translate(72.624 95.382)">
          <rect id="Rectangle_23557" data-name="Rectangle 23557" width="0.318" height="9.065" transform="translate(0 0.12) rotate(-22.166)" fill="#191d29"/>
        </g>
      </g>
    </g>
    <path id="Path_1044812" data-name="Path 1044812" d="M468.6,158.152c2.271-.388,3.023-4.177,1.049-4.954,1.875-.223,2.676-4.051.4-5s-6.435-1.132-7.67-1.694-3.411-2.581-1.909-4.895,3.817-5.148,4.414-7.216-.032-5.521-2.33-5.493c-.618.008-1.119.662-1.625,1.859-.8,1.894-3.15,6.789-4.786,8.466-1.673,1.715-5.074,2.8-7.969,5.627-1.852,1.809-3.934,2.352-7.577,1.115-.168-.057-.332-.1-.5-.141l-4.065,14.2a5.581,5.581,0,0,0,.618.237,83.319,83.319,0,0,1,13.461,5.223c3.419,1.884,7.009,4.116,15.509,1.811,1.359-.368,2.486-3.229.718-4.38C469.315,163.169,470.217,159.206,468.6,158.152Z" transform="translate(-191.168 0)" fill="#e0e0e0" opacity="0.46"/>
    <g id="Group_162643" data-name="Group 162643" transform="translate(369.935 265.062)" opacity="0.46">
      <path id="Path_1044813" data-name="Path 1044813" d="M773.481,453.944l-21.439,21.444-3.949-9.834-6.4,3.047-.731.346,1.4-5.06,1.206-4.333-.209-.147-10.238-7.067Z" transform="translate(-733.123 -452.339)" fill="#e0e0e0"/>
      <path id="Path_1044814" data-name="Path 1044814" d="M782.171,458.112l-23.9,8.605-.014,0-5.791,5.221-.731.346,1.4-5.06,1.206-4.333-.209-.147Z" transform="translate(-743.901 -455.682)" fill="#afafaf"/>
      <path id="Path_1044815" data-name="Path 1044815" d="M759.876,480.731l-6.4,3.047,5.791-5.221.014,0Z" transform="translate(-744.906 -467.517)" fill="#969494"/>
    </g>
    <g id="Group_162644" data-name="Group 162644" transform="translate(112.642 301.797)" opacity="0.46">
      <path id="Path_1044816" data-name="Path 1044816" d="M121.955,545.541l15.561,10.28,1.168-6.412,4.234,1.047.483.119-1.47-2.876-1.26-2.463.108-.114,5.3-5.52Z" transform="translate(-121.955 -539.601)" fill="#e0e0e0"/>
      <path id="Path_1044817" data-name="Path 1044817" d="M125.186,553.373l15.46,2.24h.009l4.133,2.432.483.119-1.47-2.876-1.26-2.463.108-.114Z" transform="translate(-123.826 -547.193)" fill="#afafaf"/>
      <path id="Path_1044818" data-name="Path 1044818" d="M161.692,560.989l4.234,1.047-4.133-2.432h-.009Z" transform="translate(-144.963 -551.182)" fill="#969494"/>
    </g>
    <path id="Path_1044819" data-name="Path 1044819" d="M180.239,446.866c-.829,3.161-4.085,4.931-6.663,6.292a57.651,57.651,0,0,0-8.247,5.261,98.34,98.34,0,0,0-5.141-9.458c-1.577-2.861-3.011-4.764-2.182-7.925a5.917,5.917,0,0,1,11.619,1,5.917,5.917,0,0,1,10.614,4.832Z" transform="translate(-30.047 -178.175)" fill="#e0e0e0" opacity="0.46"/>
    <path id="Path_1044820" data-name="Path 1044820" d="M749.761,565.627c1.386-.269,1.795-2.6.573-3.051,1.146-.163,1.584-2.52.175-3.072s-3.96-.6-4.724-.931-2.127-1.535-1.239-2.973,2.268-3.209,2.6-4.484-.1-3.383-1.505-3.335c-.378.013-.677.421-.97,1.162a23.313,23.313,0,0,1-2.815,5.256c-1,1.074-3.071,1.785-4.806,3.56-1.11,1.135-2.378,1.5-4.628.789-.1-.032-.205-.058-.306-.08l-2.294,8.759a3.378,3.378,0,0,0,.382.136,51.087,51.087,0,0,1,8.323,3.013c2.122,1.107,4.354,2.424,9.531.893.827-.245,1.479-2.014.379-2.695C750.272,568.691,750.769,566.25,749.761,565.627Z" transform="translate(-361.28 -242.539)" fill="#e0e0e0" opacity="0.46"/>
    <path id="Path_1044821" data-name="Path 1044821" d="M327.529,192.157c1.293-1.418-.154-4.293-1.849-3.792,1.118-1.107-.317-4.033-2.3-3.493s-4.807,2.553-5.907,2.816-3.564.051-3.762-2.238-.129-5.338-.8-7-2.849-3.611-4.345-2.416c-.4.322-.4,1.008-.115,2.054.443,1.655,1.408,6.074,1.192,8.014-.221,1.983-1.9,4.437-2.354,7.779-.29,2.137-1.38,3.56-4.407,4.613-.139.048-.27.1-.4.162l4.6,11.412a4.715,4.715,0,0,0,.527-.161,69.379,69.379,0,0,1,11.52-3.463c3.211-.514,6.714-.887,11.118-6.755.7-.938-.021-3.4-1.772-3.245C330.571,195.085,329.134,192.019,327.529,192.157Z" transform="translate(-113.844 -27.078)" fill="#e0e0e0" opacity="0.46"/>
  </g>
</svg>
