<svg id="view" xmlns="http://www.w3.org/2000/svg" width="22.018" height="22.018" viewBox="0 0 22.018 22.018">
  <g id="Group_162779" data-name="Group 162779" transform="translate(-0.091 -0.077)">
    <path id="Vector" d="M6.635,3.318A3.318,3.318,0,1,1,3.318,0,3.314,3.314,0,0,1,6.635,3.318Z" transform="translate(7.783 7.767)" fill="none" stroke="#000" stroke-linecap="round" stroke-linejoin="round" stroke-width="1.5"/>
    <path id="Vector-2" data-name="Vector" d="M9.068,15.338c3.271,0,6.32-1.928,8.443-5.264a4.936,4.936,0,0,0,0-4.81C15.389,1.928,12.34,0,9.068,0S2.748,1.928.626,5.264a4.936,4.936,0,0,0,0,4.81C2.748,13.41,5.8,15.338,9.068,15.338Z" transform="translate(2.032 3.412)" fill="none" stroke="#000" stroke-linecap="round" stroke-linejoin="round" stroke-width="1.5"/>
  </g>
  <path id="Vector-3" data-name="Vector" d="M0,0H22.018V22.018H0Z" transform="translate(22.018 22.018) rotate(180)" fill="none" opacity="0"/>
</svg>
