<svg id="credit-card_9_" data-name="credit-card (9)" xmlns="http://www.w3.org/2000/svg" width="30" height="20" viewBox="0 0 30 20">
  <path id="Path_12677" data-name="Path 12677" d="M287.767,151.957a1.346,1.346,0,1,0,1.345,1.346A1.346,1.346,0,0,0,287.767,151.957Zm0,0" transform="translate(-270.817 -138.255)" fill="#717784"/>
  <path id="Path_12680" data-name="Path 12680" d="M129.465,20h24a2.922,2.922,0,0,0,3-2.83V2.83a2.922,2.922,0,0,0-3-2.83h-24a2.922,2.922,0,0,0-3,2.83V17.169A2.922,2.922,0,0,0,129.465,20Zm25-12.453h-26V5.66h26Zm-1,10.566h-24a.974.974,0,0,1-1-.944V9.433h26v7.736a.974.974,0,0,1-1,.944Zm-24-16.226h24a.974.974,0,0,1,1,.943v.943h-26V2.83a.974.974,0,0,1,1-.943Zm0,0" transform="translate(-126.465 0)" fill="#717784"/>
  <path id="Path_12681" data-name="Path 12681" d="M333.138,151.957h-5.382a1.346,1.346,0,0,0,0,2.691h5.382a1.346,1.346,0,1,0,0-2.691Zm0,0" transform="translate(-310.102 -138.255)" fill="#717784"/>
</svg>
