<svg xmlns="http://www.w3.org/2000/svg" width="69" height="24.695" viewBox="0 0 69 24.695">
  <g id="Logo" transform="translate(-0.065)">
    <g id="BitCot" transform="translate(0.065)">
      <g id="Group_1" data-name="Group 1" transform="translate(14.965 0.306)">
        <rect id="Rectangle_1" data-name="Rectangle 1" width="1.693" height="11.365" transform="translate(0.235 4.267)" fill="#0b131f"/>
        <path id="Path_1" data-name="Path 1" d="M489.141,91.793a1.081,1.081,0,1,1-1.081-1.081A1.081,1.081,0,0,1,489.141,91.793Z" transform="translate(-486.978 -90.712)" fill="#10b5ee"/>
      </g>
      <path id="Path_2" data-name="Path 2" d="M657.8,127.91a1.764,1.764,0,0,0,.528,1.464,2.172,2.172,0,0,0,1.385.415,3.427,3.427,0,0,0,1.649-.393v1.443a3.78,3.78,0,0,1-.934.36,4.723,4.723,0,0,1-1.11.121,4.508,4.508,0,0,1-1.275-.175,2.632,2.632,0,0,1-1.022-.557,2.572,2.572,0,0,1-.67-.995,3.975,3.975,0,0,1-.242-1.464v-6.82h-1.583v-1.487h1.583v-3.41H657.8v3.41H661.4v1.487H657.8Z" transform="translate(-633.455 -115.183)" fill="#0b131f"/>
      <path id="Path_3" data-name="Path 3" d="M942.288,209.944a5.75,5.75,0,0,1-2.792.6,6.012,6.012,0,0,1-2.4-.473,5.913,5.913,0,0,1-1.909-1.3,6.005,6.005,0,0,1-1.718-4.254,6.109,6.109,0,0,1,1.718-4.287,5.963,5.963,0,0,1,4.328-1.8,6.045,6.045,0,0,1,2.736.55,6.472,6.472,0,0,1,1.9,1.451l-1.649,1.781a6.159,6.159,0,0,0-1.308-1.045,3.316,3.316,0,0,0-1.7-.406,3.052,3.052,0,0,0-1.341.3,3.261,3.261,0,0,0-1.055.8,3.839,3.839,0,0,0-.692,1.176,4.045,4.045,0,0,0-.253,1.44,4.192,4.192,0,0,0,.253,1.473,3.591,3.591,0,0,0,.714,1.188,3.42,3.42,0,0,0,1.1.8,3.541,3.541,0,0,0,3.066-.11,6.392,6.392,0,0,0,1.352-1.044l1.6,1.582A7.294,7.294,0,0,1,942.288,209.944Z" transform="translate(-902.237 -194.346)" fill="#10b5ee"/>
      <path id="Path_4" data-name="Path 4" d="M1316.346,206.833a6.028,6.028,0,0,1-3.264,3.232,6.609,6.609,0,0,1-4.935.011,5.95,5.95,0,0,1-3.243-3.21,6.153,6.153,0,0,1,.011-4.7,6.048,6.048,0,0,1,1.3-1.934,6.143,6.143,0,0,1,1.956-1.308,6.239,6.239,0,0,1,2.473-.483,6.368,6.368,0,0,1,2.473.472,5.97,5.97,0,0,1,3.7,5.573A5.89,5.89,0,0,1,1316.346,206.833Zm-2.471-3.759a3.792,3.792,0,0,0-.732-1.2,3.423,3.423,0,0,0-1.115-.813,3.441,3.441,0,0,0-3.965.8,3.49,3.49,0,0,0-.7,1.176,4.24,4.24,0,0,0-.24,1.44,4.092,4.092,0,0,0,.262,1.462,3.627,3.627,0,0,0,.732,1.2,3.486,3.486,0,0,0,1.114.8,3.327,3.327,0,0,0,1.409.3,3.434,3.434,0,0,0,1.453-.3,3.36,3.36,0,0,0,1.1-.8,3.479,3.479,0,0,0,.7-1.176,4.254,4.254,0,0,0,.24-1.44A4.018,4.018,0,0,0,1313.875,203.074Z" transform="translate(-1259.561 -194.346)" fill="#10b5ee"/>
      <path id="Path_5" data-name="Path 5" d="M1726.632,127.512a1.433,1.433,0,0,0,.374,1.107,1.515,1.515,0,0,0,1.055.34,3.664,3.664,0,0,0,1.649-.393v2.164a4.631,4.631,0,0,1-1.077.437,5.118,5.118,0,0,1-1.319.153,4.94,4.94,0,0,1-1.347-.175,2.757,2.757,0,0,1-1.075-.57,2.529,2.529,0,0,1-.7-1.04,4.6,4.6,0,0,1-.244-1.61v-6.091h-1.473v-2.252h1.473v-3.17h2.682v3.17h3.122v2.252h-3.122Z" transform="translate(-1662.582 -115.183)" fill="#10b5ee"/>
      <path id="Path_6" data-name="Path 6" d="M80.737,87.589a5.448,5.448,0,0,0-2.961.884,4.22,4.22,0,0,0-.669.54l-.367.365V82.2H74.929V97.942h1.813V96.372l.356.31c.075.065.148.135.224.21.105.1.214.208.334.3a5.369,5.369,0,0,0,8.406-4.333A5.243,5.243,0,0,0,80.737,87.589Zm.022,8.986a3.744,3.744,0,1,1,0-7.468,3.735,3.735,0,0,1,0,7.468Z" transform="translate(-74.929 -82.2)" fill="#0b131f"/>
    </g>
    <text id="Solving_Digital_Challenges" data-name="Solving Digital Challenges" transform="translate(0.065 23.695)" fill="#0b131f" font-size="5.5" font-family="Inter-Medium, Inter" font-weight="500"><tspan x="0" y="0">Solving Digital Challenges</tspan></text>
  </g>
</svg>
