<svg xmlns="http://www.w3.org/2000/svg" width="22.018" height="22.018" viewBox="0 0 22.018 22.018">
  <g id="delete" transform="translate(-121 -202)">
    <path id="Vector" d="M0,0H22.018V22.018H0Z" transform="translate(143.018 224.018) rotate(180)" fill="none" opacity="0"/>
    <g id="Icon_feather-trash-2" data-name="Icon feather-trash-2" transform="translate(119.445 201.729)">
      <path id="Path_33076" data-name="Path 33076" d="M4.5,9H20.627" transform="translate(0 -2.429)" fill="none" stroke="#dc5345" stroke-linecap="round" stroke-linejoin="round" stroke-width="1.5"/>
      <path id="Path_33077" data-name="Path 33077" d="M19.853,6.336V18.313a1.739,1.739,0,0,1-1.765,1.711H9.265A1.739,1.739,0,0,1,7.5,18.313V6.336m2.647-.914V3.711A1.739,1.739,0,0,1,11.912,2h3.529a1.739,1.739,0,0,1,1.765,1.711V5.422" transform="translate(-1.113 0.269)" fill="none" stroke="#dc5345" stroke-linecap="round" stroke-linejoin="round" stroke-width="1.5"/>
      <path id="Path_33078" data-name="Path 33078" d="M15,16.5v5.661" transform="translate(-4.228 -6.049)" fill="none" stroke="#dc5345" stroke-linecap="round" stroke-linejoin="round" stroke-width="1.5"/>
      <path id="Path_33079" data-name="Path 33079" d="M21,16.5v5.661" transform="translate(-6.645 -6.049)" fill="none" stroke="#dc5345" stroke-linecap="round" stroke-linejoin="round" stroke-width="1.5"/>
    </g>
  </g>
</svg>
