<svg xmlns="http://www.w3.org/2000/svg" width="18.597" height="20.652" viewBox="0 0 18.597 20.652">
  <g id="Group_162494" data-name="Group 162494" transform="translate(-286.845 -110.383)">
    <path id="Icon_awesome-star" data-name="Icon awesome-star" d="M7.231.431,5.648,3.641l-3.542.516a.776.776,0,0,0-.429,1.324l2.563,2.5-.606,3.528a.775.775,0,0,0,1.125.817l3.169-1.666L11.1,12.323a.776.776,0,0,0,1.125-.817l-.606-3.528,2.563-2.5a.776.776,0,0,0-.429-1.324l-3.542-.516L8.622.431a.776.776,0,0,0-1.392,0Z" transform="translate(288.216 114.501)" fill="#2c5ca0"/>
    <g id="Group_28514" data-name="Group 28514" transform="translate(286.845 110.383)">
      <path id="Exclusion_2" data-name="Exclusion 2" d="M9.3,20.652a3.007,3.007,0,0,1-1.506-.405l-6.3-3.657A3.008,3.008,0,0,1,0,14V6.656A3.009,3.009,0,0,1,1.494,4.062L7.792.406a3,3,0,0,1,3.012,0l6.3,3.656A3.009,3.009,0,0,1,18.6,6.656V14A3.008,3.008,0,0,1,17.1,16.591l-6.3,3.657A3.007,3.007,0,0,1,9.3,20.652ZM9.324,4.329a.7.7,0,0,0-.641.4L7.222,7.711l-3.27.48a.722.722,0,0,0-.4,1.229L5.921,11.74l-.56,3.277a.707.707,0,0,0,.157.584.73.73,0,0,0,.55.259.7.7,0,0,0,.332-.084l2.925-1.547,2.925,1.547a.7.7,0,0,0,.331.083.73.73,0,0,0,.55-.259.706.706,0,0,0,.156-.584l-.559-3.277L15.094,9.42a.722.722,0,0,0-.4-1.229l-3.27-.48L9.967,4.73A.712.712,0,0,0,9.324,4.329Z" transform="translate(0 0)" fill="#fff"/>
    </g>
  </g>
</svg>
