<svg id="Group_31057" data-name="Group 31057" xmlns="http://www.w3.org/2000/svg" width="48" height="48" viewBox="0 0 48 48">
  <circle id="Ellipse_3482" data-name="Ellipse 3482" cx="24" cy="24" r="24" fill="#252525"/>
  <path id="Path_32953" data-name="Path 32953" d="M1434.05,1218.96a.589.589,0,0,1-.36.61l-22.55,11.15a.717.717,0,0,1-.73-.08.664.664,0,0,1-.22-.68l1.92-8.2,10.31-2.57-10.41-2.11-2.25-8.11a.687.687,0,0,1,.15-.65l.04-.04a.672.672,0,0,1,.72-.11l23,10.2A.583.583,0,0,1,1434.05,1218.96Z" transform="translate(-1394.894 -1195.111)" fill="#fff"/>
</svg>
