<svg xmlns="http://www.w3.org/2000/svg" width="58.743" height="58.762" viewBox="0 0 58.743 58.762">
  <g id="online-class" transform="translate(-1 -0.979)">
    <path id="Path_33068" data-name="Path 33068" d="M49.932,9.46a11.133,11.133,0,0,0-21.64.066.947.947,0,0,0-.322.7v3.581a.947.947,0,0,0,.947.947h1.829a2.738,2.738,0,1,0,0-5.476H30.32A9.247,9.247,0,0,1,47.9,9.223h-.341a2.719,2.719,0,0,0,0,5.429h1.781a.947.947,0,0,0,.947-.947V10.17a.947.947,0,0,0-.351-.711Z" transform="translate(-1.417)"/>
    <path id="Path_33069" data-name="Path 33069" d="M53.864,28.885a10.7,10.7,0,0,0-9.768-6.4h-.843a.947.947,0,0,0-.947.947,3.4,3.4,0,1,1-6.793,0,.947.947,0,0,0-.947-.947h-.843A10.7,10.7,0,0,0,24,28.885Z" transform="translate(-1.208 -1.13)"/>
    <path id="Path_33070" data-name="Path 33070" d="M58.8,62.895H1.947a.947.947,0,1,1,0-1.895H58.8a.947.947,0,1,1,0,1.895Z" transform="translate(0 -3.153)"/>
    <path id="Path_33071" data-name="Path 33071" d="M10.422,53.93v3.06a.947.947,0,1,1-1.895,0V53.93A4.974,4.974,0,0,0,4.5,58.809v.4a.947.947,0,0,0,.947.947H13.5a.947.947,0,0,0,.947-.947v-.4A4.974,4.974,0,0,0,10.422,53.93Z" transform="translate(-0.184 -2.781)"/>
    <path id="Path_33072" data-name="Path 33072" d="M38.063,44.9l-.256,1.5,1.336-.663a.947.947,0,0,1,.881,0l1.336.7-.256-1.5a.947.947,0,0,1,.275-.834l1.08-1.061-1.5-.218a.947.947,0,0,1-.711-.521l-.663-1.355-.711,1.317a.947.947,0,0,1-.711.521l-1.5.218,1.08,1.061A.947.947,0,0,1,38.063,44.9Z" transform="translate(-1.874 -2.1)"/>
    <path id="Path_33073" data-name="Path 33073" d="M59.957,33.951a3.108,3.108,0,0,0-.881-2.274,3.06,3.06,0,0,0-2.217-.947h-36.6a3.06,3.06,0,0,0-2.217.947,3.136,3.136,0,0,0-.872,2.359l2.53,20.2v2.084a2.672,2.672,0,0,0,2.653,2.6H54.727a2.672,2.672,0,0,0,2.653-2.6V54.237l2.53-20.2S59.957,33.98,59.957,33.951Zm-27.211,7.58a.947.947,0,0,1,.767-.644l2.9-.426,1.3-2.634a.947.947,0,0,1,1.7,0L40.7,40.461l2.9.426a.947.947,0,0,1,.521,1.62l-2.084,2.028.493,2.9a.947.947,0,0,1-1.374.995l-2.587-1.336-2.606,1.336a.947.947,0,0,1-1.374-.995l.493-2.9-2.094-2.047a.947.947,0,0,1-.237-.976Zm22.739,14.79a.767.767,0,0,1-.758.739H22.4a.767.767,0,0,1-.758-.739V55.2H55.514Z" transform="translate(-0.849 -1.563)"/>
    <path id="Path_33074" data-name="Path 33074" d="M44.108,12.121a3.667,3.667,0,0,1,2.615-3.515,8.271,8.271,0,0,0-14.828.057,3.686,3.686,0,0,1-.095,7.125,8.271,8.271,0,0,0,15.16-.133,3.648,3.648,0,0,1-2.852-3.534Z" transform="translate(-1.618 -0.16)"/>
  </g>
</svg>
