<svg xmlns="http://www.w3.org/2000/svg" width="95.043" height="88.663" viewBox="0 0 95.043 88.663">
  <g id="Group_30915" data-name="Group 30915" transform="translate(-685 -63.886)">
    <g id="Group_30914" data-name="Group 30914" transform="translate(685 63.886)">
      <path id="Path_32860" data-name="Path 32860" d="M32.157,62.626h0a2.394,2.394,0,0,1,2.519-1.576,7.931,7.931,0,0,0,1.351.064C47.3,60.451,61.254,66.9,76.112,75.74h0C62.51,64.734,50.061,55,35.419,65a2.173,2.173,0,0,1-3.136-.649,2.061,2.061,0,0,1-.187-1.533q.026-.1.06-.195h0Z" transform="translate(-32.026 -32.349)" fill="#dc5345"/>
      <path id="Path_32861" data-name="Path 32861" d="M167.158,8.113h0a2.394,2.394,0,0,1,1,2.722l-.035.113a4.363,4.363,0,0,1-1.881,2.412c-12.814,7.977,2.022,18.186-21.693,34.664h0C156.034,35.737,165.48,7.28,166.915,7.977a2.418,2.418,0,0,1,.243.136h0Z" transform="translate(-91.869 -4.236)" fill="#2c5ca0"/>
      <path id="Path_32862" data-name="Path 32862" d="M186.725,121.4h0a2.4,2.4,0,0,1-2.584,1.317l-.117-.021a4.363,4.363,0,0,1-2.618-1.582c-9.442-11.776-17.817,4.166-36.994-17.425h0c13.565,9.944,42.942,15.945,42.42,17.452a2.42,2.42,0,0,1-.106.258h0Z" transform="translate(-91.795 -55.145)" fill="#2c5ca0"/>
      <path id="Path_32863" data-name="Path 32863" d="M170.219,121.872h0a2.29,2.29,0,0,1-1.925-.061l-.072-.033a3.255,3.255,0,0,1-1.421-1.169c-4.024-6.52-12.38-2.289-20.976-14.649h0c7.047,6.72,25.125,15.379,24.511,15.838a1.021,1.021,0,0,1-.116.075h0Z" transform="translate(-92.546 -56.351)" fill="#dc5345"/>
      <path id="Path_32864" data-name="Path 32864" d="M174.31,84.184h0a2.29,2.29,0,0,1-1.322,1.4l-.073.032a3.255,3.255,0,0,1-1.817.289c-7.549-1.309-9.92,7.752-24.872,6h0c9.7-.821,28.169-8.618,28.106-7.854a1.023,1.023,0,0,1-.021.136Z" transform="translate(-92.759 -44.67)" fill="#2c5ca0"/>
      <path id="Path_32865" data-name="Path 32865" d="M44.48,129.176h0a2.4,2.4,0,0,1,.394-2.874l.084-.084a4.363,4.363,0,0,1,2.794-1.246c15.059-1.026,6.755-17.005,35.43-20.418h0C67.272,110.011,45.57,130.7,44.631,129.411a2.421,2.421,0,0,1-.151-.234Z" transform="translate(-38.484 -55.604)" fill="#2c5ca0"/>
      <path id="Path_32866" data-name="Path 32866" d="M155.621,130.629h0a1.418,1.418,0,0,1-1.747-.135l-.054-.049a2.739,2.739,0,0,1-.859-1.682c-1.2-9.28-10.512-3.537-13.681-21.153h0c3.906,9.639,17.218,22.287,16.477,22.917a1.452,1.452,0,0,1-.135.1Z" transform="translate(-89.065 -57.229)" fill="#2c5ca0"/>
      <path id="Path_32867" data-name="Path 32867" d="M132.793,148.871h0a1.836,1.836,0,0,1-1.787-1.354l-.024-.089a3.423,3.423,0,0,1,.226-2.373c5.055-10.645-8.885-11.022-.244-31.843h0c-2.393,12.9,3.272,35.492,2.044,35.645a1.872,1.872,0,0,1-.216.014Z" transform="translate(-83.102 -60.208)" fill="#dc5345"/>
      <path id="Path_32868" data-name="Path 32868" d="M71.7,130.866h0a1.836,1.836,0,0,1-.1-2.24l.053-.075a3.423,3.423,0,0,1,1.972-1.34c11.422-2.9,2.82-13.874,24.367-20.5h0c-11.458,6.385-25.245,25.161-26.146,24.313a1.867,1.867,0,0,1-.148-.157Z" transform="translate(-52.898 -56.75)" fill="#dc5345"/>
      <path id="Path_32869" data-name="Path 32869" d="M86.688,122.107h0a.851.851,0,0,1-.059-1.189l.034-.042a2.42,2.42,0,0,1,1.251-.795c7.243-2.015,1.8-7.5,15.467-11.923h0c-7.27,3.873-16.029,14.441-16.6,14.027a1,1,0,0,1-.094-.077Z" transform="translate(-60.952 -57.52)" fill="#2c5ca0"/>
      <path id="Path_32870" data-name="Path 32870" d="M108.037,131.287h0a.851.851,0,0,1-.473-1.092l.017-.051a2.42,2.42,0,0,1,.892-1.184c6.073-4.432-.949-7.66,10.29-16.6h0c-5.445,6.181-9.932,19.153-10.611,18.965a.989.989,0,0,1-.115-.04Z" transform="translate(-72.172 -59.756)" fill="#2c5ca0"/>
      <path id="Path_32871" data-name="Path 32871" d="M40.025,87.024l1.1,3.4H44.7l-2.892,2.1,1.1,3.4-2.892-2.1-2.892,2.1,1.1-3.4-2.892-2.1h3.574Z" transform="translate(-33.792 -46.281)" fill="#2c5ca0"/>
      <path id="Path_32872" data-name="Path 32872" d="M145.233,0l1.1,3.4h3.574L147.02,5.5l1.1,3.4-2.892-2.1-2.892,2.1,1.1-3.4-2.892-2.1h3.574Z" transform="translate(-89.743)" fill="#2c5ca0"/>
      <path id="Path_32873" data-name="Path 32873" d="M201.084,77.932l1.1,3.4h3.574l-2.892,2.1,1.1,3.4-2.892-2.1-2.892,2.1,1.1-3.4-2.892-2.1h3.574Z" transform="translate(-119.446 -41.446)" fill="#dc5345"/>
      <path id="Path_32874" data-name="Path 32874" d="M88.083,157.162l1.1,3.4h3.574l-2.892,2.1,1.1,3.4-2.892-2.1-2.892,2.1,1.1-3.4-2.892-2.1h3.574Z" transform="translate(-59.35 -83.582)" fill="#2c5ca0"/>
      <path id="Path_32875" data-name="Path 32875" d="M130.946,77.932l1.1,3.4h3.574l-2.892,2.1,1.1,3.4-2.892-2.1-2.892,2.1,1.1-3.4-2.892-2.1h3.574Z" transform="translate(-82.145 -41.446)" fill="#2c5ca0"/>
      <path id="Path_32876" data-name="Path 32876" d="M189.889,0l1.1,3.4h3.574l-2.892,2.1,1.1,3.4-2.892-2.1L187,8.9l1.1-3.4L185.21,3.4h3.574Z" transform="translate(-113.492)" fill="#dc5345"/>
      <path id="Path_32877" data-name="Path 32877" d="M36.386,143.5l1.4,3.288,3.56-.316-2.695,2.348,1.4,3.288-3.066-1.837-2.695,2.348.8-3.484L32.026,147.3l3.56-.316Z" transform="translate(-32.026 -76.317)" fill="#dc5345"/>
      <path id="Path_32878" data-name="Path 32878" d="M106.414,9.187h0a1.4,1.4,0,0,1,1.78.472l.046.065a3.275,3.275,0,0,1,.574,2.054c-.492,10.686,10.2,5.909,10.179,26.356h0c-2.234-11.584-13.62-28.281-12.737-28.856a1.527,1.527,0,0,1,.159-.091h0Z" transform="translate(-71.476 -4.808)" fill="#dc5345"/>
      <path id="Path_32879" data-name="Path 32879" d="M86.655,42.831h0a.829.829,0,0,1,1.138-.154l.043.028a2.283,2.283,0,0,1,.859,1.122c2.486,6.709,7.349,1.093,12.632,13.7h0c-4.273-6.581-15.094-14.024-14.739-14.6a.956.956,0,0,1,.067-.1h0Z" transform="translate(-61.038 -22.613)" fill="#2c5ca0"/>
      <path id="Path_32880" data-name="Path 32880" d="M69.164,83.971h0a.829.829,0,0,1,.86-.761h.052a2.283,2.283,0,0,1,1.338.455c5.8,4.194,6.716-3.178,18.115,4.363h0c-7.211-3.094-20.343-3.265-20.368-3.94a.952.952,0,0,1,0-.117h0Z" transform="translate(-51.775 -44.252)" fill="#2c5ca0"/>
    </g>
  </g>
</svg>
