<svg xmlns="http://www.w3.org/2000/svg" width="30.144" height="30.144" viewBox="0 0 30.144 30.144">
  <path id="user_10_" data-name="user (10)" d="M25.729,4.414A15.072,15.072,0,0,0,4.414,25.729,15.072,15.072,0,0,0,25.729,4.414ZM6.541,25.274a8.623,8.623,0,0,1,8.531-7.588A8.59,8.59,0,0,1,23.6,25.274a13.278,13.278,0,0,1-17.061,0Zm8.531-9.407a4.578,4.578,0,1,1,4.578-4.578A4.583,4.583,0,0,1,15.072,15.867Zm10.051,7.914a10.383,10.383,0,0,0-6.5-7.238,6.344,6.344,0,1,0-7.1,0,10.373,10.373,0,0,0-6.5,7.235,13.306,13.306,0,1,1,20.1,0Zm0,0"/>
</svg>
