<svg xmlns="http://www.w3.org/2000/svg" width="17.931" height="20.764" viewBox="0 0 17.931 20.764">
  <g id="_19" transform="translate(-11.151 -5.014)">
    <path id="Path_12666" data-name="Path 12666" d="M27.66,7.26H24.666V6.832a1.82,1.82,0,0,0-1.818-1.818H17.385a1.82,1.82,0,0,0-1.818,1.818V7.26H12.574a1.424,1.424,0,0,0-1.423,1.422v.674a1.425,1.425,0,0,0,1.274,1.415l1.465,12.854A2.427,2.427,0,0,0,16.3,25.778h7.629a2.427,2.427,0,0,0,2.413-2.153l1.465-12.854a1.424,1.424,0,0,0,1.274-1.415V8.682A1.424,1.424,0,0,0,27.66,7.26ZM16.491,6.832a.9.9,0,0,1,.895-.895h5.463a.9.9,0,0,1,.895.895V7.26H16.491ZM25.427,23.52a1.5,1.5,0,0,1-1.5,1.335H16.3a1.5,1.5,0,0,1-1.5-1.335L13.355,10.779H26.879L25.427,23.52ZM28.16,9.356a.5.5,0,0,1-.5.5H12.574a.5.5,0,0,1-.5-.5V8.682a.5.5,0,0,1,.5-.5H27.66a.5.5,0,0,1,.5.5v.674Z" transform="translate(0 0)" fill="#ea3e3c"/>
    <path id="Path_12667" data-name="Path 12667" d="M48.462,49.9a.462.462,0,0,0,.462-.462V41.28a.462.462,0,0,0-.923,0v8.156A.462.462,0,0,0,48.462,49.9Z" transform="translate(-28.345 -27.541)" fill="#ea3e3c"/>
    <path id="Path_12668" data-name="Path 12668" d="M60.566,49.939l.045,0a.461.461,0,0,0,.459-.417l.791-8.118a.462.462,0,0,0-.919-.09l-.791,8.118a.462.462,0,0,0,.414.5Z" transform="translate(-37.69 -27.604)" fill="#ea3e3c"/>
    <path id="Path_12669" data-name="Path 12669" d="M33.675,49.941l.045,0a.461.461,0,0,0,.414-.5l-.791-8.118a.462.462,0,0,0-.919.09l.791,8.118a.462.462,0,0,0,.459.417Z" transform="translate(-16.363 -27.604)" fill="#ea3e3c"/>
  </g>
</svg>
