<svg xmlns="http://www.w3.org/2000/svg" width="15.863" height="10.416" viewBox="0 0 15.863 10.416">
  <path id="filter" d="M.5,53.544H8.567a2.064,2.064,0,0,0,4.008,0h2.793a.5.5,0,1,0,0-.991H12.575a2.064,2.064,0,0,0-4.008,0H.5a.5.5,0,1,0,0,.991Zm10.075-1.569A1.073,1.073,0,1,1,9.5,53.048,1.074,1.074,0,0,1,10.571,51.975ZM.5,59.832H3.289a2.064,2.064,0,0,0,4.008,0h8.071a.5.5,0,0,0,0-.991H7.3a2.064,2.064,0,0,0-4.008,0H.5a.5.5,0,0,0,0,.991Zm4.8-1.569a1.073,1.073,0,1,1-1.073,1.073A1.074,1.074,0,0,1,5.292,58.263Z" transform="translate(0 -50.984)" fill="#fff"/>
</svg>
