<svg xmlns="http://www.w3.org/2000/svg" width="91.416" height="16.158" viewBox="0 0 91.416 16.158">
  <g id="Group_162450" data-name="Group 162450" transform="translate(9 -210.746)">
    <path id="Path_12701" data-name="Path 12701" d="M16.877,216.793a1.165,1.165,0,0,0-.94-.791l-4.446-.646L9.5,211.341a1.212,1.212,0,0,0-2.087,0l-1.986,4.014L1,216a1.163,1.163,0,0,0-.645,1.984l3.217,3.135-.759,4.423a1.163,1.163,0,0,0,1.69,1.227l3.962-2.089,3.973,2.089a1.16,1.16,0,0,0,.541.134,1.183,1.183,0,0,0,.685-.221,1.168,1.168,0,0,0,.463-1.139l-.758-4.423,3.217-3.135A1.162,1.162,0,0,0,16.877,216.793Z" transform="translate(-9)" fill="#ea3e3c"/>
    <path id="Path_12702" data-name="Path 12702" d="M121.166,216.793a1.165,1.165,0,0,0-.94-.791l-4.446-.646-1.986-4.014a1.212,1.212,0,0,0-2.087,0l-1.986,4.014-4.435.646a1.163,1.163,0,0,0-.645,1.984l3.217,3.135-.759,4.423a1.164,1.164,0,0,0,1.69,1.227l3.962-2.089,3.973,2.089a1.16,1.16,0,0,0,.541.134,1.183,1.183,0,0,0,.685-.221,1.168,1.168,0,0,0,.463-1.139l-.758-4.423,3.217-3.135A1.162,1.162,0,0,0,121.166,216.793Z" transform="translate(-94.668)" fill="#ea3e3c"/>
    <path id="Path_12703" data-name="Path 12703" d="M225.455,216.793a1.165,1.165,0,0,0-.94-.791l-4.446-.646-1.986-4.014a1.212,1.212,0,0,0-2.087,0l-1.986,4.014-4.435.646a1.163,1.163,0,0,0-.645,1.984l3.217,3.135-.759,4.423a1.164,1.164,0,0,0,1.69,1.227l3.961-2.089,3.973,2.089a1.16,1.16,0,0,0,.541.134,1.183,1.183,0,0,0,.685-.221,1.168,1.168,0,0,0,.463-1.139l-.758-4.423,3.217-3.135A1.161,1.161,0,0,0,225.455,216.793Z" transform="translate(-180.338)" fill="#ea3e3c"/>
    <path id="Path_12704" data-name="Path 12704" d="M329.744,216.793a1.165,1.165,0,0,0-.94-.791l-4.446-.646-1.986-4.014a1.212,1.212,0,0,0-2.087,0l-1.987,4.014-4.435.646a1.163,1.163,0,0,0-.645,1.984l3.217,3.135-.759,4.423a1.164,1.164,0,0,0,1.69,1.227l3.961-2.089,3.973,2.089a1.16,1.16,0,0,0,.541.134,1.183,1.183,0,0,0,.685-.221,1.168,1.168,0,0,0,.463-1.139l-.758-4.423,3.217-3.135A1.162,1.162,0,0,0,329.744,216.793Z" transform="translate(-266.006)" fill="#ea3e3c"/>
    <path id="Path_1044165" data-name="Path 1044165" d="M329.744,216.793a1.165,1.165,0,0,0-.94-.791l-4.446-.646-1.986-4.014a1.212,1.212,0,0,0-2.087,0l-1.987,4.014-4.435.646a1.163,1.163,0,0,0-.645,1.984l3.217,3.135-.759,4.423a1.164,1.164,0,0,0,1.69,1.227l3.961-2.089,3.973,2.089a1.16,1.16,0,0,0,.541.134,1.183,1.183,0,0,0,.685-.221,1.168,1.168,0,0,0,.463-1.139l-.758-4.423,3.217-3.135A1.162,1.162,0,0,0,329.744,216.793Z" transform="translate(-247.385)" fill="#ea3e3c"/>
  </g>
</svg>
