<svg xmlns="http://www.w3.org/2000/svg" width="38" height="38" viewBox="0 0 38 38">
  <g id="linkdin" transform="translate(-265 -6092)">
    <g id="linkedin-logo_1_" data-name="linkedin-logo (1)">
      <path id="LinkedIn" d="M285.5,6119.2h-3.638c0-.089.049-10.522,0-11.605H285.5v1.645l-.013.02-.012.019h.025v-.038a3.559,3.559,0,0,1,3.277-1.917,3.827,3.827,0,0,1,2.992,1.275,5.868,5.868,0,0,1,1.2,3.948v6.653h-3.637v-6.209c0-1.717-.637-2.625-1.841-2.625a2.051,2.051,0,0,0-1.866,1.411,2.688,2.688,0,0,0-.121.941v6.481Zm-5.642-.01h-3.64v-11.6h3.64v11.6Zm-1.824-13.18h-.025a2.07,2.07,0,1,1,.025,0Z" fill="#fff"/>
    </g>
    <g id="Ellipse_17" data-name="Ellipse 17" transform="translate(265 6092)" fill="none" stroke="#707070" stroke-width="1">
      <circle cx="19" cy="19" r="19" stroke="none"/>
      <circle cx="19" cy="19" r="18.5" fill="none"/>
    </g>
  </g>
</svg>
