<svg xmlns="http://www.w3.org/2000/svg" width="38" height="38" viewBox="0 0 38 38">
  <g id="pintrest" transform="translate(-323 -6092)">
    <g id="XMLID_798_">
      <path id="XMLID_799_" d="M347.346,6103.762A7.115,7.115,0,0,0,342.5,6102a7.8,7.8,0,0,0-5.613,2.062,5.957,5.957,0,0,0-1.892,4.224,3.933,3.933,0,0,0,2.248,3.931.773.773,0,0,0,.283.056.622.622,0,0,0,.614-.482c.047-.17.158-.591.205-.773a.7.7,0,0,0-.2-.784,2.426,2.426,0,0,1-.6-1.708,4.409,4.409,0,0,1,4.678-4.328c2.411,0,3.908,1.306,3.908,3.407a6.813,6.813,0,0,1-.844,3.459,2.493,2.493,0,0,1-2.065,1.377,1.4,1.4,0,0,1-1.089-.474,1.149,1.149,0,0,1-.219-1.037c.107-.434.254-.886.4-1.323a7.854,7.854,0,0,0,.5-2.154,1.6,1.6,0,0,0-1.652-1.72,2.518,2.518,0,0,0-2.239,2.767,3.95,3.95,0,0,0,.308,1.548c-.158.638-1.1,4.435-1.277,5.151-.1.418-.724,3.719.3,3.982,1.155.3,2.187-2.919,2.293-3.282.085-.3.383-1.413.566-2.1a3.59,3.59,0,0,0,2.329.858,5.285,5.285,0,0,0,4.17-1.988,7.724,7.724,0,0,0,1.568-4.88A5.506,5.506,0,0,0,347.346,6103.762Z" fill="#fff"/>
    </g>
    <g id="Ellipse_18" data-name="Ellipse 18" transform="translate(323 6092)" fill="none" stroke="#707070" stroke-width="1">
      <circle cx="19" cy="19" r="19" stroke="none"/>
      <circle cx="19" cy="19" r="18.5" fill="none"/>
    </g>
  </g>
</svg>
