<svg xmlns="http://www.w3.org/2000/svg" xmlns:xlink="http://www.w3.org/1999/xlink" width="84" height="18" viewBox="0 0 84 18">
  <defs>
    <clipPath id="clip-path">
      <rect id="Rectangle_6406" data-name="Rectangle 6406" width="10" height="18" transform="translate(74 209.746)" fill="#656565"/>
    </clipPath>
  </defs>
  <g id="Group_162468" data-name="Group 162468" transform="translate(-267 -3440)">
    <path id="Path_12701" data-name="Path 12701" d="M16.877,216.793a1.165,1.165,0,0,0-.94-.791l-4.446-.646L9.5,211.341a1.212,1.212,0,0,0-2.087,0l-1.986,4.014L1,216a1.163,1.163,0,0,0-.645,1.984l3.217,3.135-.759,4.423a1.163,1.163,0,0,0,1.69,1.227l3.962-2.089,3.973,2.089a1.16,1.16,0,0,0,.541.134,1.183,1.183,0,0,0,.685-.221,1.168,1.168,0,0,0,.463-1.139l-.758-4.423,3.217-3.135A1.162,1.162,0,0,0,16.877,216.793Z" transform="translate(267 3230.254)" fill="#ea3e3c"/>
    <path id="Path_12702" data-name="Path 12702" d="M121.166,216.793a1.165,1.165,0,0,0-.94-.791l-4.446-.646-1.986-4.014a1.212,1.212,0,0,0-2.087,0l-1.986,4.014-4.435.646a1.163,1.163,0,0,0-.645,1.984l3.217,3.135-.759,4.423a1.164,1.164,0,0,0,1.69,1.227l3.962-2.089,3.973,2.089a1.16,1.16,0,0,0,.541.134,1.183,1.183,0,0,0,.685-.221,1.168,1.168,0,0,0,.463-1.139l-.758-4.423,3.217-3.135A1.162,1.162,0,0,0,121.166,216.793Z" transform="translate(181.332 3230.254)" fill="#ea3e3c"/>
    <path id="Path_12703" data-name="Path 12703" d="M225.455,216.793a1.165,1.165,0,0,0-.94-.791l-4.446-.646-1.986-4.014a1.212,1.212,0,0,0-2.087,0l-1.986,4.014-4.435.646a1.163,1.163,0,0,0-.645,1.984l3.217,3.135-.759,4.423a1.164,1.164,0,0,0,1.69,1.227l3.961-2.089,3.973,2.089a1.16,1.16,0,0,0,.541.134,1.183,1.183,0,0,0,.685-.221,1.168,1.168,0,0,0,.463-1.139l-.758-4.423,3.217-3.135A1.161,1.161,0,0,0,225.455,216.793Z" transform="translate(95.662 3230.254)" fill="#ea3e3c"/>
    <path id="Path_12704" data-name="Path 12704" d="M329.744,216.793a1.165,1.165,0,0,0-.94-.791l-4.446-.646-1.986-4.014a1.212,1.212,0,0,0-2.087,0l-1.987,4.014-4.435.646a1.163,1.163,0,0,0-.645,1.984l3.217,3.135-.759,4.423a1.164,1.164,0,0,0,1.69,1.227l3.961-2.089,3.973,2.089a1.16,1.16,0,0,0,.541.134,1.183,1.183,0,0,0,.685-.221,1.168,1.168,0,0,0,.463-1.139l-.758-4.423,3.217-3.135A1.162,1.162,0,0,0,329.744,216.793Z" transform="translate(9.994 3230.254)" fill="#ea3e3c"/>
    <g id="Mask_Group_78" data-name="Mask Group 78" transform="translate(267 3230.254)" clip-path="url(#clip-path)">
      <path id="Path_12705" data-name="Path 12705" d="M434.033,216.793a1.166,1.166,0,0,0-.94-.791l-4.446-.646-1.986-4.014a1.212,1.212,0,0,0-2.087,0l-1.987,4.014-4.435.646a1.163,1.163,0,0,0-.645,1.984l3.217,3.135-.759,4.423a1.165,1.165,0,0,0,1.691,1.226l3.962-2.089,3.974,2.089a1.163,1.163,0,0,0,1.688-1.227l-.758-4.423,3.217-3.135A1.163,1.163,0,0,0,434.033,216.793Z" transform="translate(-342.676)" fill="#ea3e3c"/>
    </g>
  </g>
</svg>
