<svg xmlns="http://www.w3.org/2000/svg" width="34.757" height="31.365" viewBox="0 0 34.757 31.365">
  <g id="volume-control" transform="translate(0.25 0.25)">
    <path id="Path_12148" data-name="Path 12148" d="M19.744,68.028h1.02a2.5,2.5,0,0,0,2.491-2.491V61.862a2.5,2.5,0,0,0-2.491-2.491h-1.02a2.5,2.5,0,0,0-2.491,2.491v3.672A2.5,2.5,0,0,0,19.744,68.028Zm-1.209-6.164a1.211,1.211,0,0,1,1.209-1.209h1.02a1.212,1.212,0,0,1,1.209,1.209v3.67a1.211,1.211,0,0,1-1.209,1.209h-1.02a1.211,1.211,0,0,1-1.209-1.209Z" transform="translate(-17.252 -45.661)" stroke="#000" stroke-width="0.5"/>
    <path id="Path_12149" data-name="Path 12149" d="M45.447,60.038h1.02a2.5,2.5,0,0,0,2.491-2.491V49.251a2.5,2.5,0,0,0-2.491-2.491h-1.02a2.5,2.5,0,0,0-2.491,2.491v8.292A2.5,2.5,0,0,0,45.447,60.038ZM44.238,49.253a1.211,1.211,0,0,1,1.209-1.209h1.02a1.211,1.211,0,0,1,1.209,1.209v8.291a1.211,1.211,0,0,1-1.209,1.209h-1.02a1.211,1.211,0,0,1-1.209-1.209Z" transform="translate(-33.538 -37.671)" stroke="#000" stroke-width="0.5"/>
    <path id="Path_12150" data-name="Path 12150" d="M71.15,52.745h1.02a2.5,2.5,0,0,0,2.491-2.491V37.741a2.5,2.5,0,0,0-2.491-2.491H71.15a2.5,2.5,0,0,0-2.491,2.491V50.251A2.5,2.5,0,0,0,71.15,52.745Zm-1.209-15a1.212,1.212,0,0,1,1.209-1.209h1.02a1.212,1.212,0,0,1,1.209,1.209V50.251a1.211,1.211,0,0,1-1.209,1.209H71.15a1.211,1.211,0,0,1-1.209-1.209Z" transform="translate(-49.824 -30.378)" stroke="#000" stroke-width="0.5"/>
    <path id="Path_12151" data-name="Path 12151" d="M97.874,21.952h-1.02a2.5,2.5,0,0,0-2.491,2.491V41.825a2.5,2.5,0,0,0,2.491,2.491h1.02a2.5,2.5,0,0,0,2.491-2.491V24.444A2.5,2.5,0,0,0,97.874,21.952Zm1.209,19.873a1.211,1.211,0,0,1-1.209,1.209h-1.02a1.211,1.211,0,0,1-1.209-1.209V24.444a1.212,1.212,0,0,1,1.209-1.209h1.02a1.211,1.211,0,0,1,1.209,1.209Z" transform="translate(-66.11 -21.952)" stroke="#000" stroke-width="0.5"/>
    <path id="Path_12152" data-name="Path 12152" d="M50.865,92.167H32.6a3,3,0,0,0-5.864,0H17.891a.641.641,0,0,0,0,1.282h8.847a3,3,0,0,0,5.864,0H50.865a.641.641,0,1,0,0-1.282ZM29.67,94.53a1.722,1.722,0,1,1,1.721-1.722A1.722,1.722,0,0,1,29.67,94.53Z" transform="translate(-17.25 -64.946)" stroke="#000" stroke-width="0.5"/>
  </g>
</svg>
