<svg xmlns="http://www.w3.org/2000/svg" width="12.143" height="12.144" viewBox="0 0 12.143 12.144">
  <g id="search-interface-symbol" transform="translate(-0.006 -12)">
    <g id="_x34__4_" transform="translate(0.006)">
      <g id="Group_10948" data-name="Group 10948" transform="translate(0)">
        <path id="Path_12249" data-name="Path 12249" d="M12.016,11.381,10.277,9.7a5.728,5.728,0,0,0,1.531-3.892A5.855,5.855,0,0,0,5.907,0a5.854,5.854,0,0,0-5.9,5.807,5.854,5.854,0,0,0,5.9,5.807,5.934,5.934,0,0,0,3.714-1.3l1.753,1.7a.459.459,0,0,0,.642,0A.442.442,0,0,0,12.016,11.381Zm-6.11-.66A4.954,4.954,0,0,1,.914,5.807,4.954,4.954,0,0,1,5.907.893,4.954,4.954,0,0,1,10.9,5.807,4.954,4.954,0,0,1,5.907,10.721Z" transform="translate(-0.006 12)" fill="rgba(19,28,27,0.6)"/>
      </g>
    </g>
  </g>
</svg>
