<svg xmlns="http://www.w3.org/2000/svg" width="31.038" height="31.042" viewBox="0 0 31.038 31.042">
  <g id="repeat" transform="translate(0.501 0.5)">
    <path id="Path_12143" data-name="Path 12143" d="M225.366,117.333A1.366,1.366,0,0,0,224,118.7v8.2a1.366,1.366,0,0,0,1.366,1.366h6.147a1.366,1.366,0,1,0,0-2.732h-4.781V118.7a1.366,1.366,0,0,0-1.366-1.366Z" transform="translate(-211.028 -111.194)" stroke="#fff" stroke-width="1"/>
    <path id="Path_12144" data-name="Path 12144" d="M104.961,25.837a15.042,15.042,0,0,0-21.248,0,1.366,1.366,0,1,0,1.931,1.931A12.293,12.293,0,1,1,87.4,46.589l1.219-.406a1.366,1.366,0,0,0-.864-2.592l-3.541,1.18a1.366,1.366,0,0,0-.912,1.538l.729,4.052a1.367,1.367,0,0,0,1.343,1.124,1.383,1.383,0,0,0,.243-.022,1.366,1.366,0,0,0,1.1-1.586l-.1-.546a15.015,15.015,0,0,0,18.341-23.495Z" transform="translate(-79.317 -21.443)" stroke="#fff" stroke-width="1"/>
    <path id="Path_12145" data-name="Path 12145" d="M40.494,141.679a1.365,1.365,0,0,0-1.826.63q-.166.34-.312.686a1.366,1.366,0,1,0,2.514,1.067c.08-.187.164-.373.253-.558A1.365,1.365,0,0,0,40.494,141.679Z" transform="translate(-37.168 -133.852)" stroke="#fff" stroke-width="1"/>
    <path id="Path_12146" data-name="Path 12146" d="M22.765,219.635a1.365,1.365,0,0,0,1.364-1.33q.01-.387.043-.774a1.366,1.366,0,0,0-2.721-.236q-.041.469-.053.939a1.366,1.366,0,0,0,1.33,1.4Z" transform="translate(-21.399 -203.588)" stroke="#fff" stroke-width="1"/>
    <path id="Path_12147" data-name="Path 12147" d="M32.837,296.547a1.366,1.366,0,1,0-2.617.782c.071.239.149.478.232.715a1.366,1.366,0,0,0,2.577-.906Q32.926,296.844,32.837,296.547Z" transform="translate(-29.601 -278.021)" stroke="#fff" stroke-width="1"/>
  </g>
</svg>
