<svg xmlns="http://www.w3.org/2000/svg" width="22" height="22" viewBox="0 0 22 22">
  <g id="notification" transform="translate(103.043 -0.002)">
    <g id="Group_30995" data-name="Group 30995" transform="translate(-103.042 0)">
      <rect id="Rectangle_22155" data-name="Rectangle 22155" width="22" height="22" transform="translate(0 0.002)" fill="none"/>
      <path id="Path_32885" data-name="Path 32885" d="M35.1,13.913V9.733A7.317,7.317,0,0,0,30.347,2.91a2.468,2.468,0,0,0,.05-.486,2.439,2.439,0,0,0-4.878,0,2.579,2.579,0,0,0,.046.472A7.1,7.1,0,0,0,23,4.474a7.012,7.012,0,0,0-2.182,5.106v4.333a.282.282,0,0,1-.282.28,2.556,2.556,0,0,0-2.564,2.243,2.476,2.476,0,0,0,.639,1.913,2.517,2.517,0,0,0,1.85.813h4.307a3.215,3.215,0,0,0,6.386,0h4.307a2.491,2.491,0,0,0,2.489-2.725,2.559,2.559,0,0,0-2.564-2.243.28.28,0,0,1-.282-.28ZM27.958,1.419a1.009,1.009,0,0,1,1.011,1,.862.862,0,0,1-.014.135,6.369,6.369,0,0,0-.736-.067,7.406,7.406,0,0,0-1.257.071.862.862,0,0,1-.014-.135,1.01,1.01,0,0,1,1.011-1.008Zm0,19.161a1.789,1.789,0,0,1-1.75-1.419h3.5A1.789,1.789,0,0,1,27.958,20.581Zm8.568-4.01a1.064,1.064,0,0,1-.271.823,1.079,1.079,0,0,1-.8.348h-15a1.066,1.066,0,0,1-.793-.348,1.054,1.054,0,0,1-.275-.823,1.12,1.12,0,0,1,1.143-.958,1.708,1.708,0,0,0,1.711-1.7V9.581A5.614,5.614,0,0,1,23.99,5.5,5.68,5.68,0,0,1,27.958,3.9c.071,0,.139,0,.211,0a5.822,5.822,0,0,1,5.5,5.826v4.18a1.708,1.708,0,0,0,1.711,1.7A1.123,1.123,0,0,1,36.526,16.571Z" transform="translate(-16.958 0.002)"/>
    </g>
  </g>
</svg>
