<svg xmlns="http://www.w3.org/2000/svg" width="38" height="38" viewBox="0 0 38 38">
  <g id="twitter" transform="translate(-208 -6092)">
    <path id="twitter_1_" data-name="twitter (1)" d="M237.168,6104.036a9.042,9.042,0,0,1-2.5.686,4.316,4.316,0,0,0,1.909-2.4,8.679,8.679,0,0,1-2.752,1.05,4.34,4.34,0,0,0-7.507,2.968,4.47,4.47,0,0,0,.1.989,12.284,12.284,0,0,1-8.945-4.539,4.341,4.341,0,0,0,1.334,5.8,4.286,4.286,0,0,1-1.961-.535v.047a4.359,4.359,0,0,0,3.477,4.264,4.327,4.327,0,0,1-1.138.143,3.813,3.813,0,0,1-.822-.074,4.381,4.381,0,0,0,4.055,3.023,8.721,8.721,0,0,1-5.381,1.851,8.077,8.077,0,0,1-1.039-.06,12.352,12.352,0,0,0,19.009-10.4c0-.192-.007-.377-.016-.561A8.654,8.654,0,0,0,237.168,6104.036Z" transform="translate(0.416)" fill="#fff"/>
    <g id="Ellipse_16" data-name="Ellipse 16" transform="translate(208 6092)" fill="none" stroke="#707070" stroke-width="1">
      <circle cx="19" cy="19" r="19" stroke="none"/>
      <circle cx="19" cy="19" r="18.5" fill="none"/>
    </g>
  </g>
</svg>
