<svg xmlns="http://www.w3.org/2000/svg" width="18.039" height="15.465" viewBox="0 0 18.039 15.465">
  <g id="Icon_ionic-ios-eye-off" data-name="Icon ionic-ios-eye-off" transform="translate(0)">
    <path id="Path_32657" data-name="Path 32657" d="M5.481,4.665a.572.572,0,0,0-.809.809L18.988,19.8a.568.568,0,0,0,.552.145.558.558,0,0,0,.258-.149.571.571,0,0,0,0-.805Z" transform="translate(-3.214 -4.499)" fill="#011d22"/>
    <g id="Group_30615" data-name="Group 30615" transform="translate(0 1.934)">
      <path id="Path_32658" data-name="Path 32658" d="M11.441,18.857A3.621,3.621,0,0,1,8,13.686L5.847,11.531A28.249,28.249,0,0,0,2.42,14.805a.637.637,0,0,0,0,.858c2.614,2.887,4.917,5.372,8.848,5.372a7.755,7.755,0,0,0,3.314-.773L12.826,18.51A3.66,3.66,0,0,1,11.441,18.857Z" transform="translate(-2.252 -9.437)" fill="#011d22"/>
      <path id="Path_32659" data-name="Path 32659" d="M24.383,14.077a.632.632,0,0,0,.02-.834c-2.106-2.557-5.026-5.368-8.88-5.368a7.539,7.539,0,0,0-3.3.765l1.76,1.76a3.549,3.549,0,0,1,1.381-.346A3.621,3.621,0,0,1,18.8,15.224l2.155,2.154A26.639,26.639,0,0,0,24.383,14.077Z" transform="translate(-6.511 -7.875)" fill="#011d22"/>
      <path id="Path_32660" data-name="Path 32660" d="M13.509,17.639a2.588,2.588,0,0,0,2.372,2.372,2.518,2.518,0,0,0,.942-.1l-3.214-3.214A2.634,2.634,0,0,0,13.509,17.639Z" transform="translate(-7.058 -11.642)" fill="#011d22"/>
      <path id="Path_32661" data-name="Path 32661" d="M21.857,17.883c0-.052,0-.1,0-.157a1.786,1.786,0,0,1-.733.157c-.044,0-.085,0-.125,0l.749.753A2.575,2.575,0,0,0,21.857,17.883Z" transform="translate(-10.26 -12.084)" fill="#011d22"/>
      <path id="Path_32662" data-name="Path 32662" d="M17.444,14.185a1.892,1.892,0,0,1,.125-.681c-.04,0-.081,0-.125,0a2.548,2.548,0,0,0-.745.113l.753.753C17.448,14.305,17.444,14.245,17.444,14.185Z" transform="translate(-8.424 -10.278)" fill="#011d22"/>
    </g>
  </g>
</svg>
