<svg xmlns="http://www.w3.org/2000/svg" width="18.019" height="11.585" viewBox="0 0 18.019 11.585">
  <g id="Icon_ionic-ios-eye" data-name="Icon ionic-ios-eye" transform="translate(-2.643 -8.126)">
    <path id="Path_12781" data-name="Path 12781" d="M11.251,7.875c-3.233,0-5.783,2.035-8.831,5.36a.636.636,0,0,0,0,.857c2.61,2.883,4.91,5.368,8.835,5.368,3.876,0,6.784-3.125,8.851-5.389a.631.631,0,0,0,.02-.832C18.018,10.679,15.1,7.875,11.251,7.875Zm.177,9.406a3.619,3.619,0,1,1,3.451-3.451,3.619,3.619,0,0,1-3.451,3.451Z" transform="translate(0.39 0.251)" fill="#011d22"/>
    <path id="Path_12782" data-name="Path 12782" d="M16.185,14.213a1.971,1.971,0,0,1,.13-.709h-.13a2.685,2.685,0,1,0,2.685,2.685v-.164a1.86,1.86,0,0,1-.764.164A1.948,1.948,0,0,1,16.185,14.213Z" transform="translate(-4.537 -2.269)" fill="#011d22"/>
  </g>
</svg>
