<svg xmlns="http://www.w3.org/2000/svg" width="22" height="22" viewBox="0 0 22 22">
  <g id="location" transform="translate(-98 -5338)">
    <rect id="Rectangle_22076" data-name="Rectangle 22076" width="22" height="22" transform="translate(98 5338)" fill="none"/>
    <path id="Icon_ionic-ios-call" data-name="Icon ionic-ios-call" d="M25.614,21.534A18.271,18.271,0,0,0,21.8,18.98c-1.144-.549-1.563-.538-2.373.045-.674.487-1.11.94-1.886.77a11.249,11.249,0,0,1-3.788-2.8,11.168,11.168,0,0,1-2.8-3.788c-.164-.781.289-1.212.77-1.886.583-.81.6-1.229.045-2.373A17.909,17.909,0,0,0,9.209,5.129C8.377,4.3,8.19,4.478,7.731,4.642a8.411,8.411,0,0,0-1.353.719A4.083,4.083,0,0,0,4.753,7.077c-.323.7-.7,1.993,1.206,5.38A30.017,30.017,0,0,0,11.237,19.5h0l.006.006.006.006h0a30.135,30.135,0,0,0,7.039,5.278c3.386,1.9,4.683,1.529,5.38,1.206a4.013,4.013,0,0,0,1.716-1.625,8.41,8.41,0,0,0,.719-1.353C26.266,22.553,26.453,22.366,25.614,21.534Z" transform="translate(93.511 5333.499)" fill="#fff"/>
  </g>
</svg>
