<svg xmlns="http://www.w3.org/2000/svg" width="599.746" height="624.999" viewBox="0 0 599.746 624.999">
  <g id="Gymnastic-bro" transform="translate(40.782 254.97)">
    <g id="freepik--background-simple--inject-1" transform="matrix(0.982, -0.191, 0.191, 0.982, 91.235, 75.742)">
      <path id="Path_32735" data-name="Path 32735" d="M267.96,49.993S210.191,4.46,140.24.391,38.269,24.716,38.274,51.308s15.8,22.539-9.467,72.113-42.87,67.152-13.529,105.017,83.962,72.13,142.16,70.334,69.043-41,60.917-62.186S254,239.32,279.72,203.244s42.4-87.445,22.994-116.284S267.96,49.993,267.96,49.993Z" transform="translate(0 0.954)" fill="#37474f"/>
      <path id="Path_32736" data-name="Path 32736" d="M268.815,50.152S210.862,4.474,140.687.393,38.392,24.795,38.4,51.472s15.848,22.611-9.5,72.344-43.007,67.366-13.572,105.353,84.23,72.36,142.613,70.558,69.263-41.135,61.111-62.384,35.762,2.742,61.562-33.45,42.538-87.725,23.067-116.655S268.815,50.152,268.815,50.152Z" transform="translate(0 0)" fill="#fff" opacity="0.7"/>
    </g>
    <g id="Group_30892" data-name="Group 30892" transform="translate(400.92 63.983)">
      <g id="freepik--shadow-2--inject-1" transform="translate(1.001 282.054)">
        <ellipse id="Ellipse_3466" data-name="Ellipse 3466" cx="54.823" cy="8.014" rx="54.823" ry="8.014" fill="#263238"/>
      </g>
      <g id="freepik--character-3--inject-1" transform="translate(0 0)">
        <path id="Path_32737" data-name="Path 32737" d="M331.34,324.256s6.25,22.589,13.209,32.84,14.654,21.737,19.363,28.313,13.4,22.675,17.545,29.232,5.59,9.4,5.59,9.4a19.145,19.145,0,0,0,2.938,6.1,12.874,12.874,0,0,1,2.871,8.1c.077,2.986-1.158,3.733-1.215,5.13s2.728,1.7,4.135,1.369,3.829-.641,4.537-3.609.345-8.557.345-8.557,4.786-4.585,3.522-8.031-5.341-1.015-7.763-5.1-6.021-13.6-8.117-20.866-5.1-21.345-8.921-25.288a27.451,27.451,0,0,1-6.394-9.438c-1.464-3.245-2.383-9.859-2.383-9.859s.45-6.164-3.723-20.895-13.994-13.726-23.355-13.917S332.192,318.111,331.34,324.256Z" transform="translate(-316.225 -162.177)" fill="#fff" stroke="#263238" stroke-linejoin="round" stroke-width="1"/>
        <path id="Path_32738" data-name="Path 32738" d="M398.465,449.377c1.407-.345,3.829-.641,4.537-3.608s.345-8.557.345-8.557,4.786-4.585,3.522-8.031a2.872,2.872,0,0,0-1.608-1.761c-.048.555-.115,1.3-.2,2.288-.364,3.972-4.125,8-3.044,10.845s-1.981,4.5-1.981,4.5l-2.766-.507a4.975,4.975,0,0,0-1.838-.077c-.287,1.723-1.053,2.441-1.1,3.541C394.273,449.406,397.058,449.712,398.465,449.377Z" transform="translate(-318.923 -166.82)" fill="#263238" stroke="#263238" stroke-linejoin="round" stroke-width="1"/>
        <path id="Path_32739" data-name="Path 32739" d="M355.957,325.04s-5.571,28.878-7.466,40.967S347.2,382.9,347.324,384.7s-1.914,13.477-2.412,19.832-1.35,8.519-1.388,14.5-2.871,17.229-3.2,19.4a28.486,28.486,0,0,0-.239,5.743c.105,2.4-1.455,11.3-.775,14.128s4.3,2.163,5.886,2.23,5.963.45,7.026-1.1.163-3.982-1.062-8.021-3.388-9.706-3.408-14.1,10.012-15.736,12.874-27.183-.469-17.564,1.149-27.863,8.155-18.8,12.7-32.371,6.212-20.273,4.91-27.308-2.871-8.49-2.871-8.49Z" transform="translate(-316.559 -161.966)" fill="#fff" stroke="#263238" stroke-linejoin="round" stroke-width="1"/>
        <path id="Path_32740" data-name="Path 32740" d="M352.223,465.664c.881-1.3.4-3.216-.5-6.154-6.394-2.556-10.9-.871-12.443-.105a19.793,19.793,0,0,0,0,5.13c.68,2.814,4.3,2.163,5.887,2.23S351.161,467.186,352.223,465.664Z" transform="translate(-316.558 -168.136)" fill="#263238" stroke="#263238" stroke-linejoin="round" stroke-width="1"/>
        <path id="Path_32741" data-name="Path 32741" d="M343.212,210.078l1.273,12.376a22.657,22.657,0,0,0-3.934-5.5,57.535,57.535,0,0,1-7.533-8.327c-1.819-2.747-4.288-25.719-4.288-25.719s10.2-6.116,13.745-9.093a118.489,118.489,0,0,1,10.242-7.15s6.356.708,6.968.431a17.167,17.167,0,0,0,1.512-.823s3.513,1.33,5.006,1.091a12.439,12.439,0,0,0,3.465-1.187c.957-.421,2.929.4,3.724-.144s1.551-1.57-.507-2.106a38.666,38.666,0,0,0-5.915-.689l.794-4.719a9.35,9.35,0,0,1,2.938.718c.574.469,2.355,4.106,3.273,3.4s.536-2.2-1.015-4.2-8.2-2.871-9.686-2.919-6.9,1.8-9.036,3.044-12.443,6.47-12.443,6.47-20.847,8.5-22.972,9.447-3.2,1.8-3.273,3.733,2.556,24.465,5.006,33.5,9.026,22.5,10.28,24.484a12.307,12.307,0,0,1,1.914,4.087c0,.45-.239,2.221-2.422,8.375s-4.24,20.024-2.977,25.269,2.986,11.371,2.986,13.3-3.963,31.328-3.963,31.328,15.085,5.226,24.8,3.829,19.89-6.9,23.049-7.964,5.743-1.694,5.743-1.694-.287-.153-5.284-8.681-12.931-14.061-13.084-17.612,2.173-16.693,2.872-19.928,10.663-13.525,12.175-14.358,3.953-2.058,3.953-2.058l25.987,3.589a135.58,135.58,0,0,0,13.755,5.025c4.853,1.235,19.517,6,20.541,6.336s6.786,4.738,6.786,4.738a13.144,13.144,0,0,0,1.589,4.671c1.12,1.531,3.953,4.91,3.915,5.954s-1.311,2.919.211,2.087,2.7-.632,2.316-2.278-1.359-2.871-.957-4.5,3.723-3.829,4.92-4.106,9.38-.507,11.189-1.321,3.072-2.4,1.579-2.163-4.346.861-4.346.861-1.914-.373-4.125-.766-2.383.2-7.342-2.087A106.676,106.676,0,0,1,446,260.645c-3.924-2.24-25.288-13.668-29.959-15.64s-9.677-2.871-14.683-4.02a61.606,61.606,0,0,1-13.324-4.709c-1.914-1.11-5.437-4.977-9.983-6.346s-9.026-.823-11.84-1.082-2.345-.842-5.083-2.871-1.857-8.988-1.857-8.988,1.407,5.552-6.939-1.034S343.212,210.078,343.212,210.078Z" transform="translate(-315.548 -155.173)" fill="#fff" stroke="#263238" stroke-linejoin="round" stroke-width="1"/>
        <path id="Path_32742" data-name="Path 32742" d="M384.514,245.09s-7.131,2.163-10.854,5.887" transform="translate(-318.037 -159.01)" fill="none" stroke="#263238" stroke-linejoin="round" stroke-width="1"/>
        <path id="Path_32743" data-name="Path 32743" d="M383.283,254.243s-2-.469-5.743-1.713" transform="translate(-318.204 -159.329)" fill="none" stroke="#263238" stroke-linejoin="round" stroke-width="1"/>
        <path id="Path_32744" data-name="Path 32744" d="M356,234.21s6.183,1.149,6.643,1.015,2.288-1.541,3.934-1.914" transform="translate(-317.281 -158.506)" fill="none" stroke="#263238" stroke-linejoin="round" stroke-width="1"/>
        <path id="Path_32745" data-name="Path 32745" d="M359.823,224.8s-4.46,7.246-5.743,8.969" transform="translate(-317.199 -158.141)" fill="none" stroke="#263238" stroke-linejoin="round" stroke-width="1"/>
        <line id="Line_517" data-name="Line 517" x2="0.89" y2="7.016" transform="translate(28.937 67.281)" fill="none" stroke="#263238" stroke-linejoin="round" stroke-width="1"/>
        <path id="Path_32746" data-name="Path 32746" d="M374.694,304.65c-5-8.519-12.941-14.051-13.094-17.621s2.173-16.693,2.872-19.928c.421-1.914,3.934-6.116,7.1-9.5-1.235-4.355-5.063-12.951-13.668-14.98-11.486-2.7-14.128-6.7-15.114-11.754s1.665-7.811,1.665-7.811a22.66,22.66,0,0,0-3.934-5.5,57.537,57.537,0,0,1-7.5-8.327c-1.819-2.747-4.288-25.719-4.288-25.719s3.446-2.067,7.026-4.384a10.433,10.433,0,0,1-3.341-9.667c-5.839,2.393-12.443,5.111-13.582,5.619-2.125.957-3.2,1.8-3.273,3.733s2.556,24.465,5.006,33.5,9.026,22.5,10.28,24.484a12.308,12.308,0,0,1,1.914,4.087c0,.45-.239,2.221-2.422,8.375s-4.24,20.024-2.977,25.269,2.977,11.371,2.977,13.3-3.963,31.328-3.963,31.328,15.085,5.226,24.8,3.829,19.89-6.9,23.049-7.964,5.743-1.694,5.743-1.694S379.69,313.178,374.694,304.65Z" transform="translate(-315.549 -155.77)" fill="#252525" stroke="#000" stroke-linejoin="round" stroke-width="1"/>
        <path id="Path_32747" data-name="Path 32747" d="M335.3,239.714s1.273-11.486-.957-19.574" transform="translate(-316.353 -157.941)" fill="none" stroke="#263238" stroke-linejoin="round" stroke-width="1"/>
        <path id="Path_32748" data-name="Path 32748" d="M448.565,264c-5.083-2.872-24.886-13.4-29.375-15.315-4.671-1.972-9.677-2.871-14.683-4.02a68.565,68.565,0,0,1-9.658-3.034,12.893,12.893,0,0,0-4.786,8.088c-.373,1.838-.641,3.417-.833,4.786l20.569,2.872a135.639,135.639,0,0,0,13.755,5.025c4.853,1.235,19.517,6,20.541,6.336a7.134,7.134,0,0,1,1.168.68A15.318,15.318,0,0,1,448.565,264Z" transform="translate(-318.704 -158.862)" fill="#252525" stroke="#000" stroke-linejoin="round" stroke-width="1"/>
        <path id="Path_32749" data-name="Path 32749" d="M371.559,156.332a35.157,35.157,0,0,1-.373,6.844c-.526,2.058-1.474,3.36-1.914,2.45s-.048-2.23,0-3.829-.421-4.317-.4-4.786S368.381,155.279,371.559,156.332Z" transform="translate(-317.831 -155.191)" fill="#fff" stroke="#263238" stroke-linejoin="round" stroke-width="1"/>
        <path id="Path_32750" data-name="Path 32750" d="M369.238,155.839a2.039,2.039,0,0,1,.565,1.263,68.2,68.2,0,0,1-.957,7.188c-.211.737-.479,1.1-1.024.957s-.412-.574-.6-1.914-.153-5.322-.478-6.327-.814-1.273-.057-1.608A2.144,2.144,0,0,1,369.238,155.839Z" transform="translate(-317.721 -155.158)" fill="#fff" stroke="#263238" stroke-linejoin="round" stroke-width="1"/>
        <path id="Path_32751" data-name="Path 32751" d="M362.49,156.514s2.144-.747,2.795-1.015,1.694,1.819,1.723,2.5a55.448,55.448,0,0,1-.957,6.2.766.766,0,0,1-1.177.258c-.546-.45-.728-4.853-.728-4.853l-1.3.077" transform="translate(-317.559 -155.172)" fill="#fff" stroke="#263238" stroke-linejoin="round" stroke-width="1"/>
        <path id="Path_32752" data-name="Path 32752" d="M352.7,150.67l67.011,26.59-.909,1.388L352.35,152.5Z" transform="translate(-297.79 -144.877)" fill="#fff" stroke="#263238" stroke-linejoin="round" stroke-width="1"/>
        <path id="Path_32753" data-name="Path 32753" d="M437.794,194.067h0v.421h0c0-.584.048-1.244.077-1.771,0,.23.048-1.024,0-.325.057-1.062,0-.306,0-.077v.727c-.249,4.183-.67,8.672-1.206,12.941a175.765,175.765,0,0,1-8.433,37.071,104.652,104.652,0,0,1-8.615,18.684,111.6,111.6,0,0,1-15.181,19.191c-9.744,10.3-21.058,19.794-33.912,25.92a42.2,42.2,0,0,1-12.013,4.01,12.443,12.443,0,0,1-6.949-.708,5.293,5.293,0,0,1-3.13-4.346v-.354c-.067-.718-.326,7.083-.278,6.767v-.239c.048-.325.1-.641.163-.957a13.978,13.978,0,0,1,.66-2.154,28.162,28.162,0,0,1,2.757-5.13A86.784,86.784,0,0,1,364.3,289.382c5.944-5.7,12.281-10.979,18.674-16.167a327.366,327.366,0,0,1,37.052-26.581,122.76,122.76,0,0,1,17.229-8.873c4.422-1.78,9.218-3.36,14.032-3.331,3.522,0,7,1.158,9.112,4.106s2.537,7.006,2.584,10.672c0,1.33.393-7.169.2-4.949l-.057.766c-.057.593-.115,1.187-.191,1.771-.153,1.177-.335,2.355-.555,3.532-.46,2.527-1.053,5.025-1.723,7.5a168.1,168.1,0,0,1-5.7,16.923,396.915,396.915,0,0,1-17.181,37.33c-6.116,11.716-12.539,23.326-19.143,34.812-7.073,12.29-14.156,24.657-22.493,36.152-3.015,4.164-6.193,8.433-10.089,11.821-1.34,1.158-4.1,3.57-6,2.211a3.963,3.963,0,0,1-1.292-2.584,1.023,1.023,0,0,0-.057-.412,1.933,1.933,0,0,1,0-.22c0-.153-.287,6.767-.287,6.786.067-.373.105-.737.2-1.11a15.213,15.213,0,0,1,.814-2.383c1.914-4.566,5.1-8.662,8.212-12.443,9.8-12.079,21.527-22.723,33.664-32.4A189.821,189.821,0,0,1,442.953,337c5.35-3.14,11.744-6.48,18.186-6.241a9.667,9.667,0,0,1,8.748,5.638,17.5,17.5,0,0,1,1.436,5.992c.048.565.067,1.139.077,1.7,0,2.958.5-7.753.153-4.039-.124,1.311-.316,2.613-.555,3.9-1.35,7.16-4.106,14.09-6.978,20.761s-6.145,13.3-9.629,19.737c-1.464,2.709-2.958,5.408-4.546,8.04a4.837,4.837,0,0,0-.077,1.139c-.048.957-.086,1.828-.124,2.738s-.077,1.828-.105,2.737a3.476,3.476,0,0,1,0,1.139,224.123,224.123,0,0,0,15.315-30.486c2.7-6.547,5.283-13.4,6.231-20.426a92.211,92.211,0,0,0,.66-12.587,21.476,21.476,0,0,0-.957-6.566,9.8,9.8,0,0,0-8.165-7.073c-6.231-.794-12.73,2.431-17.976,5.379-8.012,4.5-15.468,10.146-22.656,15.851-6.853,5.437-13.458,11.208-19.737,17.3A173.654,173.654,0,0,0,387.2,377.967c-3.015,3.829-6.2,7.964-7.849,12.6-1.139,3.207-.881,6.863-.957,10.213a5.886,5.886,0,0,0,.861,3.589c1.493,2.02,4.221.153,5.647-.957,3.953-3.092,7.1-7.313,10.069-11.314,5.073-6.872,9.648-14.109,14.042-21.431q9.964-16.569,19.258-33.5c6.949-12.663,13.621-25.489,19.6-38.631,5.3-11.63,10.328-23.613,13.285-36.085a93.407,93.407,0,0,0,2.106-18.961c.115-4.02,0-8.433-2.173-11.965-4.958-8.031-16.836-4.078-23.671-1.311-13.458,5.456-25.757,13.927-37.425,22.465q-9.763,7.179-19.143,14.874a244.756,244.756,0,0,0-19.277,17.162c-4.106,4.164-8.213,8.614-11.046,13.793a18.181,18.181,0,0,0-1.914,4.786,13.793,13.793,0,0,0-.278,2.163,74.18,74.18,0,0,0-.278,7.849c.249,5.3,6.384,5.973,10.529,5.322a45.251,45.251,0,0,0,12.7-4.48,99.538,99.538,0,0,0,16.827-10.778,146.548,146.548,0,0,0,18.962-17.832,101.011,101.011,0,0,0,14.271-19.6c6.566-12.52,13.755-31.979,16.98-55.908,1.369-9.964.479-9.935.957-19.986.144-3.111-1.283-1.512-1.321-.737-.067,1.579-.153,3.178-.163,4.786Z" transform="translate(-316.94 -156.573)" fill="#37474f"/>
        <path id="Path_32754" data-name="Path 32754" d="M357,182.076s-.689-4.929-4.786-5.743-12.845,1.7-12.759,6.9,3.082,4.441,3.082,4.441Z" transform="translate(-316.572 -156.059)" fill="#263238" stroke="#263238" stroke-linejoin="round" stroke-width="1"/>
        <path id="Path_32755" data-name="Path 32755" d="M348.092,183.929s-6.7,4.183-7.322,8.318a38.783,38.783,0,0,0,.2,9.514s-3.015-2.508-3.436.593.192,6.1,1.637,7.054a9.332,9.332,0,0,0,3.513,1.177s4.556,8.509,7.456,10.261,7.322,2.383,9.342.239a31.367,31.367,0,0,0,5.456-9.725c1.177-3.369,1.809-11.668,1.752-17.459s-6.805-11.419-9.773-11.543S349.623,182.78,348.092,183.929Z" transform="translate(-316.484 -156.322)" fill="#fff" stroke="#263238" stroke-linejoin="round" stroke-width="1"/>
        <path id="Path_32756" data-name="Path 32756" d="M357.058,182.339c-2.967-.124-7.294.44-8.825,1.57,0,0-6.7,4.183-7.322,8.318a38.78,38.78,0,0,0,.2,9.514s.842,1.216,1.512-.536-.153-3.723.268-6.528.23-5.743,4.326-7.657,6.7-.756,9.39-.794,3.293-.613,4.786,0,3.972,4.47,4.929,6.442c.172.354.364.766.546,1.206C366.774,188.082,360.026,182.464,357.058,182.339Z" transform="translate(-316.626 -156.322)" fill="#263238" stroke="#263238" stroke-linejoin="round" stroke-width="1"/>
        <path id="Path_32757" data-name="Path 32757" d="M367.639,202.143s2.565-.957,2.307,1.914-3.226,6.107-3.226,6.107Z" transform="translate(-317.74 -157.164)" fill="none" stroke="#263238" stroke-linejoin="round" stroke-width="1"/>
        <path id="Path_32758" data-name="Path 32758" d="M347.27,204.25s3.044,1.761,5.485.383" transform="translate(-316.907 -157.261)" fill="none" stroke="#263238" stroke-linejoin="round" stroke-width="1"/>
        <path id="Path_32759" data-name="Path 32759" d="M353.833,199.843s-3.905-2.383-6.423.957" transform="translate(-316.913 -157.037)" fill="none" stroke="#263238" stroke-linejoin="round" stroke-width="1"/>
        <path id="Path_32760" data-name="Path 32760" d="M360.14,204.466a3.589,3.589,0,0,0,4.786-.1" transform="translate(-317.458 -157.266)" fill="none" stroke="#263238" stroke-linejoin="round" stroke-width="1"/>
        <path id="Path_32761" data-name="Path 32761" d="M359.53,200.36s3.532-2.671,5.743.239" transform="translate(-317.432 -157.046)" fill="none" stroke="#263238" stroke-linejoin="round" stroke-width="1"/>
        <path id="Path_32762" data-name="Path 32762" d="M355.19,211.712a3.005,3.005,0,0,0,2.977-.172" transform="translate(-317.246 -157.573)" fill="none" stroke="#263238" stroke-linejoin="round" stroke-width="1"/>
        <path id="Path_32763" data-name="Path 32763" d="M352.49,213.16s3.589,2.967,8.614.2" transform="translate(-317.131 -157.642)" fill="none" stroke="#263238" stroke-linejoin="round" stroke-width="1"/>
      </g>
    </g>
    <g id="freepik--character-2--inject-1" transform="translate(-16.741 -254.954)">
      <path id="Path_32764" data-name="Path 32764" d="M545.306,139.763l-.516-2.084c-.534-2.084-7.3-4.185-15.654-1.051s-22.922,14.07-26.573,17.222S477,164.252,455.2,167.9s-44.776,8.353-44.776,8.353H375.362c-14.087,0-36.493,5.735-36.493,5.735-21.906,1.033-54.214,10.936-54.214,10.936s-32.325-9.9-54.214-10.936c0,0-22.388-5.735-36.493-5.735h-34.96s-22.939-4.7-44.776-8.353S70.4,156.968,66.75,153.919,48.495,139.763,40.159,136.7s-15.121-1.033-15.637,1.05l-.534,2.084s-4.168,6.251-3.117,8.852a29.793,29.793,0,0,0,4.168,6.269,7.681,7.681,0,0,0,3.651,5.718c3.651,2.618,10.419,7.3,12.055,10.953s7.3,12.52,13.037,13.553,4.1-7.371,13.932-3.7,28.674,18.255,56.3,25.023,44.776,10.953,47.962,12.52,57.348,25.023,57.348,25.023,26.074,14.07,36.493,15.121a94.246,94.246,0,0,0,18.772,0,94.043,94.043,0,0,0,18.754,0c10.436-1.051,36.493-15.121,36.493-15.121s54.214-23.456,57.348-25.023,20.339-5.735,47.963-12.52,46.4-21.372,56.3-25.023,8.335,4.7,14.07,3.651,11.47-9.9,13.037-13.553,8.352-8.335,12.055-10.953a7.681,7.681,0,0,0,3.651-5.718,29.787,29.787,0,0,0,4.168-6.269C549.474,146.015,545.306,139.763,545.306,139.763Z" transform="translate(-20.701 79.331)" fill="#37474f" stroke="#263238" stroke-linejoin="round" stroke-width="1"/>
      <path id="Path_32765" data-name="Path 32765" d="M111.94,177.72c3.014,1.412,5.7,2.566,7.87,3.444" transform="translate(45.188 110.158)" fill="none" stroke="#263238" stroke-linecap="round" stroke-linejoin="round" stroke-width="1"/>
      <path id="Path_32766" data-name="Path 32766" d="M73.29,156.75s35.373,20.666,59.208,32.532" transform="translate(17.276 95.014)" fill="none" stroke="#263238" stroke-linecap="round" stroke-linejoin="round" stroke-width="1"/>
      <path id="Path_32767" data-name="Path 32767" d="M95.26,166.17s26.194,11.229,46.154,17.876" transform="translate(33.143 101.817)" fill="none" stroke="#263238" stroke-linecap="round" stroke-linejoin="round" stroke-width="1"/>
      <path id="Path_32768" data-name="Path 32768" d="M45.123,156.034c-4.8-1.6-9.7-.207-12.813.9,1.567,3.668,7.285,12.5,13.02,13.536,3.858.706,4.426-2.824,7.388-4.116A10.178,10.178,0,0,0,45.123,156.034Z" transform="translate(-12.318 93.973)" fill="#fff" stroke="#263238" stroke-linejoin="round" stroke-width="1"/>
      <path id="Path_32769" data-name="Path 32769" d="M24.522,137.672l-.534,2.084s-4.168,6.251-3.117,8.852a29.8,29.8,0,0,0,4.168,6.269,7.681,7.681,0,0,0,3.651,5.718,78.77,78.77,0,0,1,9.127,7.216c3.927-2.549,11.814-7.75,14.742-10.695a29.984,29.984,0,0,0,5.993-9.558c-5.855-4.185-13.226-9.024-18.393-10.867C31.824,133.487,25.039,135.588,24.522,137.672Z" transform="translate(-20.701 79.338)" fill="#fff" stroke="#263238" stroke-linejoin="round" stroke-width="1"/>
      <path id="Path_32770" data-name="Path 32770" d="M22.61,137.78a5.287,5.287,0,0,0,2.876,3.582c2.342.93,6.544-1.171,6.544-1.171s-5.166,4.2-6.3,7.939" transform="translate(-19.323 81.314)" fill="none" stroke="#263238" stroke-linecap="round" stroke-linejoin="round" stroke-width="1"/>
      <path id="Path_32771" data-name="Path 32771" d="M238.246,177.94c-2.687,1.24-5.063,2.273-7.026,3.014" transform="translate(131.329 110.317)" fill="none" stroke="#263238" stroke-linecap="round" stroke-linejoin="round" stroke-width="1"/>
      <path id="Path_32772" data-name="Path 32772" d="M299.41,156.75s-35.735,20.8-59.57,32.721" transform="translate(137.554 95.014)" fill="none" stroke="#263238" stroke-linecap="round" stroke-linejoin="round" stroke-width="1"/>
      <path id="Path_32773" data-name="Path 32773" d="M271.814,166.17S245.62,177.4,225.66,184.046" transform="translate(127.313 101.817)" fill="none" stroke="#263238" stroke-linecap="round" stroke-linejoin="round" stroke-width="1"/>
      <path id="Path_32774" data-name="Path 32774" d="M311.2,156.034c4.8-1.6,9.7-.207,12.813.9-1.585,3.668-7.3,12.5-13.037,13.536-3.858.706-4.409-2.824-7.388-4.116A10.212,10.212,0,0,1,311.2,156.034Z" transform="translate(183.581 93.973)" fill="#fff" stroke="#263238" stroke-linejoin="round" stroke-width="1"/>
      <path id="Path_32775" data-name="Path 32775" d="M339.08,137.679l.517,2.084s4.168,6.251,3.134,8.852a30.323,30.323,0,0,1-4.185,6.269,7.681,7.681,0,0,1-3.651,5.718,80.274,80.274,0,0,0-9.127,7.216c-3.927-2.549-11.814-7.75-14.742-10.695a30.152,30.152,0,0,1-5.976-9.558c5.838-4.185,13.278-9.024,18.393-10.936C331.778,133.495,338.546,135.6,339.08,137.679Z" transform="translate(184.646 79.331)" fill="#fff" stroke="#263238" stroke-linejoin="round" stroke-width="1"/>
      <path id="Path_32776" data-name="Path 32776" d="M329.06,137.78a5.166,5.166,0,0,1-2.876,3.582c-2.342.93-6.544-1.171-6.544-1.171s5.167,4.2,6.3,7.939" transform="translate(195.183 81.314)" fill="none" stroke="#263238" stroke-linecap="round" stroke-linejoin="round" stroke-width="1"/>
      <path id="Path_32777" data-name="Path 32777" d="M137.4,73.514a16.671,16.671,0,0,1-6.028-.689c-1.274-.758-2.463-1.481,4.547-18.358v-.1a2.687,2.687,0,0,1,1.722-1.447,5.253,5.253,0,0,1,3.858,1.051l.344.241.207.362c7.354,14.191,6.355,15.93,5.924,16.688a3.892,3.892,0,0,1-2.5,1.55A39.732,39.732,0,0,1,137.4,73.514Zm-3.444-3.548a41.642,41.642,0,0,0,10.919-.534,79.989,79.989,0,0,0-5.58-12.9l-.448-.207a123.838,123.838,0,0,0-4.891,13.64ZM144.948,69.967ZM145.327,69.26Z" transform="translate(58.524 20)" fill="#fff" stroke="#263238" stroke-linejoin="round" stroke-width="1"/>
      <path id="Path_32778" data-name="Path 32778" d="M137.265,65.655a17.221,17.221,0,0,1-6.028-.689c-1.274-.775-2.463-1.481,4.546-18.358v-.121a2.652,2.652,0,0,1,1.722-1.429,5.287,5.287,0,0,1,3.858,1.033l.344.241.189.379c7.354,14.191,6.355,15.93,5.924,16.671a3.823,3.823,0,0,1-2.5,1.55A38.387,38.387,0,0,1,137.265,65.655ZM133.82,62.09a42.331,42.331,0,0,0,10.9-.517,80.011,80.011,0,0,0-5.58-12.865l-.448-.207a121.894,121.894,0,0,0-4.856,13.536ZM144.79,62.09ZM145.187,61.4Z" transform="translate(58.423 14.323)" fill="#fff" stroke="#263238" stroke-linejoin="round" stroke-width="1"/>
      <path id="Path_32779" data-name="Path 32779" d="M135.127,53.8l-3.617,8.835,3.565.913s2.842-8.611,2.928-8.938" transform="translate(59.321 20.667)" fill="#fff"/>
      <line id="Line_518" data-name="Line 518" x1="3.152" y2="9.644" transform="translate(194.379 74.57)" fill="none" stroke="#263238" stroke-linejoin="round" stroke-width="1"/>
      <line id="Line_519" data-name="Line 519" x1="3.961" y2="10.247" transform="translate(190.521 74.363)" fill="none" stroke="#263238" stroke-linejoin="round" stroke-width="1"/>
      <path id="Path_32780" data-name="Path 32780" d="M112.53.02l2.135,67.027,4.305-.482L117.3.244" transform="translate(80.402 -0.02)" fill="#fff" stroke="#263238" stroke-linejoin="round" stroke-width="1"/>
      <path id="Path_32781" data-name="Path 32781" d="M130.761,279.958l-5.08-.017L114.09,52.89l5.063.034Z" transform="translate(81.529 38.161)" fill="#252525" stroke="#252525" stroke-linejoin="round" stroke-width="1"/>
      <path id="Path_32782" data-name="Path 32782" d="M170.236,100.939l1.171,18.014s-23.9,11.211-24.782,11.8,0,12.985,1.722,23.611,6.493,55.109,7.681,58.433,35.408,23.9,39.248,24.489,29.277-22.388,29.277-22.388,12.055-81.751,11.211-83.818-28.622-12.985-30.4-13.777-.9-18.6-.9-18.6Z" transform="translate(69.987 53.092)" fill="#fff" stroke="#263238" stroke-linejoin="round" stroke-width="1"/>
      <path id="Path_32783" data-name="Path 32783" d="M161.21,101.17l1.188,17.118,18.289-3.84S162.984,102.6,161.21,101.17Z" transform="translate(80.77 54.876)" fill="#263238" stroke="#263238" stroke-linejoin="round" stroke-width="1"/>
      <path id="Path_32784" data-name="Path 32784" d="M207.521,109.94c-1.722,9.9-5.029,28.709-6.3,34.443-1.722,7.974-9.437,17.118-9.437,17.118s-12.055-14.156-12.985-17.411-7.388-33.341-7.388-33.341-23.9,11.211-24.782,11.8,0,12.985,1.722,23.611,6.493,55.109,7.681,58.433,35.408,23.9,39.248,24.489,29.277-22.388,29.277-22.388,12.055-81.751,11.211-83.818C234.989,121.1,214.427,112.8,207.521,109.94Z" transform="translate(69.987 61.209)" fill="#37474f" stroke="#263238" stroke-linejoin="round" stroke-width="1"/>
      <path id="Path_32785" data-name="Path 32785" d="M179.6,165.123a74.316,74.316,0,0,0,10.333-1.533" transform="translate(94.05 99.954)" fill="none" stroke="#263238" stroke-linecap="round" stroke-linejoin="round" stroke-width="1"/>
      <path id="Path_32786" data-name="Path 32786" d="M157.92,161.84a101.608,101.608,0,0,0,28.915,4.788" transform="translate(78.394 98.69)" fill="none" stroke="#263238" stroke-linecap="round" stroke-linejoin="round" stroke-width="1"/>
      <path id="Path_32787" data-name="Path 32787" d="M203.768,152.75s-6.8,10.832-31.5,13.243" transform="translate(88.757 92.125)" fill="none" stroke="#263238" stroke-linecap="round" stroke-linejoin="round" stroke-width="1"/>
      <path id="Path_32788" data-name="Path 32788" d="M180.154,109.4s-7.388,23.318-7.974,24.11" transform="translate(88.692 60.819)" fill="none" stroke="#263238" stroke-linejoin="round" stroke-width="1"/>
      <path id="Path_32789" data-name="Path 32789" d="M144.27,112.57l12.09,2.945,8.869-2.945" transform="translate(103.324 81.26)" fill="none" stroke="#263238" stroke-linejoin="round" stroke-width="1"/>
      <path id="Path_32790" data-name="Path 32790" d="M155.084,213.668a101.593,101.593,0,0,1-8.266,10.919c-2.945,2.962-8.611,6.2-7.664,9.162s5.012,10.333,6.493,10.626,10.023-4.736,10.023-4.736c2.377-2.945,6.2-7.371,7.974-9.437S166,220.47,166,217.215,156.858,210.1,155.084,213.668Z" transform="translate(64.765 135.089)" fill="#fff" stroke="#263238" stroke-linejoin="round" stroke-width="1"/>
      <path id="Path_32791" data-name="Path 32791" d="M161.233,257.067c-18.944,0-34.443-14.845-34.443-33.1s15.5-33.117,34.443-33.117,34.443,14.862,34.443,33.117S180.246,257.067,161.233,257.067Zm0-59.329c-15.207,0-27.555,11.762-27.555,26.229s12.382,26.211,27.555,26.211,27.555-11.762,27.555-26.211S176.457,197.739,161.233,197.739Z" transform="translate(55.912 119.64)" fill="#fff" stroke="#263238" stroke-linejoin="round" stroke-width="1"/>
      <path id="Path_32792" data-name="Path 32792" d="M161.867,115.4s-16.533,2.945-22.388,12.382-6.785,15.947-4.719,22.733,3.84,13.278,3.84,13.278.293,17.7,1.464,22.388,4.736,14.466,5.907,18.307.9,19.77,1.481,23.9,7.664,30.1,8.852,33.634.878,25.092.878,25.092a7.1,7.1,0,0,0,3.84,1.722c2.359.293,10.04-.586,10.919-1.481s.293-24.489.9-26.263,3.53-24.489,1.722-36.011-5.941-28.829-5.941-30.31a87.718,87.718,0,0,0,1.464-15.052c0-9.145-.878-19.478-.878-19.478s7.371-9.437,2.359-23.9S165.4,116.278,161.867,115.4Z" transform="translate(60.945 65.152)" fill="#fff" stroke="#263238" stroke-linejoin="round" stroke-width="1"/>
      <path id="Path_32793" data-name="Path 32793" d="M137.22,140.93s7.1,10.04,9.747,10.626,10.626-9.747,10.626-9.747" transform="translate(63.445 83.589)" fill="none" stroke="#263238" stroke-width="1"/>
      <path id="Path_32794" data-name="Path 32794" d="M146,160.46s1.188,12.055,5.614,12.055,7.078-6.493,7.078-6.493" transform="translate(69.785 97.693)" fill="none" stroke="#263238" stroke-width="1"/>
      <path id="Path_32795" data-name="Path 32795" d="M145.11,168.69s.585,14.759,2.945,19.77a58.194,58.194,0,0,0,7.974,11.211" transform="translate(69.143 103.637)" fill="none" stroke="#263238" stroke-width="1"/>
      <path id="Path_32796" data-name="Path 32796" d="M162.793,204.2a33.7,33.7,0,0,1-15.6-.482c.413,7.543.241,19.7.241,19.7a7.1,7.1,0,0,0,3.84,1.722c2.359.293,10.04-.586,10.918-1.481C162.793,223.146,162.707,211.763,162.793,204.2Z" transform="translate(70.645 128.934)" fill="#fff" stroke="#263238" stroke-linejoin="round" stroke-width="1"/>
      <path id="Path_32797" data-name="Path 32797" d="M152.481,223.545s-5.321,6.493-5.321,7.371,2.067,6.889,2.067,9.455,2.962,3.444,3.84,1.171a49.841,49.841,0,0,0,1.481-8.249s4.133.293,6.493-5.907a24.213,24.213,0,0,0,1.171-12.055l-4.719,1.481" transform="translate(70.623 137.319)" fill="#fff" stroke="#263238" stroke-linejoin="round" stroke-width="1"/>
      <path id="Path_32798" data-name="Path 32798" d="M215.559,73.514a16.671,16.671,0,0,0,6.027-.689c1.274-.758,2.48-1.481-4.546-18.358v-.1a2.756,2.756,0,0,0-1.722-1.447,5.253,5.253,0,0,0-3.858,1.051l-.344.241-.207.362c-7.336,14.191-6.355,15.93-5.924,16.688a3.892,3.892,0,0,0,2.5,1.55A39.733,39.733,0,0,0,215.559,73.514ZM219,69.967a41.642,41.642,0,0,1-10.919-.534,80,80,0,0,1,5.511-12.9l.448-.207A123.849,123.849,0,0,1,219,69.967ZM208.033,69.967ZM207.637,69.26Z" transform="translate(112.168 20)" fill="#fff" stroke="#263238" stroke-linejoin="round" stroke-width="1"/>
      <path id="Path_32799" data-name="Path 32799" d="M215.66,65.657a17.066,17.066,0,0,0,6.028-.689c1.274-.775,2.463-1.481-4.547-18.358v-.121a2.652,2.652,0,0,0-1.722-1.429,5.167,5.167,0,0,0-3.858,1.033l-.362.241-.189.379c-7.354,14.191-6.355,15.93-5.924,16.671a3.823,3.823,0,0,0,2.5,1.55A38.389,38.389,0,0,0,215.66,65.657Zm3.444-3.565a42.331,42.331,0,0,1-10.9-.517,80.005,80.005,0,0,1,5.563-12.916l.448-.207a121.88,121.88,0,0,1,4.874,13.588ZM208.134,62.092ZM207.755,61.4Z" transform="translate(112.238 14.321)" fill="#fff" stroke="#263238" stroke-linejoin="round" stroke-width="1"/>
      <path id="Path_32800" data-name="Path 32800" d="M213.063,53.8l3.617,8.835-3.565.913-2.945-8.938" transform="translate(116.127 20.667)" fill="#fff"/>
      <line id="Line_520" data-name="Line 520" x2="3.134" y2="9.644" transform="translate(326.108 74.57)" fill="none" stroke="#263238" stroke-linejoin="round" stroke-width="1"/>
      <line id="Line_521" data-name="Line 521" x2="3.961" y2="10.247" transform="translate(329.139 74.363)" fill="none" stroke="#263238" stroke-linejoin="round" stroke-width="1"/>
      <path id="Path_32801" data-name="Path 32801" d="M195.2.02l-2.153,67.027-4.288-.482L190.431.244" transform="translate(135.453 -0.02)" fill="#fff" stroke="#263238" stroke-linejoin="round" stroke-width="1"/>
      <path id="Path_32802" data-name="Path 32802" d="M181.26,279.958l5.081-.017L197.931,52.89l-5.08.034Z" transform="translate(130.037 38.161)" fill="#252525" stroke="#252525" stroke-linejoin="round" stroke-width="1"/>
      <path id="Path_32803" data-name="Path 32803" d="M201.649,213.668a101.621,101.621,0,0,0,8.266,10.919c2.945,2.962,8.611,6.2,7.664,9.162s-5.011,10.333-6.493,10.626-10.023-4.736-10.023-4.736c-2.359-2.945-6.2-7.371-7.974-9.437s-2.359-9.73-2.359-12.985S199.806,210.1,201.649,213.668Z" transform="translate(102.088 135.089)" fill="#fff" stroke="#263238" stroke-linejoin="round" stroke-width="1"/>
      <path id="Path_32804" data-name="Path 32804" d="M213.083,257.067c18.944,0,34.443-14.845,34.443-33.1s-15.5-33.117-34.443-33.117-34.443,14.862-34.443,33.117S194.071,257.067,213.083,257.067Zm0-59.329c15.207,0,27.555,11.762,27.555,26.229s-12.382,26.211-27.555,26.211-27.555-11.762-27.555-26.211S197.877,197.739,213.083,197.739Z" transform="translate(93.357 119.64)" fill="#fff" stroke="#263238" stroke-linejoin="round" stroke-width="1"/>
      <path id="Path_32805" data-name="Path 32805" d="M200.921,115.4s16.516,2.945,22.388,12.382,6.785,15.947,4.719,22.733-3.84,13.278-3.84,13.278-.293,17.7-1.464,22.388-4.719,14.466-5.907,18.307-.878,19.77-1.481,23.9-7.664,30.1-8.852,33.634-.878,25.092-.878,25.092a7.1,7.1,0,0,1-3.84,1.722c-2.359.293-10.04-.586-10.919-1.481s-.293-24.489-.878-26.263-3.548-24.489-1.722-36.011,5.89-28.915,5.89-30.4a87.731,87.731,0,0,1-1.464-15.052c0-9.145.878-19.478.878-19.478s-7.371-9.438-2.359-23.9S197.374,116.278,200.921,115.4Z" transform="translate(99.87 65.152)" fill="#fff" stroke="#263238" stroke-linejoin="round" stroke-width="1"/>
      <path id="Path_32806" data-name="Path 32806" d="M216.753,140.93s-7.078,10.04-9.747,10.626-10.626-9.747-10.626-9.747" transform="translate(106.168 83.589)" fill="none" stroke="#263238" stroke-width="1"/>
      <path id="Path_32807" data-name="Path 32807" d="M204.792,160.46s-1.188,12.055-5.614,12.055-7.078-6.493-7.078-6.493" transform="translate(103.077 97.693)" fill="none" stroke="#263238" stroke-width="1"/>
      <path id="Path_32808" data-name="Path 32808" d="M204.916,168.69s-.6,14.759-2.962,19.77a58.191,58.191,0,0,1-7.974,11.211" transform="translate(104.435 103.637)" fill="none" stroke="#263238" stroke-width="1"/>
      <path id="Path_32809" data-name="Path 32809" d="M189.18,204.2a33.7,33.7,0,0,0,15.6-.482c-.413,7.543-.241,19.7-.241,19.7a7.1,7.1,0,0,1-3.84,1.722c-2.359.293-10.04-.586-10.919-1.481C189.18,223.146,189.266,211.763,189.18,204.2Z" transform="translate(100.969 128.934)" fill="#fff" stroke="#263238" stroke-linejoin="round" stroke-width="1"/>
      <path id="Path_32810" data-name="Path 32810" d="M199.384,223.545s5.321,6.493,5.321,7.371-2.067,6.889-2.067,9.455-2.945,3.444-3.84,1.171a49.841,49.841,0,0,1-1.481-8.249s-4.116.293-6.493-5.907a24.213,24.213,0,0,1-1.171-12.055l4.719,1.481" transform="translate(101.098 137.319)" fill="#fff" stroke="#263238" stroke-linejoin="round" stroke-width="1"/>
      <path id="Path_32811" data-name="Path 32811" d="M161.885,93.088l-.431,20.666a66.794,66.794,0,0,1-5.683-7.1c-.878-1.722.534-4.719-1.1-10.626s-.74-13.278,4.667-16.516,5.425-.9,9.369-4.133,3.031-7.974,14.828-7.974,19.943,5.907,19.151,10.04-5.046,2.652-4.082,4.426,8.266,2.359,8.353,6.493-3.961,21.837-3.961,21.837-2.067-.878-2.359-5.614,1.6-13.777-.431-16.516-8.869-4.719-12.227-3.84-4.409,2.359-7.888,1.722-8.456-3.255-12.313-.585A19.666,19.666,0,0,0,161.885,93.088Z" transform="translate(75.514 30.495)" fill="#263238" stroke="#263238" stroke-linejoin="round" stroke-width="1"/>
      <path id="Path_32812" data-name="Path 32812" d="M161.927,108.715s-5.3-7.974-7.664-2.359,0,9.145,2.049,10.023a14.726,14.726,0,0,0,5.614.6s6.889,9.834,12.4,13.571a18.272,18.272,0,0,0,22.388-2.067c2.669-2.669,5.029-12.4,5.029-12.4s9.145-.586,8.249-8.611-6.493-2.359-6.493-2.359.431-17.118,0-20.666c0,0,0,.6-2.222-3.531s-8.284-4.719-14.329-5.907-16.774-.878-22.974,2.652-4.719,13.881-4.719,13.881Z" transform="translate(75.041 35.534)" fill="#fff" stroke="#263238" stroke-linejoin="round" stroke-width="1"/>
      <path id="Path_32813" data-name="Path 32813" d="M149.24,85.836l3.53-1.481L151.6,75.21" transform="translate(106.913 54.28)" fill="none" stroke="#263238" stroke-linejoin="round" stroke-width="1"/>
      <path id="Path_32814" data-name="Path 32814" d="M167.55,95.8s7.388-.9,10.04.586" transform="translate(85.348 50.806)" fill="none" stroke="#263238" stroke-linejoin="round" stroke-width="1"/>
      <path id="Path_32815" data-name="Path 32815" d="M161.21,85.712a13.4,13.4,0,0,1,9.455-1.171" transform="translate(80.77 42.589)" fill="none" stroke="#263238" stroke-linejoin="round" stroke-width="1"/>
      <path id="Path_32816" data-name="Path 32816" d="M172.52,84.723a9.283,9.283,0,0,1,9.162.878" transform="translate(88.937 42.407)" fill="none" stroke="#263238" stroke-linejoin="round" stroke-width="1"/>
      <path id="Path_32817" data-name="Path 32817" d="M167.1,87.867a1.722,1.722,0,1,1-1.619-2.067A1.894,1.894,0,0,1,167.1,87.867Z" transform="translate(82.561 43.775)" fill="#263238"/>
      <path id="Path_32818" data-name="Path 32818" d="M177.64,87.987a1.722,1.722,0,1,1-1.619-2.067,1.894,1.894,0,0,1,1.619,2.067Z" transform="translate(90.172 43.862)" fill="#263238"/>
    </g>
    <g id="Group_30891" data-name="Group 30891" transform="translate(-40.229 192.948)">
      <g id="freepik--shadow-1--inject-1" transform="translate(12.622 150.211)">
        <ellipse id="Ellipse_3467" data-name="Ellipse 3467" cx="105.957" cy="11.299" rx="105.957" ry="11.299" fill="#263238"/>
      </g>
      <g id="freepik--character-1--inject-1">
        <path id="Path_32819" data-name="Path 32819" d="M167.424,391.671s16.111,5.77,20.582,6.6,15.927,12.913,11.235,20.987-14.175,8.478-18.855,14.481-4.643,10.156-4.643,10.156L153.69,462.583s-19.958-3.675-32.442-3.5-23.731,4.129-30.543,6.885a72.918,72.918,0,0,1-19.872,4.08c-2.671,0-11.369-7.008-14.04-6.126a51.564,51.564,0,0,0-7.976,4.545,28.794,28.794,0,0,0-8.343-2.585c-3.577-.257-9.213.7-10.953,3.994s1.874,8.294,6.628,8.846a148.835,148.835,0,0,0,19.345,1.556c7.437-.073,45.171-1.1,49.006-1.433s34.831,4.656,44.338,3.957a208.09,208.09,0,0,0,20.827-2.9l21.011-8.576s-8.245,7.228-6.126,8.686,14.273.135,16.944-.184,53.808.282,70.47,2.181,27.688,3.259,31.523.539,9.176-3.381,10.328-6.665,1.691-8.637-.123-11.3-5.415-5.881-27.848-17.52-47.425-14.028-47.425-14.028a43.368,43.368,0,0,0,.159-12.19c-.943-5.342-1.3-10.7-1.3-10.7s-4.141-24.319-8.049-28.436-10.794-8.208-11.994-9.09-1.531-4.141-6.653-10.022-13.771-8.172-16.147-8.747-27.823,2.952-33.973,10.463S162.046,388.768,167.424,391.671Z" transform="translate(-29.078 -316.872)" fill="#fff" stroke="#263238" stroke-linejoin="round" stroke-width="1"/>
        <path id="Path_32820" data-name="Path 32820" d="M167.74,392.94a13.1,13.1,0,0,1,2.021,6.236" transform="translate(2.142 -308.058)" fill="none" stroke="#263238" stroke-linejoin="round" stroke-width="1"/>
        <path id="Path_32821" data-name="Path 32821" d="M142.48,378.16s2.45,6.346,12.447,7.829a30.63,30.63,0,0,1,15.192,6.469" transform="translate(-3.546 -311.386)" fill="none" stroke="#263238" stroke-linejoin="round" stroke-width="1"/>
        <path id="Path_32822" data-name="Path 32822" d="M185.875,372.252,168,359.743l5.133-4.043S185.618,364.643,185.875,372.252Z" transform="translate(2.2 -316.443)" fill="#c2c2c2" stroke="#263238" stroke-linejoin="round" stroke-width="1"/>
        <path id="Path_32823" data-name="Path 32823" d="M211.532,414.915c-.943-5.342-1.3-10.7-1.3-10.7s-2.646-15.486-5.7-23.829c-.2,4.361-1.127,16.2-5.636,21.281-5.574,6.309-23.89,16.331-25.4,15.155a7.5,7.5,0,0,1-1.593-2.977c-4.79,7.51-13.918,8.061-18.487,13.905s-4.643,10.156-4.643,10.156,5.464,10.34,16.2,12.9,27.333-1.495,34.3-11.088S211.324,427.1,211.324,427.1A43.372,43.372,0,0,0,211.532,414.915Z" transform="translate(-2.127 -310.884)" fill="#c2c2c2" stroke="#263238" stroke-linejoin="round" stroke-width="1"/>
        <path id="Path_32824" data-name="Path 32824" d="M165.089,413.58s-8.2,11.688-5.979,23.854" transform="translate(0.113 -303.411)" fill="none" stroke="#263238" stroke-linejoin="round" stroke-width="1"/>
        <path id="Path_32825" data-name="Path 32825" d="M182.4,417.51a23.6,23.6,0,0,0-11.026,7.29c-7.032,8.993-3.1,14.9-3.1,14.9" transform="translate(2.014 -302.526)" fill="none" stroke="#263238" stroke-linejoin="round" stroke-width="1"/>
        <path id="Path_32826" data-name="Path 32826" d="M189.75,415.73a39.2,39.2,0,0,0-5.77.735" transform="translate(5.798 -302.927)" fill="none" stroke="#263238" stroke-linejoin="round" stroke-width="1"/>
        <path id="Path_32827" data-name="Path 32827" d="M124.969,375.226s-15.51,2.806-18.9,5.734S80.741,401,77.348,403.147s-11.8,4.349-13.636,5.415-4.7,2.953-4.7,2.953a81.521,81.521,0,0,0-6.787,6.126c-1.556,1.862.539.784,2.377.5s4.741-.845,5.525-.858,6.579-.074,8.429-.355a48.4,48.4,0,0,0,4.717-1.115l3.443,1.017s1.617,3.933,2.7,6.028,4.766,2.316,4.227.22-2.156-3.675-1.911-5.77,2.573-4.778,2.818-6.616a16.859,16.859,0,0,1,1.017-3.676s38.813-14.922,43.529-17.079,4.9-9.8,2.45-13.477S124.969,375.226,124.969,375.226Z" transform="translate(-23.99 -312.225)" fill="#fff" stroke="#263238" stroke-linejoin="round" stroke-width="1"/>
        <path id="Path_32828" data-name="Path 32828" d="M56.005,407.162s-.466,2.144,2.316.466,6.53-4.178,6.53-4.178,4.631,2.45,8.882,1.225" transform="translate(-23.021 -305.692)" fill="none" stroke="#263238" stroke-linejoin="round" stroke-width="1"/>
        <path id="Path_32829" data-name="Path 32829" d="M146.524,404.1a7.89,7.89,0,1,1-2.371-5.566A7.9,7.9,0,0,1,146.524,404.1Z" transform="translate(-6.193 -307.306)" stroke="#000" stroke-linejoin="round" stroke-width="1"/>
        <path id="Path_32830" data-name="Path 32830" d="M140.534,360.63l-13.1,7s-9.8.1-12.1.392-3.418.564-3.394,3.2.086,7.118.086,7.118-3.908,3.675-2.585,4.239a12.412,12.412,0,0,1,3.185,2.6s.061,6.052,1.127,7.094,5.66,11.259,9.911,14.114,11.627,3.553,16.87,1.4,6.261-5.611,8.331-8,2.818-7.351,2.818-7.351a12.251,12.251,0,0,0-1.911-6.567,24.4,24.4,0,0,0-5.611-6.26,34.821,34.821,0,0,1-2.977-7.081C139.591,367.479,140.534,360.63,140.534,360.63Z" transform="translate(-11.046 -315.333)" fill="#fff" stroke="#263238" stroke-linejoin="round" stroke-width="1"/>
        <path id="Path_32831" data-name="Path 32831" d="M137.653,384.136c-2.352,2.132-6.309.87-7.143-2.818,0,0-.845-4.729-2.45-2.34s.821,2.622-2.034,6.126S117.45,391,117.45,393.68s5.109,6.922,4.349,9.372c4.239,2.855,11.627,3.553,16.87,1.4s6.261-5.611,8.331-8,2.818-7.351,2.818-7.351a12.251,12.251,0,0,0-1.911-6.567,24.406,24.406,0,0,0-5.611-6.26c-2.364-.233-6.591-.711-6.591-.711S139.993,382,137.653,384.136Z" transform="translate(-9.181 -311.971)" stroke="#000" stroke-linejoin="round" stroke-width="1"/>
        <path id="Path_32832" data-name="Path 32832" d="M115.05,385.89a5.134,5.134,0,0,0,4.447-2.94" transform="translate(-9.721 -310.307)" fill="none" stroke="#263238" stroke-linejoin="round" stroke-width="1"/>
        <path id="Path_32833" data-name="Path 32833" d="M116.42,381.413c0,.8-.392,1.458-.907,1.458s-.931-.637-.943-1.433.4-1.458.907-1.458S116.408,380.617,116.42,381.413Z" transform="translate(-9.829 -310.976)" fill="#263238"/>
        <path id="Path_32834" data-name="Path 32834" d="M137.666,374.779l1.629-1.985s-3.675-8.895-7.02-10.745l-3.675,2.034s5.55,1.776,9.066,10.7" transform="translate(-6.671 -315.013)" stroke="#000" stroke-linejoin="round" stroke-width="1"/>
        <line id="Line_522" data-name="Line 522" x2="6.873" y2="2.291" transform="translate(116.392 52.293)" fill="none" stroke="#263238" stroke-linejoin="round" stroke-width="1"/>
        <path id="Path_32835" data-name="Path 32835" d="M240.693,487.959c-51.076.576-93.05-35.419-93.552-80.222s40.65-81.729,91.714-82.305,93.05,35.419,93.552,80.223S291.769,487.383,240.693,487.959Zm-1.776-158.852c-49.006.551-88.578,35.8-88.1,78.593s40.785,77.184,89.84,76.584,88.566-35.811,88.088-78.593S287.959,328.58,238.916,329.107Z" transform="translate(-2.497 -323.259)" stroke="#000" stroke-linejoin="round" stroke-width="1"/>
        <path id="Path_32836" data-name="Path 32836" d="M153.189,380.153s2.291-3.124,3.835-3.921,8.723-4.484,14.4-5.587,16.944-8.968,16.944-8.968a61.829,61.829,0,0,0,6.959-1.629c4.9-1.348,46.041-16.527,46.041-16.527s11.333-3.492,14.408-5.587a33.387,33.387,0,0,0,6.383-6.787l-13.219-3.467-7.9,8.576s-44.877,6.187-51.064,7.547-12.839,6.126-13.611,6.346-12.1,2.977-14.432,3.259-13.158.674-18.291,3.565S134.849,368,134.849,368s-2.279,10.267,3.675,18.916" transform="translate(-5.36 -322.751)" fill="#fff" stroke="#263238" stroke-linejoin="round" stroke-width="1"/>
        <path id="Path_32837" data-name="Path 32837" d="M212.009,346.533c7.13-2.6,12.533-4.594,12.533-4.594l1.629-.515c-.625-2.352-1.495-5.489-1.96-6.714,0,0-6.6.907-15.082,2.107Z" transform="translate(11.46 -321.168)" stroke="#000" stroke-linejoin="round" stroke-width="1"/>
        <path id="Path_32838" data-name="Path 32838" d="M239.714,334.393s6.126-7.633,5.783-8.466-14.7-2.634-15.412-2.205-2.732,6.052-2.3,6.6S239.714,334.393,239.714,334.393Z" transform="translate(15.646 -323.657)" fill="#fff" stroke="#263238" stroke-linejoin="round" stroke-width="1"/>
        <line id="Line_523" data-name="Line 523" x1="4.386" y2="8.441" transform="translate(252.126 1.07)" fill="none" stroke="#263238" stroke-linejoin="round" stroke-width="1"/>
        <line id="Line_524" data-name="Line 524" x1="3.406" y2="8.441" transform="translate(249.185 0.408)" fill="none" stroke="#263238" stroke-linejoin="round" stroke-width="1"/>
        <line id="Line_525" data-name="Line 525" x1="2.855" y2="7.314" transform="translate(245.669 0.592)" fill="none" stroke="#263238" stroke-linejoin="round" stroke-width="1"/>
        <path id="Path_32839" data-name="Path 32839" d="M227.23,340.99s9.642-1.936,10.193-2.218,2.9-3.81,4.006-4.8,6.689-2.45,7.094-4.288-2.671-.943-4.349-.367a41.473,41.473,0,0,0-4.729,2.291s-8.11.1-9.924,1.225-2.891,4.227-3.161,4.79" transform="translate(15.34 -322.548)" fill="#fff" stroke="#263238" stroke-linejoin="round" stroke-width="1"/>
        <path id="Path_32840" data-name="Path 32840" d="M273.253,448.428s-32.5-9.14-42.88-7.241-29.342,7.755-33.508,8.1-6.236.368-6.236.368-2.45-7.351-7.216-7.939-6.53,1.85-7.094,3.676-4.717,3.675-7.094,4.545a58.107,58.107,0,0,1-7.106,1.862s-8.245,7.228-6.126,8.686,14.273.135,16.944-.184,53.808.282,70.47,2.181l5.562.625,1.887-.122,8.649.809s11.933.943,13.121.564a30.412,30.412,0,0,0,4.031-2.07s6.432-.784,8.074-3.786,2.156-10.059,1.544-11.725a14.607,14.607,0,0,0-3.038-3.9" transform="translate(-0.581 -297.254)" fill="#fff" stroke="#263238" stroke-linejoin="round" stroke-width="1"/>
        <path id="Path_32841" data-name="Path 32841" d="M45.724,447.43s-3.761,3.43-2.953,5.4" transform="translate(-26.02 -295.79)" fill="none" stroke="#263238" stroke-linejoin="round" stroke-width="1"/>
      </g>
    </g>
  </g>
</svg>
